<svg width="122" height="42" viewBox="0 0 122 42" fill="none" xmlns="http://www.w3.org/2000/svg">
<g filter="url(#filter0_d_3451_87)">
<rect width="31.9291" height="31.9291" transform="translate(5 3)" fill="black"/>
<g filter="url(#filter1_ii_3451_87)">
<rect x="7" y="5" width="28" height="28" rx="6.36928" fill="white"/>
<path d="M12.0777 25.4991C11.705 25.4991 11.3743 25.3488 11.0858 25.0482C10.8093 24.7476 10.5748 24.3509 10.3824 23.8579C10.2021 23.365 10.0518 22.824 9.93158 22.2348C9.82338 21.6457 9.74523 21.0566 9.69714 20.4675C9.64905 19.8663 9.625 19.3253 9.625 18.8444C9.625 18.2312 9.67309 17.582 9.76928 16.8967C9.86546 16.2114 10.0338 15.5681 10.2742 14.967C10.5147 14.3538 10.8453 13.8549 11.2661 13.4701C11.6869 13.0854 12.228 12.893 12.8892 12.893C13.3461 12.893 13.7429 13.0433 14.0795 13.3439C14.4282 13.6324 14.7408 14.0412 15.0173 14.5702C15.2938 15.0872 15.5583 15.6824 15.8108 16.3556C16.0633 17.0289 16.3338 17.7443 16.6223 18.5017C16.5742 17.4678 16.6043 16.53 16.7125 15.6884C16.8327 14.8347 17.0732 14.1554 17.4339 13.6505C17.7946 13.1455 18.3056 12.893 18.9668 12.893C19.5319 12.893 19.9827 13.0854 20.3194 13.4701C20.6681 13.8549 20.9326 14.3538 21.1129 14.967C21.2932 15.5681 21.4135 16.2114 21.4736 16.8967C21.5457 17.582 21.5818 18.2312 21.5818 18.8444C21.5818 19.3373 21.5457 19.8784 21.4736 20.4675C21.4015 21.0566 21.2812 21.6457 21.1129 22.2348C20.9446 22.824 20.7161 23.365 20.4276 23.8579C20.139 24.3509 19.7844 24.7476 19.3636 25.0482C18.9548 25.3488 18.4618 25.4991 17.8847 25.4991C17.3678 25.4991 16.9229 25.3368 16.5502 25.0121C16.1895 24.6755 15.8649 24.2367 15.5763 23.6956C15.2998 23.1426 15.0413 22.5354 14.8009 21.8742C14.5604 21.2129 14.3079 20.5516 14.0434 19.8904C14.0554 20.72 14.0554 21.4834 14.0434 22.1807C14.0314 22.866 13.9653 23.4552 13.845 23.9481C13.7368 24.4411 13.5445 24.8258 13.2679 25.1023C12.9914 25.3668 12.5947 25.4991 12.0777 25.4991Z" fill="black"/>
<path d="M27.7741 25.463C26.6319 25.463 25.5919 25.2346 24.6541 24.7777C23.7163 24.3088 22.9709 23.6055 22.4179 22.6677C21.8648 21.7299 21.5883 20.5576 21.5883 19.151C21.5883 18.3214 21.7326 17.5339 22.0211 16.7885C22.3097 16.031 22.7124 15.3577 23.2294 14.7686C23.7584 14.1795 24.3776 13.7166 25.0869 13.38C25.7963 13.0433 26.5778 12.875 27.4314 12.875C28.5015 12.875 29.4392 13.0734 30.2448 13.4701C31.0503 13.8549 31.6755 14.3839 32.1204 15.0572C32.5772 15.7304 32.8057 16.4819 32.8057 17.3115C32.8057 17.6361 32.7395 17.9487 32.6073 18.2492C32.4871 18.5378 32.2947 18.7783 32.0302 18.9706C31.7777 19.163 31.4471 19.2592 31.0383 19.2592C30.6536 19.2592 30.347 19.1991 30.1185 19.0788C29.9021 18.9586 29.7158 18.8143 29.5595 18.646C29.4152 18.4657 29.2649 18.2853 29.1086 18.105C28.9523 17.9246 28.76 17.7743 28.5315 17.6541C28.3031 17.5339 27.9905 17.4738 27.5937 17.4738C27.221 17.4738 26.8784 17.57 26.5658 17.7623C26.2532 17.9547 26.0007 18.2192 25.8083 18.5558C25.628 18.8805 25.5378 19.2532 25.5378 19.674C25.5378 20.2992 25.7001 20.8462 26.0247 21.3151C26.3614 21.784 26.8363 22.0184 27.4495 22.0184C27.9304 22.0184 28.3091 21.9463 28.5856 21.802C28.8742 21.6577 29.1146 21.4954 29.307 21.3151C29.5114 21.1227 29.7278 20.9544 29.9562 20.8101C30.1967 20.6659 30.5033 20.5937 30.876 20.5937C31.405 20.5937 31.8018 20.768 32.0663 21.1167C32.3428 21.4654 32.457 21.8922 32.4089 22.3972C32.3608 22.9141 32.1324 23.4071 31.7236 23.876C31.3268 24.3449 30.7858 24.7296 30.1005 25.0302C29.4272 25.3187 28.6517 25.463 27.7741 25.463Z" fill="black"/>
</g>
<g filter="url(#filter2_i_3451_87)">
<path d="M45.5357 25.9648V11.4448H49.6717L56.2497 21.7188H56.4917L56.2937 11.4448H59.3737V25.9648H55.6337L48.6817 15.2068H48.4397L48.6377 25.9648H45.5357ZM67.1483 26.2728C66.1949 26.2728 65.3443 26.1408 64.5963 25.8768C63.8629 25.6128 63.2396 25.2315 62.7263 24.7328C62.2129 24.2342 61.8169 23.6182 61.5383 22.8848C61.2743 22.1515 61.1423 21.3228 61.1423 20.3988C61.1423 19.4895 61.2669 18.6535 61.5163 17.8908C61.7803 17.1135 62.1616 16.4462 62.6603 15.8888C63.1589 15.3168 63.7676 14.8768 64.4863 14.5688C65.2049 14.2608 66.0189 14.1068 66.9283 14.1068C67.8083 14.1068 68.5929 14.2535 69.2823 14.5468C69.9716 14.8255 70.5436 15.2508 70.9983 15.8228C71.4676 16.3948 71.8049 17.0988 72.0103 17.9348C72.2303 18.7562 72.3109 19.7022 72.2523 20.7728L63.1883 20.8608V19.1228L70.4263 19.0568L69.3043 19.9368C69.4069 19.1595 69.3556 18.5215 69.1503 18.0228C68.9449 17.5242 68.6443 17.1575 68.2483 16.9228C67.8669 16.6882 67.4416 16.5708 66.9723 16.5708C66.4149 16.5708 65.9236 16.7175 65.4983 17.0108C65.0729 17.3042 64.7429 17.7368 64.5083 18.3088C64.2736 18.8662 64.1563 19.5408 64.1563 20.3328C64.1563 21.5795 64.4276 22.4962 64.9703 23.0828C65.5276 23.6695 66.2536 23.9628 67.1483 23.9628C67.5589 23.9628 67.9036 23.9115 68.1823 23.8088C68.4756 23.6915 68.7103 23.5448 68.8863 23.3688C69.0769 23.1928 69.2236 22.9948 69.3263 22.7748C69.4436 22.5548 69.5389 22.3348 69.6123 22.1148L72.3623 22.7088C72.2303 23.2515 72.0323 23.7428 71.7683 24.1828C71.5189 24.6082 71.1816 24.9822 70.7563 25.3048C70.3309 25.6128 69.8176 25.8475 69.2163 26.0088C68.6296 26.1848 67.9403 26.2728 67.1483 26.2728ZM72.3943 25.9648L76.2223 20.1788L72.3943 14.4148H76.0463L78.1583 18.7708H78.5323L80.6443 14.4148H84.2743L80.4463 20.1788L84.3183 25.9648H80.6883L78.5323 21.5868H78.1583L76.0463 25.9648H72.3943ZM90.2555 26.2728C89.2582 26.2728 88.3855 26.1262 87.6375 25.8328C86.8895 25.5395 86.2662 25.1288 85.7675 24.6008C85.2688 24.0728 84.8948 23.4495 84.6455 22.7308C84.3962 21.9975 84.2715 21.1982 84.2715 20.3328C84.2715 19.4235 84.3962 18.5948 84.6455 17.8468C84.9095 17.0842 85.2908 16.4242 85.7895 15.8668C86.2882 15.3095 86.9042 14.8768 87.6375 14.5688C88.3708 14.2608 89.2068 14.1068 90.1455 14.1068C91.0842 14.1068 91.8982 14.2608 92.5875 14.5688C93.2915 14.8768 93.8562 15.3095 94.2815 15.8668C94.7215 16.4095 95.0222 17.0548 95.1835 17.8028L92.2575 18.7488C92.2135 18.2942 92.0888 17.9055 91.8835 17.5828C91.6928 17.2455 91.4288 16.9962 91.0915 16.8348C90.7688 16.6588 90.4022 16.5708 89.9915 16.5708C89.5662 16.5708 89.1995 16.6588 88.8915 16.8348C88.5835 16.9962 88.3195 17.2382 88.0995 17.5608C87.8942 17.8688 87.7328 18.2502 87.6155 18.7048C87.5128 19.1448 87.4615 19.6435 87.4615 20.2008C87.4615 20.9928 87.5642 21.6675 87.7695 22.2248C87.9895 22.7675 88.3048 23.1855 88.7155 23.4788C89.1408 23.7575 89.6615 23.8968 90.2775 23.8968C90.8642 23.8968 91.3335 23.7868 91.6855 23.5668C92.0375 23.3322 92.2942 23.0388 92.4555 22.6868C92.6315 22.3202 92.7415 21.9462 92.7855 21.5648L95.5575 22.1808C95.4842 22.7528 95.3228 23.2882 95.0735 23.7868C94.8388 24.2855 94.5015 24.7182 94.0615 25.0848C93.6215 25.4515 93.0862 25.7448 92.4555 25.9648C91.8395 26.1702 91.1062 26.2728 90.2555 26.2728ZM102.078 26.2728C101.125 26.2728 100.274 26.1408 99.5264 25.8768C98.7931 25.6128 98.1698 25.2315 97.6564 24.7328C97.1431 24.2342 96.7471 23.6182 96.4684 22.8848C96.2044 22.1515 96.0724 21.3228 96.0724 20.3988C96.0724 19.4895 96.1971 18.6535 96.4464 17.8908C96.7104 17.1135 97.0918 16.4462 97.5904 15.8888C98.0891 15.3168 98.6978 14.8768 99.4164 14.5688C100.135 14.2608 100.949 14.1068 101.858 14.1068C102.738 14.1068 103.523 14.2535 104.212 14.5468C104.902 14.8255 105.474 15.2508 105.928 15.8228C106.398 16.3948 106.735 17.0988 106.94 17.9348C107.16 18.7562 107.241 19.7022 107.182 20.7728L98.1184 20.8608V19.1228L105.356 19.0568L104.234 19.9368C104.337 19.1595 104.286 18.5215 104.08 18.0228C103.875 17.5242 103.574 17.1575 103.178 16.9228C102.797 16.6882 102.372 16.5708 101.902 16.5708C101.345 16.5708 100.854 16.7175 100.428 17.0108C100.003 17.3042 99.6731 17.7368 99.4384 18.3088C99.2038 18.8662 99.0864 19.5408 99.0864 20.3328C99.0864 21.5795 99.3578 22.4962 99.9004 23.0828C100.458 23.6695 101.184 23.9628 102.078 23.9628C102.489 23.9628 102.834 23.9115 103.112 23.8088C103.406 23.6915 103.64 23.5448 103.816 23.3688C104.007 23.1928 104.154 22.9948 104.256 22.7748C104.374 22.5548 104.469 22.3348 104.542 22.1148L107.292 22.7088C107.16 23.2515 106.962 23.7428 106.698 24.1828C106.449 24.6082 106.112 24.9822 105.686 25.3048C105.261 25.6128 104.748 25.8475 104.146 26.0088C103.56 26.1848 102.87 26.2728 102.078 26.2728ZM108.834 25.9648V10.2348H111.958V25.9648H108.834ZM114.211 25.9648V10.2348H117.335V25.9648H114.211Z" fill="#353535"/>
</g>
</g>
<defs>
<filter id="filter0_d_3451_87" x="0.5" y="0.5" width="122.93" height="40.9297" filterUnits="userSpaceOnUse" color-interpolation-filters="sRGB">
<feFlood flood-opacity="0" result="BackgroundImageFix"/>
<feColorMatrix in="SourceAlpha" type="matrix" values="0 0 0 0 0 0 0 0 0 0 0 0 0 0 0 0 0 0 127 0" result="hardAlpha"/>
<feOffset dy="2"/>
<feGaussianBlur stdDeviation="2.25"/>
<feComposite in2="hardAlpha" operator="out"/>
<feColorMatrix type="matrix" values="0 0 0 0 0 0 0 0 0 0 0 0 0 0 0 0 0 0 0.07 0"/>
<feBlend mode="normal" in2="BackgroundImageFix" result="effect1_dropShadow_3451_87"/>
<feBlend mode="normal" in="SourceGraphic" in2="effect1_dropShadow_3451_87" result="shape"/>
</filter>
<filter id="filter1_ii_3451_87" x="6.125" y="5" width="28.875" height="30.625" filterUnits="userSpaceOnUse" color-interpolation-filters="sRGB">
<feFlood flood-opacity="0" result="BackgroundImageFix"/>
<feBlend mode="normal" in="SourceGraphic" in2="BackgroundImageFix" result="shape"/>
<feColorMatrix in="SourceAlpha" type="matrix" values="0 0 0 0 0 0 0 0 0 0 0 0 0 0 0 0 0 0 127 0" result="hardAlpha"/>
<feOffset dy="1.75"/>
<feGaussianBlur stdDeviation="0.56875"/>
<feComposite in2="hardAlpha" operator="arithmetic" k2="-1" k3="1"/>
<feColorMatrix type="matrix" values="0 0 0 0 1 0 0 0 0 1 0 0 0 0 1 0 0 0 0.25 0"/>
<feBlend mode="normal" in2="shape" result="effect1_innerShadow_3451_87"/>
<feColorMatrix in="SourceAlpha" type="matrix" values="0 0 0 0 0 0 0 0 0 0 0 0 0 0 0 0 0 0 127 0" result="hardAlpha"/>
<feOffset dx="-0.875" dy="2.625"/>
<feGaussianBlur stdDeviation="1.53125"/>
<feComposite in2="hardAlpha" operator="arithmetic" k2="-1" k3="1"/>
<feColorMatrix type="matrix" values="0 0 0 0 1 0 0 0 0 1 0 0 0 0 1 0 0 0 0.22 0"/>
<feBlend mode="normal" in2="effect1_innerShadow_3451_87" result="effect2_innerShadow_3451_87"/>
</filter>
<filter id="filter2_i_3451_87" x="45.5352" y="10.2344" width="72.3008" height="16.5391" filterUnits="userSpaceOnUse" color-interpolation-filters="sRGB">
<feFlood flood-opacity="0" result="BackgroundImageFix"/>
<feBlend mode="normal" in="SourceGraphic" in2="BackgroundImageFix" result="shape"/>
<feColorMatrix in="SourceAlpha" type="matrix" values="0 0 0 0 0 0 0 0 0 0 0 0 0 0 0 0 0 0 127 0" result="hardAlpha"/>
<feOffset dx="0.5" dy="0.5"/>
<feGaussianBlur stdDeviation="0.6"/>
<feComposite in2="hardAlpha" operator="arithmetic" k2="-1" k3="1"/>
<feColorMatrix type="matrix" values="0 0 0 0 0 0 0 0 0 0 0 0 0 0 0 0 0 0 0.25 0"/>
<feBlend mode="normal" in2="shape" result="effect1_innerShadow_3451_87"/>
</filter>
</defs>
</svg>
