<svg width="1280" height="420" viewBox="0 0 128 42" fill="none" xmlns="http://www.w3.org/2000/svg">
<g filter="url(#filter0_d_3451_103)">
<g clip-path="url(#clip0_3451_103)">
<path d="M36.9297 40.4648H-6.07031V-2.53516H36.9297V40.4648ZM22.96 15.667C21.6541 15.667 20.4193 16.106 19.2559 16.9844C18.2684 17.7098 17.5037 18.6839 16.9609 19.9053C16.9702 19.7701 16.9756 19.6396 16.9756 19.5137C16.9756 18.3028 16.7384 17.3889 16.2637 16.7715C15.8125 16.1541 14.993 15.8447 13.8057 15.8447C12.4523 15.8448 11.4194 16.4035 10.707 17.5195C9.99478 18.6356 9.51966 20.1673 9.28223 22.1143C9.16352 23.1352 9.05688 24.2749 8.96191 25.5332C8.89068 26.7679 8.83069 28.0026 8.7832 29.2373C8.73571 30.4721 8.71191 31.5886 8.71191 32.5859C8.71192 34.5329 9.08047 35.9218 9.81641 36.7529C10.5525 37.5603 11.6452 37.9648 13.0938 37.9648C14.2808 37.9648 15.2187 37.5963 15.9072 36.8604C16.6196 36.1242 17.047 34.9011 17.1895 33.1914C17.2369 32.6215 17.2731 31.921 17.2969 31.0898C17.3444 30.235 17.3796 29.3802 17.4033 28.5254C17.4508 27.6708 17.5098 26.9585 17.5811 26.3887C17.7235 25.2727 18.0206 24.4055 18.4717 23.7881C18.9228 23.1707 19.4693 22.8623 20.1104 22.8623C21.2738 22.8623 21.8554 23.8353 21.8555 25.7822C21.8555 26.3996 21.8203 27.1839 21.749 28.1338C21.7015 29.0835 21.6425 30.0451 21.5713 31.0186C21.5001 31.9921 21.4639 32.8355 21.4639 33.5479C21.4639 34.83 21.7495 35.8391 22.3193 36.5752C22.9129 37.2874 23.7555 37.6435 24.8477 37.6436C25.8212 37.6436 26.6646 37.4304 27.377 37.0029C28.0893 36.5518 28.6357 35.8864 29.0156 35.0078C29.2768 34.438 29.4901 33.7134 29.6562 32.835C29.8225 31.9327 29.9529 30.935 30.0479 29.8428C30.1428 28.7506 30.1904 27.6462 30.1904 26.5303C30.1904 24.3221 29.9172 22.4105 29.3711 20.7959C28.8487 19.1577 28.0537 17.8991 26.9854 17.0205C25.9168 16.1182 24.5747 15.667 22.96 15.667Z" fill="#45008F"/>
</g>
<g filter="url(#filter1_i_3451_103)">
<path d="M45.5357 25.9648V11.4448H49.6717L56.2497 21.7188H56.4917L56.2937 11.4448H59.3737V25.9648H55.6337L48.6817 15.2068H48.4397L48.6377 25.9648H45.5357ZM61.9343 25.9648V11.4448H65.1243V25.9648H61.9343ZM64.1343 25.9648V23.3908H73.1323V25.9648H64.1343ZM64.1343 19.8048V17.4508H72.0323V19.8048H64.1343ZM64.1343 13.9968V11.4448H73.0883V13.9968H64.1343ZM73.8793 25.9648L78.8733 18.6828L73.9893 11.4448H77.6853L81.0293 16.9888H81.1613L84.5273 11.4448H88.2453L83.2953 18.6168L88.3773 25.9648H84.6813L81.1393 20.2888H81.0293L77.5753 25.9648H73.8793ZM93.0205 25.9648V11.4448H96.1885V25.9648H93.0205ZM88.7305 14.1068V11.4448H100.478V14.1068H88.7305ZM101.849 25.9648V11.4448H105.017V25.9648H101.849ZM102.509 25.9648V23.3028H111.155V25.9648H102.509ZM114.149 25.9648V21.4328L108.803 11.4448H112.587L115.689 18.5728H115.821L118.901 11.4448H122.641L117.339 21.4108V25.9648H114.149Z" fill="#353535"/>
</g>
</g>
<defs>
<filter id="filter0_d_3451_103" x="0.5" y="0.5" width="126.93" height="40.9297" filterUnits="userSpaceOnUse" color-interpolation-filters="sRGB">
<feFlood flood-opacity="0" result="BackgroundImageFix"/>
<feColorMatrix in="SourceAlpha" type="matrix" values="0 0 0 0 0 0 0 0 0 0 0 0 0 0 0 0 0 0 127 0" result="hardAlpha"/>
<feOffset dy="2"/>
<feGaussianBlur stdDeviation="2.25"/>
<feComposite in2="hardAlpha" operator="out"/>
<feColorMatrix type="matrix" values="0 0 0 0 0 0 0 0 0 0 0 0 0 0 0 0 0 0 0.07 0"/>
<feBlend mode="normal" in2="BackgroundImageFix" result="effect1_dropShadow_3451_103"/>
<feBlend mode="normal" in="SourceGraphic" in2="effect1_dropShadow_3451_103" result="shape"/>
</filter>
<filter id="filter1_i_3451_103" x="45.5352" y="11.4453" width="77.6055" height="15.0195" filterUnits="userSpaceOnUse" color-interpolation-filters="sRGB">
<feFlood flood-opacity="0" result="BackgroundImageFix"/>
<feBlend mode="normal" in="SourceGraphic" in2="BackgroundImageFix" result="shape"/>
<feColorMatrix in="SourceAlpha" type="matrix" values="0 0 0 0 0 0 0 0 0 0 0 0 0 0 0 0 0 0 127 0" result="hardAlpha"/>
<feOffset dx="0.5" dy="0.5"/>
<feGaussianBlur stdDeviation="0.6"/>
<feComposite in2="hardAlpha" operator="arithmetic" k2="-1" k3="1"/>
<feColorMatrix type="matrix" values="0 0 0 0 0 0 0 0 0 0 0 0 0 0 0 0 0 0 0.25 0"/>
<feBlend mode="normal" in2="shape" result="effect1_innerShadow_3451_103"/>
</filter>
<clipPath id="clip0_3451_103">
<rect x="5" y="3" width="31.9291" height="31.9291" rx="5" fill="white"/>
</clipPath>
</defs>
</svg>
