<svg width="153" height="42" viewBox="0 0 153 42" fill="none" xmlns="http://www.w3.org/2000/svg">
<g filter="url(#filter0_d_3451_51)">
<g clip-path="url(#clip0_3451_51)" filter="url(#filter1_ii_3451_51)">
<rect width="31.9291" height="31.9291" transform="translate(5 3)" fill="black"/>
<path d="M13.1529 -16.9799L23.6083 4.59534C23.8625 5.11975 24.6379 5.01893 24.7494 4.44697L29.3399 -19.0846L27.6069 4.82783C27.5648 5.40904 28.2867 5.70942 28.6693 5.26988L44.4106 -12.8138L30.9536 7.02847C30.6265 7.51075 31.1015 8.13184 31.6526 7.94249L54.3267 0.152184L32.7515 10.6076C32.2271 10.8617 32.3279 11.6371 32.8999 11.7487L56.4314 16.3391L32.519 14.6062C31.9378 14.5641 31.6375 15.286 32.077 15.6686L50.1607 31.4098L30.3184 17.9528C29.8361 17.6257 29.215 18.1007 29.4044 18.6519L37.1947 41.326L26.7393 19.7508C26.4852 19.2264 25.7098 19.3272 25.5982 19.8992L21.0077 43.4307L22.7407 19.5183C22.7828 18.9371 22.0609 18.6367 21.6783 19.0762L5.93707 37.1599L19.394 17.3177C19.7211 16.8354 19.2461 16.2143 18.695 16.4036L-3.97912 24.1939L17.5961 13.7385C18.1205 13.4844 18.0197 12.709 17.4477 12.5975L-6.08381 8.00699L17.8286 9.73994C18.4098 9.78206 18.7102 9.06015 18.2706 8.67755L0.186958 -7.06367L20.0292 6.3933C20.5115 6.72038 21.1326 6.24538 20.9432 5.69427L13.1529 -16.9799Z" fill="white"/>
</g>
<g filter="url(#filter2_i_3451_51)">
<path d="M45.5357 25.9648V11.4448H50.3097L54.3577 22.3788H54.4677L58.4277 11.4448H62.9817V25.9648H59.9677L60.1657 14.6568H59.9237L55.5237 25.9648H52.8837L48.5497 14.6568H48.3077L48.5057 25.9648H45.5357ZM70.6257 26.2728C69.467 26.2728 68.4477 26.0455 67.5677 25.5908C66.6877 25.1215 65.9983 24.4395 65.4997 23.5448C65.001 22.6355 64.7517 21.5062 64.7517 20.1568C64.7517 18.8075 65.001 17.6855 65.4997 16.7908C66.013 15.8962 66.7097 15.2288 67.5897 14.7888C68.4843 14.3342 69.4963 14.1068 70.6257 14.1068C71.7843 14.1068 72.8037 14.3342 73.6837 14.7888C74.5783 15.2435 75.275 15.9255 75.7737 16.8348C76.287 17.7295 76.5437 18.8515 76.5437 20.2008C76.5437 21.5648 76.2797 22.7015 75.7517 23.6108C75.2383 24.5055 74.5343 25.1728 73.6397 25.6128C72.7597 26.0528 71.755 26.2728 70.6257 26.2728ZM70.7357 23.9188C71.3077 23.9188 71.7843 23.7868 72.1657 23.5228C72.5617 23.2588 72.855 22.8628 73.0457 22.3348C73.251 21.7922 73.3537 21.1395 73.3537 20.3768C73.3537 19.5702 73.2437 18.8882 73.0237 18.3308C72.8183 17.7588 72.5103 17.3262 72.0997 17.0328C71.689 16.7248 71.1683 16.5708 70.5377 16.5708C69.995 16.5708 69.5257 16.7028 69.1297 16.9668C68.7337 17.2162 68.433 17.6122 68.2277 18.1548C68.0223 18.6828 67.9197 19.3355 67.9197 20.1128C67.9197 21.3595 68.169 22.3055 68.6677 22.9508C69.1663 23.5962 69.8557 23.9188 70.7357 23.9188ZM83.3719 26.2728C82.2132 26.2728 81.1939 26.0455 80.3139 25.5908C79.4339 25.1215 78.7446 24.4395 78.2459 23.5448C77.7472 22.6355 77.4979 21.5062 77.4979 20.1568C77.4979 18.8075 77.7472 17.6855 78.2459 16.7908C78.7592 15.8962 79.4559 15.2288 80.3359 14.7888C81.2306 14.3342 82.2426 14.1068 83.3719 14.1068C84.5306 14.1068 85.5499 14.3342 86.4299 14.7888C87.3246 15.2435 88.0212 15.9255 88.5199 16.8348C89.0332 17.7295 89.2899 18.8515 89.2899 20.2008C89.2899 21.5648 89.0259 22.7015 88.4979 23.6108C87.9846 24.5055 87.2806 25.1728 86.3859 25.6128C85.5059 26.0528 84.5012 26.2728 83.3719 26.2728ZM83.4819 23.9188C84.0539 23.9188 84.5306 23.7868 84.9119 23.5228C85.3079 23.2588 85.6012 22.8628 85.7919 22.3348C85.9972 21.7922 86.0999 21.1395 86.0999 20.3768C86.0999 19.5702 85.9899 18.8882 85.7699 18.3308C85.5646 17.7588 85.2566 17.3262 84.8459 17.0328C84.4352 16.7248 83.9146 16.5708 83.2839 16.5708C82.7412 16.5708 82.2719 16.7028 81.8759 16.9668C81.4799 17.2162 81.1792 17.6122 80.9739 18.1548C80.7686 18.6828 80.6659 19.3355 80.6659 20.1128C80.6659 21.3595 80.9152 22.3055 81.4139 22.9508C81.9126 23.5962 82.6019 23.9188 83.4819 23.9188ZM90.8822 25.9648V18.9688V14.4148H93.4782L93.4562 17.8688H93.8962C94.0868 17.0328 94.3582 16.3362 94.7102 15.7788C95.0622 15.2215 95.5022 14.8035 96.0302 14.5248C96.5728 14.2462 97.2108 14.1068 97.9442 14.1068C99.2788 14.1068 100.291 14.5762 100.98 15.5148C101.684 16.4535 102.036 17.9275 102.036 19.9368V25.9648H98.8462V20.2888C98.8462 19.0568 98.6628 18.1622 98.2962 17.6048C97.9442 17.0328 97.4235 16.7468 96.7342 16.7468C96.1475 16.7468 95.6562 16.9302 95.2602 17.2968C94.8642 17.6635 94.5635 18.1475 94.3582 18.7488C94.1675 19.3355 94.0648 19.9955 94.0502 20.7288V25.9648H90.8822ZM104.101 25.9648V18.7048V10.2348H107.291V13.8428C107.291 14.1362 107.276 14.4442 107.247 14.7668C107.232 15.0895 107.196 15.4195 107.137 15.7568C107.093 16.0795 107.042 16.4095 106.983 16.7468C106.939 17.0842 106.888 17.4215 106.829 17.7588H107.313C107.518 17.0108 107.775 16.3655 108.083 15.8228C108.406 15.2802 108.816 14.8622 109.315 14.5688C109.814 14.2608 110.444 14.1068 111.207 14.1068C112.556 14.1068 113.568 14.5835 114.243 15.5368C114.918 16.4755 115.255 17.9202 115.255 19.8708V25.9648H112.065V20.3548C112.065 19.1228 111.882 18.2135 111.515 17.6268C111.163 17.0255 110.628 16.7248 109.909 16.7248C109.322 16.7248 108.838 16.9008 108.457 17.2528C108.076 17.6048 107.79 18.0815 107.599 18.6828C107.408 19.2695 107.298 19.9295 107.269 20.6628V25.9648H104.101ZM122.688 26.2728C121.735 26.2728 120.884 26.1408 120.136 25.8768C119.403 25.6128 118.779 25.2315 118.266 24.7328C117.753 24.2342 117.357 23.6182 117.078 22.8848C116.814 22.1515 116.682 21.3228 116.682 20.3988C116.682 19.4895 116.807 18.6535 117.056 17.8908C117.32 17.1135 117.701 16.4462 118.2 15.8888C118.699 15.3168 119.307 14.8768 120.026 14.5688C120.745 14.2608 121.559 14.1068 122.468 14.1068C123.348 14.1068 124.133 14.2535 124.822 14.5468C125.511 14.8255 126.083 15.2508 126.538 15.8228C127.007 16.3948 127.345 17.0988 127.55 17.9348C127.77 18.7562 127.851 19.7022 127.792 20.7728L118.728 20.8608V19.1228L125.966 19.0568L124.844 19.9368C124.947 19.1595 124.895 18.5215 124.69 18.0228C124.485 17.5242 124.184 17.1575 123.788 16.9228C123.407 16.6882 122.981 16.5708 122.512 16.5708C121.955 16.5708 121.463 16.7175 121.038 17.0108C120.613 17.3042 120.283 17.7368 120.048 18.3088C119.813 18.8662 119.696 19.5408 119.696 20.3328C119.696 21.5795 119.967 22.4962 120.51 23.0828C121.067 23.6695 121.793 23.9628 122.688 23.9628C123.099 23.9628 123.443 23.9115 123.722 23.8088C124.015 23.6915 124.25 23.5448 124.426 23.3688C124.617 23.1928 124.763 22.9948 124.866 22.7748C124.983 22.5548 125.079 22.3348 125.152 22.1148L127.902 22.7088C127.77 23.2515 127.572 23.7428 127.308 24.1828C127.059 24.6082 126.721 24.9822 126.296 25.3048C125.871 25.6128 125.357 25.8475 124.756 26.0088C124.169 26.1848 123.48 26.2728 122.688 26.2728ZM132.171 26.2728C131.525 26.2728 130.953 26.1482 130.455 25.8988C129.956 25.6348 129.567 25.2608 129.289 24.7768C129.01 24.2928 128.871 23.6915 128.871 22.9728C128.871 22.3422 128.988 21.8142 129.223 21.3888C129.472 20.9635 129.831 20.6188 130.301 20.3548C130.77 20.0908 131.349 19.8708 132.039 19.6948C132.728 19.5188 133.513 19.3648 134.393 19.2328C134.862 19.1595 135.243 19.0935 135.537 19.0348C135.845 18.9615 136.072 18.8515 136.219 18.7048C136.365 18.5435 136.439 18.3162 136.439 18.0228C136.439 17.6122 136.292 17.2602 135.999 16.9668C135.705 16.6735 135.243 16.5268 134.613 16.5268C134.187 16.5268 133.791 16.6002 133.425 16.7468C133.073 16.8935 132.765 17.1135 132.501 17.4068C132.251 17.7002 132.068 18.0742 131.951 18.5288L129.157 17.6708C129.333 17.0695 129.582 16.5488 129.905 16.1088C130.242 15.6688 130.645 15.3022 131.115 15.0088C131.584 14.7008 132.119 14.4735 132.721 14.3268C133.322 14.1802 133.975 14.1068 134.679 14.1068C135.808 14.1068 136.725 14.2902 137.429 14.6568C138.147 15.0088 138.683 15.5662 139.035 16.3288C139.387 17.0768 139.563 18.0448 139.563 19.2328V21.2128C139.563 21.7262 139.57 22.2468 139.585 22.7748C139.614 23.3028 139.643 23.8382 139.673 24.3808C139.717 24.9088 139.761 25.4368 139.805 25.9648H137.011C136.952 25.5982 136.893 25.1802 136.835 24.7108C136.791 24.2268 136.754 23.7428 136.725 23.2588H136.329C136.123 23.8162 135.83 24.3222 135.449 24.7768C135.067 25.2315 134.598 25.5982 134.041 25.8768C133.498 26.1408 132.875 26.2728 132.171 26.2728ZM133.513 23.9848C133.791 23.9848 134.07 23.9335 134.349 23.8308C134.642 23.7282 134.921 23.5888 135.185 23.4128C135.463 23.2222 135.713 22.9875 135.933 22.7088C136.167 22.4302 136.358 22.1148 136.505 21.7628L136.461 19.9148L136.967 20.0248C136.703 20.2155 136.395 20.3695 136.043 20.4868C135.691 20.5895 135.324 20.6702 134.943 20.7288C134.576 20.7875 134.209 20.8535 133.843 20.9268C133.476 21.0002 133.146 21.0955 132.853 21.2128C132.574 21.3302 132.347 21.4915 132.171 21.6968C132.009 21.8875 131.929 22.1588 131.929 22.5108C131.929 22.9655 132.075 23.3248 132.369 23.5888C132.662 23.8528 133.043 23.9848 133.513 23.9848ZM145.964 26.2288C144.673 26.2288 143.72 25.8915 143.104 25.2168C142.502 24.5275 142.202 23.4348 142.202 21.9388V16.9008H140.53L140.574 14.4148H141.74C142.194 14.4148 142.532 14.3488 142.752 14.2168C142.972 14.0848 143.104 13.8428 143.148 13.4908L143.434 11.8408H145.238V14.4148H148.164V16.9888H145.238V21.8068C145.238 22.3348 145.362 22.7162 145.612 22.9508C145.861 23.1855 146.242 23.3028 146.756 23.3028C147.034 23.3028 147.298 23.2735 147.548 23.2148C147.812 23.1562 148.039 23.0608 148.23 22.9288V25.8768C147.775 26.0235 147.357 26.1188 146.976 26.1628C146.594 26.2068 146.257 26.2288 145.964 26.2288Z" fill="#353535"/>
</g>
</g>
<defs>
<filter id="filter0_d_3451_51" x="0.5" y="0.5" width="153.93" height="40.9297" filterUnits="userSpaceOnUse" color-interpolation-filters="sRGB">
<feFlood flood-opacity="0" result="BackgroundImageFix"/>
<feColorMatrix in="SourceAlpha" type="matrix" values="0 0 0 0 0 0 0 0 0 0 0 0 0 0 0 0 0 0 127 0" result="hardAlpha"/>
<feOffset dy="2"/>
<feGaussianBlur stdDeviation="2.25"/>
<feComposite in2="hardAlpha" operator="out"/>
<feColorMatrix type="matrix" values="0 0 0 0 0 0 0 0 0 0 0 0 0 0 0 0 0 0 0.07 0"/>
<feBlend mode="normal" in2="BackgroundImageFix" result="effect1_dropShadow_3451_51"/>
<feBlend mode="normal" in="SourceGraphic" in2="effect1_dropShadow_3451_51" result="shape"/>
</filter>
<filter id="filter1_ii_3451_51" x="4" y="3" width="32.9297" height="34.9297" filterUnits="userSpaceOnUse" color-interpolation-filters="sRGB">
<feFlood flood-opacity="0" result="BackgroundImageFix"/>
<feBlend mode="normal" in="SourceGraphic" in2="BackgroundImageFix" result="shape"/>
<feColorMatrix in="SourceAlpha" type="matrix" values="0 0 0 0 0 0 0 0 0 0 0 0 0 0 0 0 0 0 127 0" result="hardAlpha"/>
<feOffset dy="2"/>
<feGaussianBlur stdDeviation="0.65"/>
<feComposite in2="hardAlpha" operator="arithmetic" k2="-1" k3="1"/>
<feColorMatrix type="matrix" values="0 0 0 0 1 0 0 0 0 1 0 0 0 0 1 0 0 0 0.25 0"/>
<feBlend mode="normal" in2="shape" result="effect1_innerShadow_3451_51"/>
<feColorMatrix in="SourceAlpha" type="matrix" values="0 0 0 0 0 0 0 0 0 0 0 0 0 0 0 0 0 0 127 0" result="hardAlpha"/>
<feOffset dx="-1" dy="3"/>
<feGaussianBlur stdDeviation="1.75"/>
<feComposite in2="hardAlpha" operator="arithmetic" k2="-1" k3="1"/>
<feColorMatrix type="matrix" values="0 0 0 0 1 0 0 0 0 1 0 0 0 0 1 0 0 0 0.22 0"/>
<feBlend mode="normal" in2="effect1_innerShadow_3451_51" result="effect2_innerShadow_3451_51"/>
</filter>
<filter id="filter2_i_3451_51" x="45.5352" y="10.2344" width="103.195" height="16.5391" filterUnits="userSpaceOnUse" color-interpolation-filters="sRGB">
<feFlood flood-opacity="0" result="BackgroundImageFix"/>
<feBlend mode="normal" in="SourceGraphic" in2="BackgroundImageFix" result="shape"/>
<feColorMatrix in="SourceAlpha" type="matrix" values="0 0 0 0 0 0 0 0 0 0 0 0 0 0 0 0 0 0 127 0" result="hardAlpha"/>
<feOffset dx="0.5" dy="0.5"/>
<feGaussianBlur stdDeviation="0.6"/>
<feComposite in2="hardAlpha" operator="arithmetic" k2="-1" k3="1"/>
<feColorMatrix type="matrix" values="0 0 0 0 0 0 0 0 0 0 0 0 0 0 0 0 0 0 0.25 0"/>
<feBlend mode="normal" in2="shape" result="effect1_innerShadow_3451_51"/>
</filter>
<clipPath id="clip0_3451_51">
<rect width="31.9291" height="31.9291" fill="white" transform="translate(5 3)"/>
</clipPath>
</defs>
</svg>
