<svg width="150" height="42" viewBox="0 0 150 42" fill="none" xmlns="http://www.w3.org/2000/svg">
<g filter="url(#filter0_d_3451_59)">
<g filter="url(#filter1_ii_3451_59)">
<g clip-path="url(#clip0_3451_59)">
<rect x="5" y="3" width="31.9291" height="31.9291" rx="7.27917" fill="black"/>
<path d="M31.9959 11.1577C32.0829 9.50311 30.8122 8.09123 29.1577 8.00415L2.195 6.58506C0.540431 6.49798 -0.871453 7.76867 -0.958535 9.42323C-1.04562 11.0778 0.225078 12.4897 1.87964 12.5768L25.8465 13.8382L24.5851 37.805C24.498 39.4596 25.7687 40.8715 27.4232 40.9585C29.0778 41.0456 30.4897 39.7749 30.5768 38.1204L31.9959 11.1577ZM-11 47L-8.99311 49.2299L31.0069 13.2299L29 11L26.9931 8.77012L-13.0069 44.7701L-11 47Z" fill="white"/>
</g>
</g>
<g filter="url(#filter2_i_3451_59)">
<path d="M44.4137 26.1188L44.2157 23.2148C44.377 23.2442 44.5384 23.2662 44.6997 23.2808C44.861 23.2808 44.993 23.2808 45.0957 23.2808C45.7117 23.2808 46.181 23.1928 46.5037 23.0168C46.841 22.8408 47.0757 22.5622 47.2077 22.1808C47.3397 21.7995 47.4057 21.3008 47.4057 20.6848V11.4448H50.5737V20.7068C50.5737 21.8948 50.3977 22.8995 50.0457 23.7208C49.7084 24.5275 49.173 25.1435 48.4397 25.5688C47.721 25.9942 46.775 26.2068 45.6017 26.2068C45.4697 26.2068 45.3084 26.1995 45.1177 26.1848C44.9417 26.1702 44.707 26.1482 44.4137 26.1188ZM56.8447 26.2728C55.4954 26.2728 54.4761 25.8182 53.7867 24.9088C53.1121 23.9848 52.7747 22.5842 52.7747 20.7068V14.4148H55.9427V20.3108C55.9427 21.4402 56.1114 22.2835 56.4487 22.8408C56.7861 23.3835 57.2994 23.6548 57.9887 23.6548C58.3994 23.6548 58.7587 23.5522 59.0667 23.3468C59.3747 23.1415 59.6387 22.8555 59.8587 22.4888C60.0787 22.1222 60.2401 21.6895 60.3427 21.1908C60.4601 20.6922 60.5261 20.1568 60.5407 19.5848V14.4148H63.7087V21.2568V25.9648H61.1567L61.1347 22.3568H60.7387C60.5187 23.2662 60.2401 24.0142 59.9027 24.6008C59.5801 25.1728 59.1621 25.5982 58.6487 25.8768C58.1501 26.1408 57.5487 26.2728 56.8447 26.2728ZM70.5743 26.2728C69.7969 26.2728 69.0929 26.1995 68.4623 26.0528C67.8316 25.9062 67.2889 25.6935 66.8343 25.4148C66.3796 25.1362 66.0129 24.8062 65.7343 24.4248C65.4556 24.0288 65.2723 23.5888 65.1843 23.1048L67.6043 22.1148C67.6629 22.4375 67.8243 22.7382 68.0883 23.0168C68.3523 23.2955 68.7043 23.5228 69.1443 23.6988C69.5989 23.8602 70.1416 23.9408 70.7723 23.9408C71.4469 23.9408 71.9676 23.8455 72.3343 23.6548C72.7009 23.4495 72.8843 23.1635 72.8843 22.7968C72.8843 22.5182 72.7816 22.2982 72.5763 22.1368C72.3709 21.9755 72.0703 21.8362 71.6743 21.7188C71.2783 21.6015 70.8016 21.4915 70.2443 21.3888C69.7016 21.2568 69.1443 21.1175 68.5723 20.9708C68.0149 20.8242 67.4943 20.6188 67.0103 20.3548C66.5409 20.0908 66.1523 19.7462 65.8443 19.3208C65.5509 18.8808 65.4043 18.3235 65.4043 17.6488C65.4043 16.9448 65.5949 16.3288 65.9763 15.8008C66.3576 15.2728 66.9149 14.8622 67.6483 14.5688C68.3816 14.2608 69.2763 14.1068 70.3323 14.1068C71.2856 14.1068 72.1216 14.2388 72.8403 14.5028C73.5589 14.7522 74.1456 15.1188 74.6003 15.6028C75.0696 16.0722 75.3849 16.6368 75.5463 17.2968L72.9723 18.1548C72.9136 17.8028 72.7669 17.4948 72.5323 17.2308C72.3123 16.9668 72.0116 16.7688 71.6303 16.6368C71.2636 16.5048 70.8309 16.4388 70.3323 16.4388C69.7016 16.4388 69.2103 16.5415 68.8583 16.7468C68.5209 16.9522 68.3523 17.2235 68.3523 17.5608C68.3523 17.8395 68.4623 18.0668 68.6823 18.2428C68.9169 18.4188 69.2396 18.5655 69.6503 18.6828C70.0609 18.7855 70.5449 18.8955 71.1023 19.0128C71.6889 19.1302 72.2609 19.2695 72.8183 19.4308C73.3756 19.5775 73.8743 19.7755 74.3143 20.0248C74.7689 20.2742 75.1283 20.6042 75.3923 21.0148C75.6563 21.4255 75.7883 21.9535 75.7883 22.5988C75.7883 23.3615 75.5829 24.0215 75.1723 24.5788C74.7616 25.1215 74.1676 25.5395 73.3903 25.8328C72.6129 26.1262 71.6743 26.2728 70.5743 26.2728ZM81.5511 26.2288C80.2604 26.2288 79.3071 25.8915 78.6911 25.2168C78.0897 24.5275 77.7891 23.4348 77.7891 21.9388V16.9008H76.1171L76.1611 14.4148H77.3271C77.7817 14.4148 78.1191 14.3488 78.3391 14.2168C78.5591 14.0848 78.6911 13.8428 78.7351 13.4908L79.0211 11.8408H80.8251V14.4148H83.7511V16.9888H80.8251V21.8068C80.8251 22.3348 80.9497 22.7162 81.1991 22.9508C81.4484 23.1855 81.8297 23.3028 82.3431 23.3028C82.6217 23.3028 82.8857 23.2735 83.1351 23.2148C83.3991 23.1562 83.6264 23.0608 83.8171 22.9288V25.8768C83.3624 26.0235 82.9444 26.1188 82.5631 26.1628C82.1817 26.2068 81.8444 26.2288 81.5511 26.2288ZM88.0512 26.2728C87.4059 26.2728 86.8339 26.1482 86.3352 25.8988C85.8365 25.6348 85.4479 25.2608 85.1692 24.7768C84.8905 24.2928 84.7512 23.6915 84.7512 22.9728C84.7512 22.3422 84.8685 21.8142 85.1032 21.3888C85.3525 20.9635 85.7119 20.6188 86.1812 20.3548C86.6505 20.0908 87.2299 19.8708 87.9192 19.6948C88.6085 19.5188 89.3932 19.3648 90.2732 19.2328C90.7425 19.1595 91.1239 19.0935 91.4172 19.0348C91.7252 18.9615 91.9525 18.8515 92.0992 18.7048C92.2459 18.5435 92.3192 18.3162 92.3192 18.0228C92.3192 17.6122 92.1725 17.2602 91.8792 16.9668C91.5859 16.6735 91.1239 16.5268 90.4932 16.5268C90.0679 16.5268 89.6719 16.6002 89.3052 16.7468C88.9532 16.8935 88.6452 17.1135 88.3812 17.4068C88.1319 17.7002 87.9485 18.0742 87.8312 18.5288L85.0372 17.6708C85.2132 17.0695 85.4625 16.5488 85.7852 16.1088C86.1225 15.6688 86.5259 15.3022 86.9952 15.0088C87.4645 14.7008 87.9999 14.4735 88.6012 14.3268C89.2025 14.1802 89.8552 14.1068 90.5592 14.1068C91.6885 14.1068 92.6052 14.2902 93.3092 14.6568C94.0279 15.0088 94.5632 15.5662 94.9152 16.3288C95.2672 17.0768 95.4432 18.0448 95.4432 19.2328V21.2128C95.4432 21.7262 95.4505 22.2468 95.4652 22.7748C95.4945 23.3028 95.5239 23.8382 95.5532 24.3808C95.5972 24.9088 95.6412 25.4368 95.6852 25.9648H92.8912C92.8325 25.5982 92.7739 25.1802 92.7152 24.7108C92.6712 24.2268 92.6345 23.7428 92.6052 23.2588H92.2092C92.0039 23.8162 91.7105 24.3222 91.3292 24.7768C90.9479 25.2315 90.4785 25.5982 89.9212 25.8768C89.3785 26.1408 88.7552 26.2728 88.0512 26.2728ZM89.3932 23.9848C89.6719 23.9848 89.9505 23.9335 90.2292 23.8308C90.5225 23.7282 90.8012 23.5888 91.0652 23.4128C91.3439 23.2222 91.5932 22.9875 91.8132 22.7088C92.0479 22.4302 92.2385 22.1148 92.3852 21.7628L92.3412 19.9148L92.8472 20.0248C92.5832 20.2155 92.2752 20.3695 91.9232 20.4868C91.5712 20.5895 91.2045 20.6702 90.8232 20.7288C90.4565 20.7875 90.0899 20.8535 89.7232 20.9268C89.3565 21.0002 89.0265 21.0955 88.7332 21.2128C88.4545 21.3302 88.2272 21.4915 88.0512 21.6968C87.8899 21.8875 87.8092 22.1588 87.8092 22.5108C87.8092 22.9655 87.9559 23.3248 88.2492 23.5888C88.5425 23.8528 88.9239 23.9848 89.3932 23.9848ZM97.5543 25.9648V20.3768V14.4148H100.172L100.194 18.3528H100.612C100.73 17.3702 100.928 16.5708 101.206 15.9548C101.5 15.3388 101.903 14.8842 102.416 14.5908C102.93 14.2975 103.568 14.1508 104.33 14.1508C104.462 14.1508 104.602 14.1582 104.748 14.1728C104.91 14.1728 105.093 14.1948 105.298 14.2388L105.166 17.6048C104.946 17.5022 104.704 17.4288 104.44 17.3848C104.176 17.3408 103.942 17.3188 103.736 17.3188C103.164 17.3188 102.673 17.4508 102.262 17.7148C101.852 17.9788 101.514 18.3602 101.25 18.8588C101.001 19.3428 100.832 19.9368 100.744 20.6408V25.9648H97.5543ZM106.433 25.9648V20.3768V14.4148H109.051L109.073 18.3528H109.491C109.609 17.3702 109.807 16.5708 110.085 15.9548C110.379 15.3388 110.782 14.8842 111.295 14.5908C111.809 14.2975 112.447 14.1508 113.209 14.1508C113.341 14.1508 113.481 14.1582 113.627 14.1728C113.789 14.1728 113.972 14.1948 114.177 14.2388L114.045 17.6048C113.825 17.5022 113.583 17.4288 113.319 17.3848C113.055 17.3408 112.821 17.3188 112.615 17.3188C112.043 17.3188 111.552 17.4508 111.141 17.7148C110.731 17.9788 110.393 18.3602 110.129 18.8588C109.88 19.3428 109.711 19.9368 109.623 20.6408V25.9648H106.433ZM120.505 26.2728C119.347 26.2728 118.327 26.0455 117.447 25.5908C116.567 25.1215 115.878 24.4395 115.379 23.5448C114.881 22.6355 114.631 21.5062 114.631 20.1568C114.631 18.8075 114.881 17.6855 115.379 16.7908C115.893 15.8962 116.589 15.2288 117.469 14.7888C118.364 14.3342 119.376 14.1068 120.505 14.1068C121.664 14.1068 122.683 14.3342 123.563 14.7888C124.458 15.2435 125.155 15.9255 125.653 16.8348C126.167 17.7295 126.423 18.8515 126.423 20.2008C126.423 21.5648 126.159 22.7015 125.631 23.6108C125.118 24.5055 124.414 25.1728 123.519 25.6128C122.639 26.0528 121.635 26.2728 120.505 26.2728ZM120.615 23.9188C121.187 23.9188 121.664 23.7868 122.045 23.5228C122.441 23.2588 122.735 22.8628 122.925 22.3348C123.131 21.7922 123.233 21.1395 123.233 20.3768C123.233 19.5702 123.123 18.8882 122.903 18.3308C122.698 17.7588 122.39 17.3262 121.979 17.0328C121.569 16.7248 121.048 16.5708 120.417 16.5708C119.875 16.5708 119.405 16.7028 119.009 16.9668C118.613 17.2162 118.313 17.6122 118.107 18.1548C117.902 18.6828 117.799 19.3355 117.799 20.1128C117.799 21.3595 118.049 22.3055 118.547 22.9508C119.046 23.5962 119.735 23.9188 120.615 23.9188ZM129.689 25.9648L126.829 14.4148H130.129L131.757 23.4568H132.175L134.111 14.4148H137.917L139.919 23.4568H140.337L141.921 14.4148H145.155L142.273 25.9648H137.917L136.113 16.9888H135.739L134.023 25.9648H129.689Z" fill="#353535"/>
</g>
</g>
<defs>
<filter id="filter0_d_3451_59" x="0.5" y="0.5" width="149.93" height="40.9297" filterUnits="userSpaceOnUse" color-interpolation-filters="sRGB">
<feFlood flood-opacity="0" result="BackgroundImageFix"/>
<feColorMatrix in="SourceAlpha" type="matrix" values="0 0 0 0 0 0 0 0 0 0 0 0 0 0 0 0 0 0 127 0" result="hardAlpha"/>
<feOffset dy="2"/>
<feGaussianBlur stdDeviation="2.25"/>
<feComposite in2="hardAlpha" operator="out"/>
<feColorMatrix type="matrix" values="0 0 0 0 0 0 0 0 0 0 0 0 0 0 0 0 0 0 0.07 0"/>
<feBlend mode="normal" in2="BackgroundImageFix" result="effect1_dropShadow_3451_59"/>
<feBlend mode="normal" in="SourceGraphic" in2="effect1_dropShadow_3451_59" result="shape"/>
</filter>
<filter id="filter1_ii_3451_59" x="4" y="3" width="32.9297" height="34.9297" filterUnits="userSpaceOnUse" color-interpolation-filters="sRGB">
<feFlood flood-opacity="0" result="BackgroundImageFix"/>
<feBlend mode="normal" in="SourceGraphic" in2="BackgroundImageFix" result="shape"/>
<feColorMatrix in="SourceAlpha" type="matrix" values="0 0 0 0 0 0 0 0 0 0 0 0 0 0 0 0 0 0 127 0" result="hardAlpha"/>
<feOffset dy="2"/>
<feGaussianBlur stdDeviation="0.65"/>
<feComposite in2="hardAlpha" operator="arithmetic" k2="-1" k3="1"/>
<feColorMatrix type="matrix" values="0 0 0 0 1 0 0 0 0 1 0 0 0 0 1 0 0 0 0.25 0"/>
<feBlend mode="normal" in2="shape" result="effect1_innerShadow_3451_59"/>
<feColorMatrix in="SourceAlpha" type="matrix" values="0 0 0 0 0 0 0 0 0 0 0 0 0 0 0 0 0 0 127 0" result="hardAlpha"/>
<feOffset dx="-1" dy="3"/>
<feGaussianBlur stdDeviation="1.75"/>
<feComposite in2="hardAlpha" operator="arithmetic" k2="-1" k3="1"/>
<feColorMatrix type="matrix" values="0 0 0 0 1 0 0 0 0 1 0 0 0 0 1 0 0 0 0.22 0"/>
<feBlend mode="normal" in2="effect1_innerShadow_3451_59" result="effect2_innerShadow_3451_59"/>
</filter>
<filter id="filter2_i_3451_59" x="44.2148" y="11.4453" width="101.441" height="15.3281" filterUnits="userSpaceOnUse" color-interpolation-filters="sRGB">
<feFlood flood-opacity="0" result="BackgroundImageFix"/>
<feBlend mode="normal" in="SourceGraphic" in2="BackgroundImageFix" result="shape"/>
<feColorMatrix in="SourceAlpha" type="matrix" values="0 0 0 0 0 0 0 0 0 0 0 0 0 0 0 0 0 0 127 0" result="hardAlpha"/>
<feOffset dx="0.5" dy="0.5"/>
<feGaussianBlur stdDeviation="0.6"/>
<feComposite in2="hardAlpha" operator="arithmetic" k2="-1" k3="1"/>
<feColorMatrix type="matrix" values="0 0 0 0 0 0 0 0 0 0 0 0 0 0 0 0 0 0 0.25 0"/>
<feBlend mode="normal" in2="shape" result="effect1_innerShadow_3451_59"/>
</filter>
<clipPath id="clip0_3451_59">
<rect x="5" y="3" width="31.9291" height="31.9291" rx="7.27917" fill="white"/>
</clipPath>
</defs>
</svg>
