<svg width="160" height="42" viewBox="0 0 160 42" fill="none" xmlns="http://www.w3.org/2000/svg">
<g filter="url(#filter0_d_3451_24)">
<g filter="url(#filter1_ii_3451_24)">
<g clip-path="url(#clip0_3451_24)">
<rect x="5" y="3" width="31.9291" height="31.9291" rx="7.27917" fill="white"/>
<path d="M40 15.5625C38.8078 13.9637 37.356 12.3881 35.6416 10.8389C33.8982 9.2554 31.8573 7.78914 29.5195 6.43945C27.6247 5.34549 25.701 4.47172 23.748 3.81934C21.7952 3.16697 19.9165 2.81236 18.1123 2.75488C16.3228 2.67195 14.7135 2.93106 13.2842 3.53125C11.8795 4.14565 10.7585 5.17807 9.9209 6.62891C9.20082 7.87612 8.85587 9.06871 8.8877 10.207C8.93421 11.3198 9.23655 12.3596 9.79395 13.3262C10.3907 14.2815 11.1398 15.1723 12.041 15.998C12.957 16.7984 13.91 17.535 14.8994 18.208C15.9282 18.8698 16.8731 19.45 17.7344 19.9473C18.0543 20.132 18.411 20.3381 18.8047 20.5654C19.1984 20.7927 19.5801 21.0125 19.9492 21.2256C20.2198 21.3818 20.4217 21.5153 20.5547 21.626C20.7123 21.7509 20.813 21.8606 20.8574 21.9541C20.9018 22.0476 20.8879 22.1579 20.8145 22.2852C20.6381 22.5906 20.306 22.738 19.8193 22.7285C19.372 22.7077 18.8115 22.5707 18.1377 22.3174C17.4784 22.0386 16.7668 21.6797 16.0039 21.2393C14.8228 20.5573 13.6147 19.7233 12.3789 18.7383C11.1823 17.742 10.1304 16.6932 9.22363 15.5928C8.35637 14.4813 7.81318 13.4046 7.59473 12.3623L2.21582 21.6777C3.28113 23.4127 4.77195 25.1218 6.6875 26.8047C8.62774 28.5018 10.7178 29.9972 12.957 31.29C14.8518 32.384 16.7611 33.283 18.6846 33.9863C20.6327 34.7038 22.4995 35.1361 24.2842 35.2842C26.1082 35.421 27.7348 35.189 29.1641 34.5889C30.6327 33.9774 31.8155 32.8954 32.7119 31.3428C33.5641 29.8666 33.9397 28.5057 33.8389 27.2598C33.7527 25.9883 33.3325 24.8118 32.5781 23.7314C31.8484 22.6654 30.9001 21.6936 29.7334 20.8164C28.6059 19.9279 27.4267 19.1283 26.1963 18.418C25.655 18.1055 25.1626 17.8211 24.7197 17.5654C24.277 17.3098 23.7727 17.019 23.207 16.6924C22.8627 16.4936 22.5866 16.3173 22.3799 16.1641C22.1732 16.0108 22.0302 15.8602 21.9512 15.7129C21.8969 15.5798 21.9139 15.4368 22.002 15.2842C22.1636 15.0043 22.4678 14.8739 22.915 14.8945C23.387 14.9295 23.9406 15.0792 24.5752 15.3438C25.2491 15.5971 25.9553 15.9372 26.6934 16.3633C27.8007 17.0026 28.9116 17.7794 30.0244 18.6934C31.1617 19.6215 32.1737 20.5962 33.0605 21.6172C33.9721 22.6525 34.6186 23.637 34.999 24.5693L40 15.9053V36H2V1H40V15.5625ZM40.1123 15.7109L40 15.9053V15.5625C40.0372 15.6123 40.0756 15.661 40.1123 15.7109Z" fill="black"/>
</g>
</g>
<g filter="url(#filter2_i_3451_24)">
<path d="M51.1457 26.2728C50.1924 26.2728 49.3344 26.1775 48.5717 25.9868C47.8237 25.8108 47.1784 25.5395 46.6357 25.1728C46.1077 24.7915 45.6897 24.3222 45.3817 23.7648C45.0884 23.1928 44.9197 22.5402 44.8757 21.8068L47.6477 20.9048C47.677 21.5648 47.8384 22.1148 48.1317 22.5548C48.4397 22.9948 48.8724 23.3175 49.4297 23.5228C49.987 23.7282 50.6104 23.8308 51.2997 23.8308C51.9597 23.8308 52.517 23.7502 52.9717 23.5888C53.4264 23.4275 53.771 23.2148 54.0057 22.9508C54.2404 22.6722 54.3577 22.3715 54.3577 22.0488C54.3577 21.6675 54.211 21.3595 53.9177 21.1248C53.6244 20.8902 53.221 20.6922 52.7077 20.5308C52.209 20.3695 51.637 20.2155 50.9917 20.0688C50.273 19.9075 49.5617 19.7242 48.8577 19.5188C48.1684 19.3135 47.5377 19.0495 46.9657 18.7268C46.4084 18.4042 45.961 17.9862 45.6237 17.4728C45.301 16.9595 45.1397 16.3142 45.1397 15.5368C45.1397 14.6422 45.3597 13.8722 45.7997 13.2268C46.2544 12.5668 46.9144 12.0535 47.7797 11.6868C48.645 11.3202 49.6864 11.1368 50.9037 11.1368C52.1357 11.1368 53.1844 11.3202 54.0497 11.6868C54.9297 12.0388 55.6117 12.5448 56.0957 13.2048C56.5797 13.8502 56.8437 14.6202 56.8877 15.5148L54.0277 16.3068C54.0277 15.8522 53.9544 15.4562 53.8077 15.1188C53.661 14.7815 53.4557 14.5028 53.1917 14.2828C52.9277 14.0482 52.5977 13.8722 52.2017 13.7548C51.8204 13.6375 51.3804 13.5788 50.8817 13.5788C50.3097 13.5788 49.811 13.6522 49.3857 13.7988C48.975 13.9455 48.6597 14.1435 48.4397 14.3928C48.2344 14.6422 48.1317 14.9355 48.1317 15.2728C48.1317 15.6688 48.293 15.9988 48.6157 16.2628C48.953 16.5122 49.393 16.7175 49.9357 16.8788C50.493 17.0402 51.1017 17.1942 51.7617 17.3408C52.3924 17.4728 53.0304 17.6415 53.6757 17.8468C54.3357 18.0375 54.9444 18.2942 55.5017 18.6168C56.0737 18.9248 56.5284 19.3502 56.8657 19.8928C57.2177 20.4208 57.3937 21.0882 57.3937 21.8948C57.3937 22.7748 57.159 23.5448 56.6897 24.2048C56.2204 24.8648 55.5164 25.3782 54.5777 25.7448C53.6537 26.0968 52.5097 26.2728 51.1457 26.2728ZM64.3093 26.2728C63.1506 26.2728 62.1313 26.0455 61.2513 25.5908C60.3713 25.1215 59.6819 24.4395 59.1833 23.5448C58.6846 22.6355 58.4353 21.5062 58.4353 20.1568C58.4353 18.8075 58.6846 17.6855 59.1833 16.7908C59.6966 15.8962 60.3933 15.2288 61.2733 14.7888C62.1679 14.3342 63.1799 14.1068 64.3093 14.1068C65.4679 14.1068 66.4873 14.3342 67.3673 14.7888C68.2619 15.2435 68.9586 15.9255 69.4573 16.8348C69.9706 17.7295 70.2273 18.8515 70.2273 20.2008C70.2273 21.5648 69.9633 22.7015 69.4353 23.6108C68.9219 24.5055 68.2179 25.1728 67.3233 25.6128C66.4433 26.0528 65.4386 26.2728 64.3093 26.2728ZM64.4193 23.9188C64.9913 23.9188 65.4679 23.7868 65.8493 23.5228C66.2453 23.2588 66.5386 22.8628 66.7293 22.3348C66.9346 21.7922 67.0373 21.1395 67.0373 20.3768C67.0373 19.5702 66.9273 18.8882 66.7073 18.3308C66.5019 17.7588 66.1939 17.3262 65.7833 17.0328C65.3726 16.7248 64.8519 16.5708 64.2213 16.5708C63.6786 16.5708 63.2093 16.7028 62.8133 16.9668C62.4173 17.2162 62.1166 17.6122 61.9113 18.1548C61.7059 18.6828 61.6033 19.3355 61.6033 20.1128C61.6033 21.3595 61.8526 22.3055 62.3513 22.9508C62.8499 23.5962 63.5393 23.9188 64.4193 23.9188ZM71.8195 25.9648V18.5728V14.4148H74.3495V17.8688H74.7675C74.9728 17.0182 75.2442 16.3215 75.5815 15.7788C75.9188 15.2215 76.3222 14.8035 76.7915 14.5248C77.2755 14.2462 77.8402 14.1068 78.4855 14.1068C79.1748 14.1068 79.7468 14.2608 80.2015 14.5688C80.6562 14.8768 81.0082 15.3095 81.2575 15.8668C81.5068 16.4095 81.6682 17.0768 81.7415 17.8688H82.0935C82.3135 17.0035 82.6068 16.2922 82.9735 15.7348C83.3548 15.1775 83.8022 14.7668 84.3155 14.5028C84.8435 14.2388 85.4228 14.1068 86.0535 14.1068C86.6842 14.1068 87.2342 14.2315 87.7035 14.4808C88.1875 14.7302 88.5908 15.1042 88.9135 15.6028C89.2362 16.0868 89.4782 16.7028 89.6395 17.4508C89.8008 18.1842 89.8815 19.0348 89.8815 20.0028V25.9648H86.7135V20.3988C86.7135 19.6068 86.6475 18.9468 86.5155 18.4188C86.3835 17.8762 86.1782 17.4728 85.8995 17.2088C85.6208 16.9448 85.2615 16.8128 84.8215 16.8128C84.3375 16.8128 83.9195 16.9815 83.5675 17.3188C83.2155 17.6415 82.9368 18.0888 82.7315 18.6608C82.5262 19.2328 82.4162 19.8855 82.4015 20.6188V25.9648H79.2995V20.4868C79.2995 19.6655 79.2262 18.9908 79.0795 18.4628C78.9328 17.9202 78.7202 17.5095 78.4415 17.2308C78.1628 16.9522 77.8108 16.8128 77.3855 16.8128C76.8868 16.8128 76.4615 16.9815 76.1095 17.3188C75.7575 17.6415 75.4862 18.0962 75.2955 18.6828C75.1048 19.2695 75.0022 19.9222 74.9875 20.6408V25.9648H71.8195ZM97.3459 26.2728C96.3925 26.2728 95.5419 26.1408 94.7939 25.8768C94.0605 25.6128 93.4372 25.2315 92.9239 24.7328C92.4105 24.2342 92.0145 23.6182 91.7359 22.8848C91.4719 22.1515 91.3399 21.3228 91.3399 20.3988C91.3399 19.4895 91.4645 18.6535 91.7139 17.8908C91.9779 17.1135 92.3592 16.4462 92.8579 15.8888C93.3565 15.3168 93.9652 14.8768 94.6839 14.5688C95.4025 14.2608 96.2165 14.1068 97.1259 14.1068C98.0059 14.1068 98.7905 14.2535 99.4799 14.5468C100.169 14.8255 100.741 15.2508 101.196 15.8228C101.665 16.3948 102.003 17.0988 102.208 17.9348C102.428 18.7562 102.509 19.7022 102.45 20.7728L93.3859 20.8608V19.1228L100.624 19.0568L99.5019 19.9368C99.6045 19.1595 99.5532 18.5215 99.3479 18.0228C99.1425 17.5242 98.8419 17.1575 98.4459 16.9228C98.0645 16.6882 97.6392 16.5708 97.1699 16.5708C96.6125 16.5708 96.1212 16.7175 95.6959 17.0108C95.2705 17.3042 94.9405 17.7368 94.7059 18.3088C94.4712 18.8662 94.3539 19.5408 94.3539 20.3328C94.3539 21.5795 94.6252 22.4962 95.1679 23.0828C95.7252 23.6695 96.4512 23.9628 97.3459 23.9628C97.7565 23.9628 98.1012 23.9115 98.3799 23.8088C98.6732 23.6915 98.9079 23.5448 99.0839 23.3688C99.2745 23.1928 99.4212 22.9948 99.5239 22.7748C99.6412 22.5548 99.7365 22.3348 99.8099 22.1148L102.56 22.7088C102.428 23.2515 102.23 23.7428 101.966 24.1828C101.717 24.6082 101.379 24.9822 100.954 25.3048C100.529 25.6128 100.015 25.8475 99.4139 26.0088C98.8272 26.1848 98.1379 26.2728 97.3459 26.2728ZM108.391 26.2288C107.1 26.2288 106.147 25.8915 105.531 25.2168C104.93 24.5275 104.629 23.4348 104.629 21.9388V16.9008H102.957L103.001 14.4148H104.167C104.622 14.4148 104.959 14.3488 105.179 14.2168C105.399 14.0848 105.531 13.8428 105.575 13.4908L105.861 11.8408H107.665V14.4148H110.591V16.9888H107.665V21.8068C107.665 22.3348 107.79 22.7162 108.039 22.9508C108.288 23.1855 108.67 23.3028 109.183 23.3028C109.462 23.3028 109.726 23.2735 109.975 23.2148C110.239 23.1562 110.466 23.0608 110.657 22.9288V25.8768C110.202 26.0235 109.784 26.1188 109.403 26.1628C109.022 26.2068 108.684 26.2288 108.391 26.2288ZM112.185 25.9648V18.7048V10.2348H115.375V13.8428C115.375 14.1362 115.361 14.4442 115.331 14.7668C115.317 15.0895 115.28 15.4195 115.221 15.7568C115.177 16.0795 115.126 16.4095 115.067 16.7468C115.023 17.0842 114.972 17.4215 114.913 17.7588H115.397C115.603 17.0108 115.859 16.3655 116.167 15.8228C116.49 15.2802 116.901 14.8622 117.399 14.5688C117.898 14.2608 118.529 14.1068 119.291 14.1068C120.641 14.1068 121.653 14.5835 122.327 15.5368C123.002 16.4755 123.339 17.9202 123.339 19.8708V25.9648H120.149V20.3548C120.149 19.1228 119.966 18.2135 119.599 17.6268C119.247 17.0255 118.712 16.7248 117.993 16.7248C117.407 16.7248 116.923 16.9008 116.541 17.2528C116.16 17.6048 115.874 18.0815 115.683 18.6828C115.493 19.2695 115.383 19.9295 115.353 20.6628V25.9648H112.185ZM125.404 25.9648V14.4148H128.572V25.9648H125.404ZM127.01 12.6768C126.394 12.6768 125.917 12.5522 125.58 12.3028C125.257 12.0388 125.096 11.6575 125.096 11.1588C125.096 10.6455 125.257 10.2568 125.58 9.99284C125.917 9.72884 126.394 9.59684 127.01 9.59684C127.641 9.59684 128.117 9.72884 128.44 9.99284C128.777 10.2568 128.946 10.6455 128.946 11.1588C128.946 11.6428 128.777 12.0168 128.44 12.2808C128.117 12.5448 127.641 12.6768 127.01 12.6768ZM130.846 25.9648V18.9688V14.4148H133.442L133.42 17.8688H133.86C134.05 17.0328 134.322 16.3362 134.674 15.7788C135.026 15.2215 135.466 14.8035 135.994 14.5248C136.536 14.2462 137.174 14.1068 137.908 14.1068C139.242 14.1068 140.254 14.5762 140.944 15.5148C141.648 16.4535 142 17.9275 142 19.9368V25.9648H138.81V20.2888C138.81 19.0568 138.626 18.1622 138.26 17.6048C137.908 17.0328 137.387 16.7468 136.698 16.7468C136.111 16.7468 135.62 16.9302 135.224 17.2968C134.828 17.6635 134.527 18.1475 134.322 18.7488C134.131 19.3355 134.028 19.9955 134.014 20.7288V25.9648H130.846ZM148.641 29.9908C147.379 29.9908 146.338 29.8882 145.517 29.6828C144.71 29.4922 144.116 29.2062 143.735 28.8248C143.353 28.4435 143.163 27.9668 143.163 27.3948C143.163 26.7202 143.427 26.1702 143.955 25.7448C144.497 25.3195 145.289 25.0628 146.331 24.9748V24.5348C145.539 24.5348 144.93 24.4542 144.505 24.2928C144.079 24.1168 143.867 23.8162 143.867 23.3908C143.867 22.9802 144.072 22.6135 144.483 22.2908C144.908 21.9682 145.605 21.7115 146.573 21.5208V21.0808C145.663 21.0222 144.952 20.7288 144.439 20.2008C143.925 19.6728 143.669 18.9908 143.669 18.1548C143.669 17.4215 143.874 16.7688 144.285 16.1968C144.695 15.6102 145.304 15.1482 146.111 14.8108C146.932 14.4588 147.937 14.2828 149.125 14.2828H154.977V16.7028L151.347 16.1968V16.7028C152.285 16.8348 152.96 17.0695 153.371 17.4068C153.796 17.7442 154.009 18.2135 154.009 18.8148C154.009 19.4162 153.811 19.9442 153.415 20.3988C153.019 20.8535 152.454 21.2128 151.721 21.4768C151.002 21.7262 150.137 21.8508 149.125 21.8508C148.934 21.8508 148.729 21.8435 148.509 21.8288C148.289 21.8142 147.922 21.7775 147.409 21.7188C147.13 21.9242 146.91 22.1075 146.749 22.2688C146.602 22.4155 146.529 22.5548 146.529 22.6868C146.529 22.7895 146.58 22.8775 146.683 22.9508C146.8 23.0242 146.947 23.0755 147.123 23.1048C147.313 23.1342 147.504 23.1488 147.695 23.1488H150.995C151.288 23.1488 151.669 23.1708 152.139 23.2148C152.608 23.2442 153.077 23.3542 153.547 23.5448C154.016 23.7355 154.412 24.0435 154.735 24.4688C155.057 24.8795 155.219 25.4735 155.219 26.2508C155.219 27.1015 154.977 27.8055 154.493 28.3628C154.023 28.9202 153.297 29.3308 152.315 29.5948C151.347 29.8588 150.122 29.9908 148.641 29.9908ZM148.993 27.4608C149.887 27.4608 150.584 27.4095 151.083 27.3068C151.581 27.2188 151.933 27.0648 152.139 26.8448C152.359 26.6395 152.469 26.3755 152.469 26.0528C152.469 25.7595 152.403 25.5322 152.271 25.3708C152.153 25.2095 151.992 25.0995 151.787 25.0408C151.596 24.9675 151.398 24.9235 151.193 24.9088C151.002 24.8795 150.833 24.8648 150.687 24.8648H147.915C147.299 24.9235 146.851 25.0922 146.573 25.3708C146.309 25.6348 146.177 25.9428 146.177 26.2948C146.177 26.6175 146.279 26.8595 146.485 27.0208C146.69 27.1822 146.998 27.2922 147.409 27.3508C147.834 27.4242 148.362 27.4608 148.993 27.4608ZM148.949 20.2008C149.653 20.2008 150.181 20.0322 150.533 19.6948C150.885 19.3428 151.061 18.8882 151.061 18.3308C151.061 17.7442 150.877 17.2602 150.511 16.8788C150.159 16.4975 149.638 16.3068 148.949 16.3068C148.274 16.3068 147.746 16.4975 147.365 16.8788C146.983 17.2455 146.793 17.7222 146.793 18.3088C146.793 18.6755 146.873 19.0055 147.035 19.2988C147.211 19.5775 147.46 19.7975 147.783 19.9588C148.105 20.1202 148.494 20.2008 148.949 20.2008Z" fill="#353535"/>
</g>
</g>
<defs>
<filter id="filter0_d_3451_24" x="0.5" y="0.5" width="159.93" height="40.9297" filterUnits="userSpaceOnUse" color-interpolation-filters="sRGB">
<feFlood flood-opacity="0" result="BackgroundImageFix"/>
<feColorMatrix in="SourceAlpha" type="matrix" values="0 0 0 0 0 0 0 0 0 0 0 0 0 0 0 0 0 0 127 0" result="hardAlpha"/>
<feOffset dy="2"/>
<feGaussianBlur stdDeviation="2.25"/>
<feComposite in2="hardAlpha" operator="out"/>
<feColorMatrix type="matrix" values="0 0 0 0 0 0 0 0 0 0 0 0 0 0 0 0 0 0 0.07 0"/>
<feBlend mode="normal" in2="BackgroundImageFix" result="effect1_dropShadow_3451_24"/>
<feBlend mode="normal" in="SourceGraphic" in2="effect1_dropShadow_3451_24" result="shape"/>
</filter>
<filter id="filter1_ii_3451_24" x="4" y="3" width="32.9297" height="34.9297" filterUnits="userSpaceOnUse" color-interpolation-filters="sRGB">
<feFlood flood-opacity="0" result="BackgroundImageFix"/>
<feBlend mode="normal" in="SourceGraphic" in2="BackgroundImageFix" result="shape"/>
<feColorMatrix in="SourceAlpha" type="matrix" values="0 0 0 0 0 0 0 0 0 0 0 0 0 0 0 0 0 0 127 0" result="hardAlpha"/>
<feOffset dy="2"/>
<feGaussianBlur stdDeviation="0.65"/>
<feComposite in2="hardAlpha" operator="arithmetic" k2="-1" k3="1"/>
<feColorMatrix type="matrix" values="0 0 0 0 1 0 0 0 0 1 0 0 0 0 1 0 0 0 0.25 0"/>
<feBlend mode="normal" in2="shape" result="effect1_innerShadow_3451_24"/>
<feColorMatrix in="SourceAlpha" type="matrix" values="0 0 0 0 0 0 0 0 0 0 0 0 0 0 0 0 0 0 127 0" result="hardAlpha"/>
<feOffset dx="-1" dy="3"/>
<feGaussianBlur stdDeviation="1.75"/>
<feComposite in2="hardAlpha" operator="arithmetic" k2="-1" k3="1"/>
<feColorMatrix type="matrix" values="0 0 0 0 1 0 0 0 0 1 0 0 0 0 1 0 0 0 0.22 0"/>
<feBlend mode="normal" in2="effect1_innerShadow_3451_24" result="effect2_innerShadow_3451_24"/>
</filter>
<filter id="filter2_i_3451_24" x="44.875" y="9.59766" width="110.844" height="20.8926" filterUnits="userSpaceOnUse" color-interpolation-filters="sRGB">
<feFlood flood-opacity="0" result="BackgroundImageFix"/>
<feBlend mode="normal" in="SourceGraphic" in2="BackgroundImageFix" result="shape"/>
<feColorMatrix in="SourceAlpha" type="matrix" values="0 0 0 0 0 0 0 0 0 0 0 0 0 0 0 0 0 0 127 0" result="hardAlpha"/>
<feOffset dx="0.5" dy="0.5"/>
<feGaussianBlur stdDeviation="0.6"/>
<feComposite in2="hardAlpha" operator="arithmetic" k2="-1" k3="1"/>
<feColorMatrix type="matrix" values="0 0 0 0 0 0 0 0 0 0 0 0 0 0 0 0 0 0 0.25 0"/>
<feBlend mode="normal" in2="shape" result="effect1_innerShadow_3451_24"/>
</filter>
<clipPath id="clip0_3451_24">
<rect x="5" y="3" width="31.9291" height="31.9291" rx="7.27917" fill="white"/>
</clipPath>
</defs>
</svg>
