<svg width="1500" height="420" viewBox="0 0 1500 420" fill="none" xmlns="http://www.w3.org/2000/svg">
<g filter="url(#filter0_d_3451_31)">
<g filter="url(#filter1_ii_3451_31)">
<g clip-path="url(#clip0_3451_31)">
<path d="M38 8.23242C37.3758 8.23242 36.7511 8.30753 36.1406 8.45801C34.92 8.75894 33.7907 9.35194 32.8496 10.1855C31.9085 11.0193 31.1832 12.0695 30.7373 13.2451C30.2914 14.4209 30.1375 15.6882 30.2891 16.9365C30.4407 18.1847 30.8932 19.3773 31.6074 20.4121C32.3218 21.447 33.2771 22.2935 34.3906 22.8779C35.3648 23.3891 36.4347 23.6865 37.5293 23.7529L38 23.7676V36H15.4697C15.8759 35.57 16.2507 35.109 16.5889 34.6191C17.6604 33.0667 18.339 31.2768 18.5664 29.4043C18.7938 27.5318 18.5634 25.6318 17.8945 23.8682C17.2257 22.1046 16.1383 20.5301 14.7266 19.2793C13.3146 18.0284 11.6196 17.1389 9.78809 16.6875C8.21788 16.3005 6.58745 16.2458 5 16.5225V3H38V8.23242Z" fill="#4E0D94"/>
</g>
</g>
<g filter="url(#filter2_i_3451_31)">
<path d="M45.5357 25.9648V11.4448H51.5637C52.4584 11.4448 53.2577 11.5255 53.9617 11.6868C54.6657 11.8335 55.267 12.0608 55.7657 12.3688C56.279 12.6768 56.6677 13.0802 56.9317 13.5788C57.2104 14.0628 57.3497 14.6422 57.3497 15.3168C57.3497 15.8888 57.225 16.3875 56.9757 16.8128C56.741 17.2382 56.367 17.5828 55.8537 17.8468C55.355 18.1108 54.695 18.2942 53.8737 18.3968V18.7268C55.267 18.8295 56.2864 19.1815 56.9317 19.7828C57.5917 20.3695 57.9217 21.1615 57.9217 22.1588C57.9217 22.9948 57.7017 23.6988 57.2617 24.2708C56.8364 24.8282 56.191 25.2535 55.3257 25.5468C54.4604 25.8255 53.3897 25.9648 52.1137 25.9648H45.5357ZM48.5497 23.4128H52.0697C53.0084 23.4128 53.705 23.2735 54.1597 22.9948C54.6144 22.7015 54.8417 22.2542 54.8417 21.6528C54.8417 20.9635 54.5557 20.4502 53.9837 20.1128C53.4117 19.7608 52.5464 19.5848 51.3877 19.5848H48.5497V23.4128ZM48.5497 17.6048H50.9257C52.0697 17.6048 52.9057 17.4508 53.4337 17.1428C53.9764 16.8202 54.2477 16.3508 54.2477 15.7348C54.2477 15.1188 54.0057 14.6715 53.5217 14.3928C53.0377 14.0995 52.297 13.9528 51.2997 13.9528H48.5497V17.6048ZM59.7393 25.9648V20.3768V14.4148H62.3573L62.3793 18.3528H62.7973C62.9146 17.3702 63.1126 16.5708 63.3913 15.9548C63.6846 15.3388 64.0879 14.8842 64.6013 14.5908C65.1146 14.2975 65.7526 14.1508 66.5153 14.1508C66.6473 14.1508 66.7866 14.1582 66.9333 14.1728C67.0946 14.1728 67.2779 14.1948 67.4833 14.2388L67.3513 17.6048C67.1313 17.5022 66.8893 17.4288 66.6253 17.3848C66.3613 17.3408 66.1266 17.3188 65.9213 17.3188C65.3493 17.3188 64.8579 17.4508 64.4473 17.7148C64.0366 17.9788 63.6993 18.3602 63.4353 18.8588C63.1859 19.3428 63.0173 19.9368 62.9293 20.6408V25.9648H59.7393ZM68.6183 25.9648V14.4148H71.7863V25.9648H68.6183ZM70.2243 12.6768C69.6083 12.6768 69.1317 12.5522 68.7943 12.3028C68.4717 12.0388 68.3103 11.6575 68.3103 11.1588C68.3103 10.6455 68.4717 10.2568 68.7943 9.99284C69.1317 9.72884 69.6083 9.59684 70.2243 9.59684C70.855 9.59684 71.3317 9.72884 71.6543 9.99284C71.9917 10.2568 72.1603 10.6455 72.1603 11.1588C72.1603 11.6428 71.9917 12.0168 71.6543 12.2808C71.3317 12.5448 70.855 12.6768 70.2243 12.6768ZM78.6359 29.9908C77.3746 29.9908 76.3332 29.8882 75.5119 29.6828C74.7052 29.4922 74.1112 29.2062 73.7299 28.8248C73.3486 28.4435 73.1579 27.9668 73.1579 27.3948C73.1579 26.7202 73.4219 26.1702 73.9499 25.7448C74.4926 25.3195 75.2846 25.0628 76.3259 24.9748V24.5348C75.5339 24.5348 74.9252 24.4542 74.4999 24.2928C74.0746 24.1168 73.8619 23.8162 73.8619 23.3908C73.8619 22.9802 74.0672 22.6135 74.4779 22.2908C74.9032 21.9682 75.5999 21.7115 76.5679 21.5208V21.0808C75.6586 21.0222 74.9472 20.7288 74.4339 20.2008C73.9206 19.6728 73.6639 18.9908 73.6639 18.1548C73.6639 17.4215 73.8692 16.7688 74.2799 16.1968C74.6906 15.6102 75.2992 15.1482 76.1059 14.8108C76.9272 14.4588 77.9319 14.2828 79.1199 14.2828H84.9719V16.7028L81.3419 16.1968V16.7028C82.2806 16.8348 82.9552 17.0695 83.3659 17.4068C83.7912 17.7442 84.0039 18.2135 84.0039 18.8148C84.0039 19.4162 83.8059 19.9442 83.4099 20.3988C83.0139 20.8535 82.4492 21.2128 81.7159 21.4768C80.9972 21.7262 80.1319 21.8508 79.1199 21.8508C78.9292 21.8508 78.7239 21.8435 78.5039 21.8288C78.2839 21.8142 77.9172 21.7775 77.4039 21.7188C77.1252 21.9242 76.9052 22.1075 76.7439 22.2688C76.5972 22.4155 76.5239 22.5548 76.5239 22.6868C76.5239 22.7895 76.5752 22.8775 76.6779 22.9508C76.7952 23.0242 76.9419 23.0755 77.1179 23.1048C77.3086 23.1342 77.4992 23.1488 77.6899 23.1488H80.9899C81.2832 23.1488 81.6646 23.1708 82.1339 23.2148C82.6032 23.2442 83.0726 23.3542 83.5419 23.5448C84.0112 23.7355 84.4072 24.0435 84.7299 24.4688C85.0526 24.8795 85.2139 25.4735 85.2139 26.2508C85.2139 27.1015 84.9719 27.8055 84.4879 28.3628C84.0186 28.9202 83.2926 29.3308 82.3099 29.5948C81.3419 29.8588 80.1172 29.9908 78.6359 29.9908ZM78.9879 27.4608C79.8826 27.4608 80.5792 27.4095 81.0779 27.3068C81.5766 27.2188 81.9286 27.0648 82.1339 26.8448C82.3539 26.6395 82.4639 26.3755 82.4639 26.0528C82.4639 25.7595 82.3979 25.5322 82.2659 25.3708C82.1486 25.2095 81.9872 25.0995 81.7819 25.0408C81.5912 24.9675 81.3932 24.9235 81.1879 24.9088C80.9972 24.8795 80.8286 24.8648 80.6819 24.8648H77.9099C77.2939 24.9235 76.8466 25.0922 76.5679 25.3708C76.3039 25.6348 76.1719 25.9428 76.1719 26.2948C76.1719 26.6175 76.2746 26.8595 76.4799 27.0208C76.6852 27.1822 76.9932 27.2922 77.4039 27.3508C77.8292 27.4242 78.3572 27.4608 78.9879 27.4608ZM78.9439 20.2008C79.6479 20.2008 80.1759 20.0322 80.5279 19.6948C80.8799 19.3428 81.0559 18.8882 81.0559 18.3308C81.0559 17.7442 80.8726 17.2602 80.5059 16.8788C80.1539 16.4975 79.6332 16.3068 78.9439 16.3068C78.2692 16.3068 77.7412 16.4975 77.3599 16.8788C76.9786 17.2455 76.7879 17.7222 76.7879 18.3088C76.7879 18.6755 76.8686 19.0055 77.0299 19.2988C77.2059 19.5775 77.4552 19.7975 77.7779 19.9588C78.1006 20.1202 78.4892 20.2008 78.9439 20.2008ZM86.6128 25.9648V18.7048V10.2348H89.8028V13.8428C89.8028 14.1362 89.7881 14.4442 89.7588 14.7668C89.7441 15.0895 89.7074 15.4195 89.6488 15.7568C89.6048 16.0795 89.5534 16.4095 89.4948 16.7468C89.4508 17.0842 89.3994 17.4215 89.3408 17.7588H89.8248C90.0301 17.0108 90.2868 16.3655 90.5948 15.8228C90.9174 15.2802 91.3281 14.8622 91.8268 14.5688C92.3254 14.2608 92.9561 14.1068 93.7188 14.1068C95.0681 14.1068 96.0801 14.5835 96.7548 15.5368C97.4294 16.4755 97.7668 17.9202 97.7668 19.8708V25.9648H94.5768V20.3548C94.5768 19.1228 94.3934 18.2135 94.0268 17.6268C93.6748 17.0255 93.1394 16.7248 92.4208 16.7248C91.8341 16.7248 91.3501 16.9008 90.9688 17.2528C90.5874 17.6048 90.3014 18.0815 90.1108 18.6828C89.9201 19.2695 89.8101 19.9295 89.7808 20.6628V25.9648H86.6128ZM104.079 26.2288C102.788 26.2288 101.835 25.8915 101.219 25.2168C100.617 24.5275 100.317 23.4348 100.317 21.9388V16.9008H98.6447L98.6887 14.4148H99.8547C100.309 14.4148 100.647 14.3488 100.867 14.2168C101.087 14.0848 101.219 13.8428 101.263 13.4908L101.549 11.8408H103.353V14.4148H106.279V16.9888H103.353V21.8068C103.353 22.3348 103.477 22.7162 103.727 22.9508C103.976 23.1855 104.357 23.3028 104.871 23.3028C105.149 23.3028 105.413 23.2735 105.663 23.2148C105.927 23.1562 106.154 23.0608 106.345 22.9288V25.8768C105.89 26.0235 105.472 26.1188 105.091 26.1628C104.709 26.2068 104.372 26.2288 104.079 26.2288ZM114.869 26.2728C114.136 26.2728 113.498 26.1335 112.955 25.8548C112.412 25.5615 111.972 25.1435 111.635 24.6008C111.298 24.0582 111.063 23.3982 110.931 22.6208H110.513L110.491 25.9648H107.873V20.2888V10.2348H111.041V14.0188C111.041 14.3708 111.019 14.7522 110.975 15.1628C110.931 15.5588 110.865 15.9695 110.777 16.3948C110.704 16.8202 110.623 17.2602 110.535 17.7148H111.019C111.21 16.9815 111.466 16.3508 111.789 15.8228C112.126 15.2802 112.552 14.8695 113.065 14.5908C113.578 14.2975 114.187 14.1508 114.891 14.1508C115.859 14.1508 116.695 14.4002 117.399 14.8988C118.103 15.3975 118.646 16.1015 119.027 17.0108C119.423 17.9202 119.621 18.9982 119.621 20.2448C119.621 21.4622 119.43 22.5255 119.049 23.4348C118.668 24.3295 118.118 25.0262 117.399 25.5248C116.695 26.0235 115.852 26.2728 114.869 26.2728ZM113.747 23.6768C114.275 23.6768 114.73 23.5375 115.111 23.2588C115.492 22.9655 115.786 22.5548 115.991 22.0268C116.196 21.4988 116.299 20.8828 116.299 20.1788C116.299 19.4748 116.196 18.8662 115.991 18.3528C115.8 17.8395 115.522 17.4362 115.155 17.1428C114.788 16.8495 114.341 16.7028 113.813 16.7028C113.461 16.7028 113.138 16.7688 112.845 16.9008C112.552 17.0328 112.295 17.2162 112.075 17.4508C111.855 17.6708 111.664 17.9275 111.503 18.2208C111.342 18.4995 111.224 18.7928 111.151 19.1008C111.078 19.4088 111.041 19.7022 111.041 19.9808V20.3988C111.041 20.7362 111.092 21.1028 111.195 21.4988C111.298 21.8802 111.459 22.2395 111.679 22.5768C111.914 22.8995 112.2 23.1635 112.537 23.3688C112.874 23.5742 113.278 23.6768 113.747 23.6768ZM121.242 25.9648V14.4148H124.41V25.9648H121.242ZM122.848 12.6768C122.232 12.6768 121.755 12.5522 121.418 12.3028C121.095 12.0388 120.934 11.6575 120.934 11.1588C120.934 10.6455 121.095 10.2568 121.418 9.99284C121.755 9.72884 122.232 9.59684 122.848 9.59684C123.479 9.59684 123.955 9.72884 124.278 9.99284C124.615 10.2568 124.784 10.6455 124.784 11.1588C124.784 11.6428 124.615 12.0168 124.278 12.2808C123.955 12.5448 123.479 12.6768 122.848 12.6768ZM130.974 26.2288C129.683 26.2288 128.73 25.8915 128.114 25.2168C127.512 24.5275 127.212 23.4348 127.212 21.9388V16.9008H125.54L125.584 14.4148H126.75C127.204 14.4148 127.542 14.3488 127.762 14.2168C127.982 14.0848 128.114 13.8428 128.158 13.4908L128.444 11.8408H130.248V14.4148H133.174V16.9888H130.248V21.8068C130.248 22.3348 130.372 22.7162 130.622 22.9508C130.871 23.1855 131.252 23.3028 131.766 23.3028C132.044 23.3028 132.308 23.2735 132.558 23.2148C132.822 23.1562 133.049 23.0608 133.24 22.9288V25.8768C132.785 26.0235 132.367 26.1188 131.986 26.1628C131.604 26.2068 131.267 26.2288 130.974 26.2288ZM140.071 26.2728C139.118 26.2728 138.267 26.1408 137.519 25.8768C136.786 25.6128 136.163 25.2315 135.649 24.7328C135.136 24.2342 134.74 23.6182 134.461 22.8848C134.197 22.1515 134.065 21.3228 134.065 20.3988C134.065 19.4895 134.19 18.6535 134.439 17.8908C134.703 17.1135 135.085 16.4462 135.583 15.8888C136.082 15.3168 136.691 14.8768 137.409 14.5688C138.128 14.2608 138.942 14.1068 139.851 14.1068C140.731 14.1068 141.516 14.2535 142.205 14.5468C142.895 14.8255 143.467 15.2508 143.921 15.8228C144.391 16.3948 144.728 17.0988 144.933 17.9348C145.153 18.7562 145.234 19.7022 145.175 20.7728L136.111 20.8608V19.1228L143.349 19.0568L142.227 19.9368C142.33 19.1595 142.279 18.5215 142.073 18.0228C141.868 17.5242 141.567 17.1575 141.171 16.9228C140.79 16.6882 140.365 16.5708 139.895 16.5708C139.338 16.5708 138.847 16.7175 138.421 17.0108C137.996 17.3042 137.666 17.7368 137.431 18.3088C137.197 18.8662 137.079 19.5408 137.079 20.3328C137.079 21.5795 137.351 22.4962 137.893 23.0828C138.451 23.6695 139.177 23.9628 140.071 23.9628C140.482 23.9628 140.827 23.9115 141.105 23.8088C141.399 23.6915 141.633 23.5448 141.809 23.3688C142 23.1928 142.147 22.9948 142.249 22.7748C142.367 22.5548 142.462 22.3348 142.535 22.1148L145.285 22.7088C145.153 23.2515 144.955 23.7428 144.691 24.1828C144.442 24.6082 144.105 24.9822 143.679 25.3048C143.254 25.6128 142.741 25.8475 142.139 26.0088C141.553 26.1848 140.863 26.2728 140.071 26.2728Z" fill="#353535"/>
</g>
</g>
<defs>
<filter id="filter0_d_3451_31" x="0.5" y="0.5" width="150.93" height="40.9297" filterUnits="userSpaceOnUse" color-interpolation-filters="sRGB">
<feFlood flood-opacity="0" result="BackgroundImageFix"/>
<feColorMatrix in="SourceAlpha" type="matrix" values="0 0 0 0 0 0 0 0 0 0 0 0 0 0 0 0 0 0 127 0" result="hardAlpha"/>
<feOffset dy="2"/>
<feGaussianBlur stdDeviation="2.25"/>
<feComposite in2="hardAlpha" operator="out"/>
<feColorMatrix type="matrix" values="0 0 0 0 0 0 0 0 0 0 0 0 0 0 0 0 0 0 0.07 0"/>
<feBlend mode="normal" in2="BackgroundImageFix" result="effect1_dropShadow_3451_31"/>
<feBlend mode="normal" in="SourceGraphic" in2="effect1_dropShadow_3451_31" result="shape"/>
</filter>
<filter id="filter1_ii_3451_31" x="4" y="3" width="32.9297" height="34.9297" filterUnits="userSpaceOnUse" color-interpolation-filters="sRGB">
<feFlood flood-opacity="0" result="BackgroundImageFix"/>
<feBlend mode="normal" in="SourceGraphic" in2="BackgroundImageFix" result="shape"/>
<feColorMatrix in="SourceAlpha" type="matrix" values="0 0 0 0 0 0 0 0 0 0 0 0 0 0 0 0 0 0 127 0" result="hardAlpha"/>
<feOffset dy="2"/>
<feGaussianBlur stdDeviation="0.65"/>
<feComposite in2="hardAlpha" operator="arithmetic" k2="-1" k3="1"/>
<feColorMatrix type="matrix" values="0 0 0 0 1 0 0 0 0 1 0 0 0 0 1 0 0 0 0.25 0"/>
<feBlend mode="normal" in2="shape" result="effect1_innerShadow_3451_31"/>
<feColorMatrix in="SourceAlpha" type="matrix" values="0 0 0 0 0 0 0 0 0 0 0 0 0 0 0 0 0 0 127 0" result="hardAlpha"/>
<feOffset dx="-1" dy="3"/>
<feGaussianBlur stdDeviation="1.75"/>
<feComposite in2="hardAlpha" operator="arithmetic" k2="-1" k3="1"/>
<feColorMatrix type="matrix" values="0 0 0 0 1 0 0 0 0 1 0 0 0 0 1 0 0 0 0.22 0"/>
<feBlend mode="normal" in2="effect1_innerShadow_3451_31" result="effect2_innerShadow_3451_31"/>
</filter>
<filter id="filter2_i_3451_31" x="45.5352" y="9.59766" width="100.25" height="20.8926" filterUnits="userSpaceOnUse" color-interpolation-filters="sRGB">
<feFlood flood-opacity="0" result="BackgroundImageFix"/>
<feBlend mode="normal" in="SourceGraphic" in2="BackgroundImageFix" result="shape"/>
<feColorMatrix in="SourceAlpha" type="matrix" values="0 0 0 0 0 0 0 0 0 0 0 0 0 0 0 0 0 0 127 0" result="hardAlpha"/>
<feOffset dx="0.5" dy="0.5"/>
<feGaussianBlur stdDeviation="0.6"/>
<feComposite in2="hardAlpha" operator="arithmetic" k2="-1" k3="1"/>
<feColorMatrix type="matrix" values="0 0 0 0 0 0 0 0 0 0 0 0 0 0 0 0 0 0 0.25 0"/>
<feBlend mode="normal" in2="shape" result="effect1_innerShadow_3451_31"/>
</filter>
<clipPath id="clip0_3451_31">
<rect x="5" y="3" width="31.9291" height="31.9291" rx="15.9646" fill="white"/>
</clipPath>
</defs>
</svg>
