<svg width="128" height="42" viewBox="0 0 128 42" fill="none" xmlns="http://www.w3.org/2000/svg">
<g filter="url(#filter0_d_3451_103)">
<g clip-path="url(#clip0_3451_103)">
<rect x="5" y="3" width="31.9291" height="31.9291" rx="5" fill="black"/>
<path d="M13.8059 15.845C14.9932 15.845 15.8124 16.1536 16.2636 16.771C16.7385 17.3884 16.976 18.3027 16.976 19.5137C16.976 19.7987 16.9523 20.1074 16.9048 20.4398C16.881 20.7485 16.8335 21.0335 16.7623 21.2947L16.691 20.5823C17.2372 19.0388 18.0921 17.8396 19.2556 16.9848C20.4192 16.1062 21.654 15.6669 22.96 15.6669C24.5747 15.6669 25.9164 16.118 26.985 17.0204C28.0535 17.899 28.849 19.1575 29.3714 20.796C29.9176 22.4107 30.1907 24.3223 30.1907 26.5307C30.1907 27.6467 30.1432 28.7509 30.0482 29.8432C29.9532 30.9356 29.8226 31.9329 29.6564 32.8352C29.4902 33.7138 29.2764 34.4381 29.0152 35.008C28.6353 35.8866 28.0891 36.5515 27.3768 37.0027C26.6644 37.4301 25.8214 37.6438 24.8478 37.6438C23.7555 37.6438 22.9125 37.2876 22.3189 36.5752C21.749 35.8391 21.464 34.8299 21.464 33.5476C21.464 32.8352 21.4996 31.9923 21.5709 31.0187C21.6421 30.0451 21.7015 29.0834 21.749 28.1335C21.8202 27.1837 21.8558 26.4001 21.8558 25.7827C21.8558 23.8355 21.274 22.8619 20.1105 22.8619C19.4693 22.8619 18.9232 23.1706 18.472 23.788C18.0208 24.4054 17.724 25.2721 17.5815 26.3882C17.5103 26.9581 17.4509 27.6705 17.4034 28.5253C17.3797 29.3802 17.3441 30.235 17.2966 31.0899C17.2728 31.921 17.2372 32.6215 17.1897 33.1914C17.0472 34.9011 16.6198 36.1241 15.9074 36.8602C15.2188 37.5963 14.2808 37.9644 13.0935 37.9644C11.645 37.9644 10.5527 37.5607 9.81657 36.7533C9.08044 35.9222 8.71238 34.5331 8.71238 32.5859C8.71238 31.5886 8.73613 30.4725 8.78362 29.2377C8.83111 28.0029 8.89048 26.7681 8.96171 25.5333C9.0567 24.2748 9.16356 23.135 9.28229 22.1139C9.51975 20.1667 9.99467 18.6351 10.707 17.519C11.4194 16.403 12.4524 15.845 13.8059 15.845Z" fill="white"/>
</g>
<g filter="url(#filter1_i_3451_103)">
<path d="M45.5357 25.9648V11.4448H49.6717L56.2497 21.7188H56.4917L56.2937 11.4448H59.3737V25.9648H55.6337L48.6817 15.2068H48.4397L48.6377 25.9648H45.5357ZM61.9343 25.9648V11.4448H65.1243V25.9648H61.9343ZM64.1343 25.9648V23.3908H73.1323V25.9648H64.1343ZM64.1343 19.8048V17.4508H72.0323V19.8048H64.1343ZM64.1343 13.9968V11.4448H73.0883V13.9968H64.1343ZM73.8793 25.9648L78.8733 18.6828L73.9893 11.4448H77.6853L81.0293 16.9888H81.1613L84.5273 11.4448H88.2453L83.2953 18.6168L88.3773 25.9648H84.6813L81.1393 20.2888H81.0293L77.5753 25.9648H73.8793ZM93.0205 25.9648V11.4448H96.1885V25.9648H93.0205ZM88.7305 14.1068V11.4448H100.478V14.1068H88.7305ZM101.849 25.9648V11.4448H105.017V25.9648H101.849ZM102.509 25.9648V23.3028H111.155V25.9648H102.509ZM114.149 25.9648V21.4328L108.803 11.4448H112.587L115.689 18.5728H115.821L118.901 11.4448H122.641L117.339 21.4108V25.9648H114.149Z" fill="#353535"/>
</g>
</g>
<defs>
<filter id="filter0_d_3451_103" x="0.5" y="0.5" width="126.93" height="40.9297" filterUnits="userSpaceOnUse" color-interpolation-filters="sRGB">
<feFlood flood-opacity="0" result="BackgroundImageFix"/>
<feColorMatrix in="SourceAlpha" type="matrix" values="0 0 0 0 0 0 0 0 0 0 0 0 0 0 0 0 0 0 127 0" result="hardAlpha"/>
<feOffset dy="2"/>
<feGaussianBlur stdDeviation="2.25"/>
<feComposite in2="hardAlpha" operator="out"/>
<feColorMatrix type="matrix" values="0 0 0 0 0 0 0 0 0 0 0 0 0 0 0 0 0 0 0.07 0"/>
<feBlend mode="normal" in2="BackgroundImageFix" result="effect1_dropShadow_3451_103"/>
<feBlend mode="normal" in="SourceGraphic" in2="effect1_dropShadow_3451_103" result="shape"/>
</filter>
<filter id="filter1_i_3451_103" x="45.5352" y="11.4453" width="77.6055" height="15.0195" filterUnits="userSpaceOnUse" color-interpolation-filters="sRGB">
<feFlood flood-opacity="0" result="BackgroundImageFix"/>
<feBlend mode="normal" in="SourceGraphic" in2="BackgroundImageFix" result="shape"/>
<feColorMatrix in="SourceAlpha" type="matrix" values="0 0 0 0 0 0 0 0 0 0 0 0 0 0 0 0 0 0 127 0" result="hardAlpha"/>
<feOffset dx="0.5" dy="0.5"/>
<feGaussianBlur stdDeviation="0.6"/>
<feComposite in2="hardAlpha" operator="arithmetic" k2="-1" k3="1"/>
<feColorMatrix type="matrix" values="0 0 0 0 0 0 0 0 0 0 0 0 0 0 0 0 0 0 0.25 0"/>
<feBlend mode="normal" in2="shape" result="effect1_innerShadow_3451_103"/>
</filter>
<clipPath id="clip0_3451_103">
<rect x="5" y="3" width="31.9291" height="31.9291" rx="5" fill="white"/>
</clipPath>
</defs>
</svg>
