<svg width="146" height="43" viewBox="0 0 146 43" fill="none" xmlns="http://www.w3.org/2000/svg">
<g filter="url(#filter0_d_3451_51)">
<path d="M18.6973 16.4043C19.2482 16.2154 19.7225 16.8362 19.3955 17.3184L7.06113 35.5052C6.85127 35.8147 6.50167 36 6.12777 36V36C5.50492 36 5 35.4951 5 34.8722V27.3116C5 23.601 7.35646 20.2999 10.8658 19.0944L18.6973 16.4043ZM21.6797 19.0771C22.0622 18.6377 22.784 18.9375 22.7422 19.5186L21.8618 31.6678C21.6848 34.1095 19.6524 36 17.2043 36V36C13.198 36 11.0517 31.2861 13.6822 28.2643L21.6797 19.0771ZM25.5996 19.8994C25.7113 19.3278 26.487 19.2269 26.7412 19.751L31.6044 29.7868C32.9967 32.66 30.9038 36 27.711 36V36C24.9891 36 22.9434 33.5167 23.4645 30.8452L25.5996 19.8994ZM29.4062 18.6523C29.217 18.1013 29.8381 17.6261 30.3203 17.9531L34.3186 20.6646C36.6211 22.226 38 24.8272 38 27.6092V34.4632C38 35.3119 37.312 36 36.4632 36V36C35.8069 36 35.223 35.5832 35.0098 34.9625L29.4062 18.6523ZM36.2729 14.878C37.2463 14.9484 38 15.7586 38 16.7345V16.7345C38 18.3314 36.1211 19.187 34.9166 18.1386L32.0791 15.6689C31.6396 15.2864 31.9395 14.5646 32.5205 14.6064L36.2729 14.878ZM17.4492 12.5977C18.0212 12.7092 18.1221 13.4851 17.5977 13.7393L9.94485 17.4476C7.65813 18.5557 5 16.89 5 14.3489V14.3489C5 12.1827 6.97647 10.5545 9.10264 10.9693L17.4492 12.5977ZM38 10.7224C38 11.7697 37.0445 12.5569 36.0165 12.3564L32.9014 11.749C32.3299 11.6372 32.2291 10.8627 32.7529 10.6084L35.6091 9.22418C36.7147 8.68834 38 9.49371 38 10.7224V10.7224ZM18.2725 8.67773C18.712 9.06034 18.4113 9.78236 17.8301 9.74023L7.79283 9.01292C6.21878 8.89886 5 7.58858 5 6.0104V6.0104C5 4.3478 6.3478 3 8.0104 3H9.91168C11.0971 3 12.2425 3.4287 13.1366 4.207L18.2725 8.67773ZM38 4.61207C38 5.30047 37.5629 5.91291 36.9118 6.13664L31.6543 7.94336C31.1034 8.13248 30.6284 7.51149 30.9551 7.0293L32.8489 4.23656C33.3734 3.46316 34.2471 3 35.1816 3H36.3879C37.2783 3 38 3.72175 38 4.61207V4.61207ZM20.9453 5.69531C21.1341 6.2462 20.5134 6.7205 20.0312 6.39355L18.4161 5.29818C17.3907 4.60275 17.8829 3 19.1219 3V3C19.6589 3 20.1367 3.34106 20.3111 3.84898L20.9453 5.69531ZM28.6709 5.27051C28.2883 5.70985 27.5663 5.40928 27.6084 4.82812L27.6786 3.86224C27.7139 3.37625 28.1185 3 28.6057 3V3C29.4033 3 29.8305 3.93841 29.3069 4.53997L28.6709 5.27051ZM24.751 4.44727C24.6394 5.01922 23.8645 5.12011 23.6104 4.5957L23.381 4.12258C23.1294 3.60348 23.5075 3 24.0844 3V3C24.5761 3 24.9457 3.44862 24.8516 3.93126L24.751 4.44727Z" fill="#45008F"/>
<g filter="url(#filter1_i_3451_51)">
<path d="M45.396 26.5L50.368 11.98H54.988L59.96 26.5H56.528L52.854 14.488H52.524L48.828 26.5H45.396ZM48.19 23.64V21.484H57.628V23.64H48.19ZM61.1104 26.5V10.77H64.2344V26.5H61.1104ZM66.4875 26.5V14.95H69.6555V26.5H66.4875ZM68.0935 13.212C67.4775 13.212 67.0008 13.0873 66.6635 12.838C66.3408 12.574 66.1795 12.1927 66.1795 11.694C66.1795 11.1807 66.3408 10.792 66.6635 10.528C67.0008 10.264 67.4775 10.132 68.0935 10.132C68.7241 10.132 69.2008 10.264 69.5235 10.528C69.8608 10.792 70.0295 11.1807 70.0295 11.694C70.0295 12.178 69.8608 12.552 69.5235 12.816C69.2008 13.08 68.7241 13.212 68.0935 13.212ZM77.297 26.808C76.3437 26.808 75.493 26.676 74.745 26.412C74.0117 26.148 73.3884 25.7667 72.875 25.268C72.3617 24.7693 71.9657 24.1533 71.687 23.42C71.423 22.6867 71.291 21.858 71.291 20.934C71.291 20.0247 71.4157 19.1887 71.665 18.426C71.929 17.6487 72.3104 16.9813 72.809 16.424C73.3077 15.852 73.9164 15.412 74.635 15.104C75.3537 14.796 76.1677 14.642 77.077 14.642C77.957 14.642 78.7417 14.7887 79.431 15.082C80.1204 15.3607 80.6924 15.786 81.147 16.358C81.6164 16.93 81.9537 17.634 82.159 18.47C82.379 19.2913 82.4597 20.2373 82.401 21.308L73.337 21.396V19.658L80.575 19.592L79.453 20.472C79.5557 19.6947 79.5044 19.0567 79.299 18.558C79.0937 18.0593 78.793 17.6927 78.397 17.458C78.0157 17.2233 77.5904 17.106 77.121 17.106C76.5637 17.106 76.0724 17.2527 75.647 17.546C75.2217 17.8393 74.8917 18.272 74.657 18.844C74.4224 19.4013 74.305 20.076 74.305 20.868C74.305 22.1147 74.5764 23.0313 75.119 23.618C75.6764 24.2047 76.4024 24.498 77.297 24.498C77.7077 24.498 78.0524 24.4467 78.331 24.344C78.6244 24.2267 78.859 24.08 79.035 23.904C79.2257 23.728 79.3724 23.53 79.475 23.31C79.5924 23.09 79.6877 22.87 79.761 22.65L82.511 23.244C82.379 23.7867 82.181 24.278 81.917 24.718C81.6677 25.1433 81.3304 25.5173 80.905 25.84C80.4797 26.148 79.9664 26.3827 79.365 26.544C78.7784 26.72 78.089 26.808 77.297 26.808ZM84.0522 26.5V19.504V14.95H86.6482L86.6262 18.404H87.0662C87.2569 17.568 87.5282 16.8713 87.8802 16.314C88.2322 15.7567 88.6722 15.3387 89.2002 15.06C89.7429 14.7813 90.3809 14.642 91.1142 14.642C92.4489 14.642 93.4609 15.1113 94.1502 16.05C94.8542 16.9887 95.2062 18.4627 95.2062 20.472V26.5H92.0162V20.824C92.0162 19.592 91.8329 18.6973 91.4662 18.14C91.1142 17.568 90.5936 17.282 89.9042 17.282C89.3176 17.282 88.8262 17.4653 88.4302 17.832C88.0342 18.1987 87.7336 18.6827 87.5282 19.284C87.3376 19.8707 87.2349 20.5307 87.2202 21.264V26.5H84.0522ZM97.4251 26.5V11.98H100.593V26.5H97.4251ZM98.9431 21.066V18.47H107.413V21.066H98.9431ZM98.9431 14.686V11.98H108.227V14.686H98.9431ZM111.649 26.808C111.004 26.808 110.432 26.6833 109.933 26.434C109.435 26.17 109.046 25.796 108.767 25.312C108.489 24.828 108.349 24.2267 108.349 23.508C108.349 22.8773 108.467 22.3493 108.701 21.924C108.951 21.4987 109.31 21.154 109.779 20.89C110.249 20.626 110.828 20.406 111.517 20.23C112.207 20.054 112.991 19.9 113.871 19.768C114.341 19.6947 114.722 19.6287 115.015 19.57C115.323 19.4967 115.551 19.3867 115.697 19.24C115.844 19.0787 115.917 18.8513 115.917 18.558C115.917 18.1473 115.771 17.7953 115.477 17.502C115.184 17.2087 114.722 17.062 114.091 17.062C113.666 17.062 113.27 17.1353 112.903 17.282C112.551 17.4287 112.243 17.6487 111.979 17.942C111.73 18.2353 111.547 18.6093 111.429 19.064L108.635 18.206C108.811 17.6047 109.061 17.084 109.383 16.644C109.721 16.204 110.124 15.8373 110.593 15.544C111.063 15.236 111.598 15.0087 112.199 14.862C112.801 14.7153 113.453 14.642 114.157 14.642C115.287 14.642 116.203 14.8253 116.907 15.192C117.626 15.544 118.161 16.1013 118.513 16.864C118.865 17.612 119.041 18.58 119.041 19.768V21.748C119.041 22.2613 119.049 22.782 119.063 23.31C119.093 23.838 119.122 24.3733 119.151 24.916C119.195 25.444 119.239 25.972 119.283 26.5H116.489C116.431 26.1333 116.372 25.7153 116.313 25.246C116.269 24.762 116.233 24.278 116.203 23.794H115.807C115.602 24.3513 115.309 24.8573 114.927 25.312C114.546 25.7667 114.077 26.1333 113.519 26.412C112.977 26.676 112.353 26.808 111.649 26.808ZM112.991 24.52C113.27 24.52 113.549 24.4687 113.827 24.366C114.121 24.2633 114.399 24.124 114.663 23.948C114.942 23.7573 115.191 23.5227 115.411 23.244C115.646 22.9653 115.837 22.65 115.983 22.298L115.939 20.45L116.445 20.56C116.181 20.7507 115.873 20.9047 115.521 21.022C115.169 21.1247 114.803 21.2053 114.421 21.264C114.055 21.3227 113.688 21.3887 113.321 21.462C112.955 21.5353 112.625 21.6307 112.331 21.748C112.053 21.8653 111.825 22.0267 111.649 22.232C111.488 22.4227 111.407 22.694 111.407 23.046C111.407 23.5007 111.554 23.86 111.847 24.124C112.141 24.388 112.522 24.52 112.991 24.52ZM121.152 26.5V20.912V14.95H123.77L123.792 18.888H124.21C124.328 17.9053 124.526 17.106 124.804 16.49C125.098 15.874 125.501 15.4193 126.014 15.126C126.528 14.8327 127.166 14.686 127.928 14.686C128.06 14.686 128.2 14.6933 128.346 14.708C128.508 14.708 128.691 14.73 128.896 14.774L128.764 18.14C128.544 18.0373 128.302 17.964 128.038 17.92C127.774 17.876 127.54 17.854 127.334 17.854C126.762 17.854 126.271 17.986 125.86 18.25C125.45 18.514 125.112 18.8953 124.848 19.394C124.599 19.878 124.43 20.472 124.342 21.176V26.5H121.152ZM135.356 26.808C134.403 26.808 133.552 26.676 132.804 26.412C132.071 26.148 131.448 25.7667 130.934 25.268C130.421 24.7693 130.025 24.1533 129.746 23.42C129.482 22.6867 129.35 21.858 129.35 20.934C129.35 20.0247 129.475 19.1887 129.724 18.426C129.988 17.6487 130.37 16.9813 130.868 16.424C131.367 15.852 131.976 15.412 132.694 15.104C133.413 14.796 134.227 14.642 135.136 14.642C136.016 14.642 136.801 14.7887 137.49 15.082C138.18 15.3607 138.752 15.786 139.206 16.358C139.676 16.93 140.013 17.634 140.218 18.47C140.438 19.2913 140.519 20.2373 140.46 21.308L131.396 21.396V19.658L138.634 19.592L137.512 20.472C137.615 19.6947 137.564 19.0567 137.358 18.558C137.153 18.0593 136.852 17.6927 136.456 17.458C136.075 17.2233 135.65 17.106 135.18 17.106C134.623 17.106 134.132 17.2527 133.706 17.546C133.281 17.8393 132.951 18.272 132.716 18.844C132.482 19.4013 132.364 20.076 132.364 20.868C132.364 22.1147 132.636 23.0313 133.178 23.618C133.736 24.2047 134.462 24.498 135.356 24.498C135.767 24.498 136.112 24.4467 136.39 24.344C136.684 24.2267 136.918 24.08 137.094 23.904C137.285 23.728 137.432 23.53 137.534 23.31C137.652 23.09 137.747 22.87 137.82 22.65L140.57 23.244C140.438 23.7867 140.24 24.278 139.976 24.718C139.727 25.1433 139.39 25.5173 138.964 25.84C138.539 26.148 138.026 26.3827 137.424 26.544C136.838 26.72 136.148 26.808 135.356 26.808Z" fill="#353535"/>
</g>
</g>
<defs>
<filter id="filter0_d_3451_51" x="0.5" y="0.5" width="146" height="42" filterUnits="userSpaceOnUse" color-interpolation-filters="sRGB">
<feFlood flood-opacity="0" result="BackgroundImageFix"/>
<feColorMatrix in="SourceAlpha" type="matrix" values="0 0 0 0 0 0 0 0 0 0 0 0 0 0 0 0 0 0 127 0" result="hardAlpha"/>
<feOffset dy="2"/>
<feGaussianBlur stdDeviation="2.25"/>
<feComposite in2="hardAlpha" operator="out"/>
<feColorMatrix type="matrix" values="0 0 0 0 0 0 0 0 0 0 0 0 0 0 0 0 0 0 0.07 0"/>
<feBlend mode="normal" in2="BackgroundImageFix" result="effect1_dropShadow_3451_51"/>
<feBlend mode="normal" in="SourceGraphic" in2="effect1_dropShadow_3451_51" result="shape"/>
</filter>
<filter id="filter1_i_3451_51" x="45.3945" y="10.1328" width="95.6758" height="17.1758" filterUnits="userSpaceOnUse" color-interpolation-filters="sRGB">
<feFlood flood-opacity="0" result="BackgroundImageFix"/>
<feBlend mode="normal" in="SourceGraphic" in2="BackgroundImageFix" result="shape"/>
<feColorMatrix in="SourceAlpha" type="matrix" values="0 0 0 0 0 0 0 0 0 0 0 0 0 0 0 0 0 0 127 0" result="hardAlpha"/>
<feOffset dx="0.5" dy="0.5"/>
<feGaussianBlur stdDeviation="0.6"/>
<feComposite in2="hardAlpha" operator="arithmetic" k2="-1" k3="1"/>
<feColorMatrix type="matrix" values="0 0 0 0 0 0 0 0 0 0 0 0 0 0 0 0 0 0 0.25 0"/>
<feBlend mode="normal" in2="shape" result="effect1_innerShadow_3451_51"/>
</filter>
</defs>
</svg>
