<svg width="118" height="54" viewBox="0 0 118 54" fill="none" xmlns="http://www.w3.org/2000/svg">
<g filter="url(#filter0_d_3451_65)">
<g filter="url(#filter1_ii_3451_65)">
<rect x="31.5312" y="2.68164" width="31.9291" height="31.9291" rx="2" transform="rotate(57.2399 31.5312 2.68164)" fill="black"/>
</g>
<g filter="url(#filter2_i_3451_65)">
<path d="M57.3223 22.7441V10.8641H59.9143V22.7441H57.3223ZM53.8123 13.0421V10.8641H63.4243V13.0421H53.8123ZM64.4195 22.7441V13.2941H67.0115V22.7441H64.4195ZM65.7335 11.8721C65.2295 11.8721 64.8395 11.7701 64.5635 11.5661C64.2995 11.3501 64.1675 11.0381 64.1675 10.6301C64.1675 10.2101 64.2995 9.89214 64.5635 9.67614C64.8395 9.46014 65.2295 9.35214 65.7335 9.35214C66.2495 9.35214 66.6395 9.46014 66.9035 9.67614C67.1795 9.89214 67.3175 10.2101 67.3175 10.6301C67.3175 11.0261 67.1795 11.3321 66.9035 11.5481C66.6395 11.7641 66.2495 11.8721 65.7335 11.8721ZM68.8717 22.7441V9.87414H71.4277V22.7441H68.8717ZM76.8163 22.9601C75.7603 22.9601 74.9803 22.6841 74.4763 22.1321C73.9843 21.5681 73.7383 20.6741 73.7383 19.4501V15.3281H72.3703L72.4063 13.2941H73.3603C73.7323 13.2941 74.0083 13.2401 74.1883 13.1321C74.3683 13.0241 74.4763 12.8261 74.5123 12.5381L74.7463 11.1881H76.2223V13.2941H78.6163V15.4001H76.2223V19.3421C76.2223 19.7741 76.3243 20.0861 76.5283 20.2781C76.7323 20.4701 77.0443 20.5661 77.4643 20.5661C77.6923 20.5661 77.9083 20.5421 78.1123 20.4941C78.3283 20.4461 78.5143 20.3681 78.6703 20.2601V22.6721C78.2983 22.7921 77.9563 22.8701 77.6443 22.9061C77.3323 22.9421 77.0563 22.9601 76.8163 22.9601ZM84.2598 22.9961C83.4798 22.9961 82.7838 22.8881 82.1718 22.6721C81.5718 22.4561 81.0618 22.1441 80.6418 21.7361C80.2218 21.3281 79.8978 20.8241 79.6698 20.2241C79.4538 19.6241 79.3458 18.9461 79.3458 18.1901C79.3458 17.4461 79.4478 16.7621 79.6518 16.1381C79.8678 15.5021 80.1798 14.9561 80.5878 14.5001C80.9958 14.0321 81.4938 13.6721 82.0818 13.4201C82.6698 13.1681 83.3358 13.0421 84.0798 13.0421C84.7998 13.0421 85.4418 13.1621 86.0058 13.4021C86.5698 13.6301 87.0378 13.9781 87.4098 14.4461C87.7938 14.9141 88.0698 15.4901 88.2378 16.1741C88.4178 16.8461 88.4838 17.6201 88.4358 18.4961L81.0198 18.5681V17.1461L86.9418 17.0921L86.0238 17.8121C86.1078 17.1761 86.0658 16.6541 85.8978 16.2461C85.7298 15.8381 85.4838 15.5381 85.1598 15.3461C84.8478 15.1541 84.4998 15.0581 84.1158 15.0581C83.6598 15.0581 83.2578 15.1781 82.9098 15.4181C82.5618 15.6581 82.2918 16.0121 82.0998 16.4801C81.9078 16.9361 81.8118 17.4881 81.8118 18.1361C81.8118 19.1561 82.0338 19.9061 82.4778 20.3861C82.9338 20.8661 83.5278 21.1061 84.2598 21.1061C84.5958 21.1061 84.8778 21.0641 85.1058 20.9801C85.3458 20.8841 85.5378 20.7641 85.6818 20.6201C85.8378 20.4761 85.9578 20.3141 86.0418 20.1341C86.1378 19.9541 86.2158 19.7741 86.2758 19.5941L88.5258 20.0801C88.4178 20.5241 88.2558 20.9261 88.0398 21.2861C87.8358 21.6341 87.5598 21.9401 87.2118 22.2041C86.8638 22.4561 86.4438 22.6481 85.9518 22.7801C85.4718 22.9241 84.9078 22.9961 84.2598 22.9961ZM93.3479 22.9961C92.5559 22.9961 91.8599 22.7921 91.2599 22.3841C90.6719 21.9761 90.2159 21.4001 89.8919 20.6561C89.5679 19.9121 89.4059 19.0301 89.4059 18.0101C89.4059 17.0501 89.5499 16.1981 89.8379 15.4541C90.1259 14.7101 90.5519 14.1281 91.1159 13.7081C91.6799 13.2881 92.3819 13.0781 93.2219 13.0781C93.8339 13.0781 94.3499 13.1921 94.7699 13.4201C95.1899 13.6481 95.5319 13.9841 95.7959 14.4281C96.0719 14.8601 96.2879 15.3821 96.4439 15.9941H96.8579C96.7739 15.6101 96.6959 15.2381 96.6239 14.8781C96.5639 14.5061 96.5159 14.1521 96.4799 13.8161C96.4439 13.4801 96.4259 13.1861 96.4259 12.9341V9.87414H99.0179V18.1001V22.7441H96.8579V20.0081H96.4979C96.3659 20.6801 96.1619 21.2381 95.8859 21.6821C95.6099 22.1261 95.2559 22.4561 94.8239 22.6721C94.4039 22.8881 93.9119 22.9961 93.3479 22.9961ZM94.2119 20.8721C94.6079 20.8721 94.9439 20.7881 95.2199 20.6201C95.4959 20.4521 95.7239 20.2361 95.9039 19.9721C96.0839 19.6961 96.2159 19.4021 96.2999 19.0901C96.3839 18.7661 96.4259 18.4661 96.4259 18.1901V17.8481C96.4259 17.6201 96.3899 17.3861 96.3179 17.1461C96.2579 16.8941 96.1679 16.6481 96.0479 16.4081C95.9279 16.1681 95.7779 15.9581 95.5979 15.7781C95.4179 15.5861 95.2079 15.4361 94.9679 15.3281C94.7279 15.2201 94.4639 15.1661 94.1759 15.1661C93.7439 15.1661 93.3779 15.2861 93.0779 15.5261C92.7779 15.7661 92.5439 16.1021 92.3759 16.5341C92.2079 16.9541 92.1239 17.4461 92.1239 18.0101C92.1239 18.5861 92.2079 19.0901 92.3759 19.5221C92.5559 19.9541 92.8019 20.2901 93.1139 20.5301C93.4259 20.7581 93.7919 20.8721 94.2119 20.8721ZM59.3923 38.9961C58.6123 38.9961 57.9103 38.9181 57.2863 38.7621C56.6743 38.6181 56.1463 38.3961 55.7023 38.0961C55.2703 37.7841 54.9283 37.4001 54.6763 36.9441C54.4363 36.4761 54.2983 35.9421 54.2623 35.3421L56.5303 34.6041C56.5543 35.1441 56.6863 35.5941 56.9263 35.9541C57.1783 36.3141 57.5323 36.5781 57.9883 36.7461C58.4443 36.9141 58.9543 36.9981 59.5183 36.9981C60.0583 36.9981 60.5143 36.9321 60.8863 36.8001C61.2583 36.6681 61.5403 36.4941 61.7323 36.2781C61.9243 36.0501 62.0203 35.8041 62.0203 35.5401C62.0203 35.2281 61.9003 34.9761 61.6603 34.7841C61.4203 34.5921 61.0903 34.4301 60.6703 34.2981C60.2623 34.1661 59.7943 34.0401 59.2663 33.9201C58.6783 33.7881 58.0963 33.6381 57.5203 33.4701C56.9563 33.3021 56.4403 33.0861 55.9723 32.8221C55.5163 32.5581 55.1503 32.2161 54.8743 31.7961C54.6103 31.3761 54.4783 30.8481 54.4783 30.2121C54.4783 29.4801 54.6583 28.8501 55.0183 28.3221C55.3903 27.7821 55.9303 27.3621 56.6383 27.0621C57.3463 26.7621 58.1983 26.6121 59.1943 26.6121C60.2023 26.6121 61.0603 26.7621 61.7683 27.0621C62.4883 27.3501 63.0463 27.7641 63.4423 28.3041C63.8383 28.8321 64.0543 29.4621 64.0903 30.1941L61.7503 30.8421C61.7503 30.4701 61.6903 30.1461 61.5703 29.8701C61.4503 29.5941 61.2823 29.3661 61.0663 29.1861C60.8503 28.9941 60.5803 28.8501 60.2563 28.7541C59.9443 28.6581 59.5843 28.6101 59.1763 28.6101C58.7083 28.6101 58.3003 28.6701 57.9523 28.7901C57.6163 28.9101 57.3583 29.0721 57.1783 29.2761C57.0103 29.4801 56.9263 29.7201 56.9263 29.9961C56.9263 30.3201 57.0583 30.5901 57.3223 30.8061C57.5983 31.0101 57.9583 31.1781 58.4023 31.3101C58.8583 31.4421 59.3563 31.5681 59.8963 31.6881C60.4123 31.7961 60.9343 31.9341 61.4623 32.1021C62.0023 32.2581 62.5003 32.4681 62.9563 32.7321C63.4243 32.9841 63.7963 33.3321 64.0723 33.7761C64.3603 34.2081 64.5043 34.7541 64.5043 35.4141C64.5043 36.1341 64.3123 36.7641 63.9283 37.3041C63.5443 37.8441 62.9683 38.2641 62.2003 38.5641C61.4443 38.8521 60.5083 38.9961 59.3923 38.9961ZM72.3945 41.7681V39.1221C72.3945 38.8221 72.4125 38.5161 72.4485 38.2041C72.4845 37.8801 72.5325 37.5501 72.5925 37.2141C72.6645 36.8781 72.7365 36.5421 72.8085 36.2061H72.4485C72.2805 36.7821 72.0585 37.2801 71.7825 37.7001C71.5065 38.1201 71.1585 38.4441 70.7385 38.6721C70.3185 38.8881 69.8025 38.9961 69.1905 38.9961C68.3505 38.9961 67.6485 38.7801 67.0845 38.3481C66.5205 37.9161 66.0945 37.3341 65.8065 36.6021C65.5185 35.8581 65.3745 35.0181 65.3745 34.0821C65.3745 33.0501 65.5305 32.1621 65.8425 31.4181C66.1665 30.6621 66.6285 30.0801 67.2285 29.6721C67.8285 29.2521 68.5425 29.0421 69.3705 29.0421C69.9465 29.0421 70.4505 29.1501 70.8825 29.3661C71.3145 29.5821 71.6685 29.9001 71.9445 30.3201C72.2205 30.7401 72.4065 31.2741 72.5025 31.9221H72.8625L72.8265 29.3121H74.9865V34.0101V41.7681H72.3945ZM70.1445 36.9261C70.4325 36.9261 70.6905 36.8721 70.9185 36.7641C71.1585 36.6441 71.3685 36.4941 71.5485 36.3141C71.7285 36.1221 71.8785 35.9121 71.9985 35.6841C72.1305 35.4561 72.2265 35.2161 72.2865 34.9641C72.3585 34.7121 72.3945 34.4721 72.3945 34.2441V33.9021C72.3945 33.6141 72.3465 33.3081 72.2505 32.9841C72.1665 32.6601 72.0345 32.3661 71.8545 32.1021C71.6865 31.8261 71.4645 31.6041 71.1885 31.4361C70.9125 31.2561 70.5765 31.1661 70.1805 31.1661C69.7605 31.1661 69.3945 31.2861 69.0825 31.5261C68.7705 31.7661 68.5245 32.1021 68.3445 32.5341C68.1765 32.9661 68.0925 33.4821 68.0925 34.0821C68.0925 34.6341 68.1765 35.1261 68.3445 35.5581C68.5125 35.9781 68.7465 36.3141 69.0465 36.5661C69.3465 36.8061 69.7125 36.9261 70.1445 36.9261ZM80.0386 38.9961C78.9346 38.9961 78.1006 38.6241 77.5366 37.8801C76.9846 37.1241 76.7086 35.9781 76.7086 34.4421V29.2941H79.3006V34.1181C79.3006 35.0421 79.4386 35.7321 79.7146 36.1881C79.9906 36.6321 80.4106 36.8541 80.9746 36.8541C81.3106 36.8541 81.6046 36.7701 81.8566 36.6021C82.1086 36.4341 82.3246 36.2001 82.5046 35.9001C82.6846 35.6001 82.8166 35.2461 82.9006 34.8381C82.9966 34.4301 83.0506 33.9921 83.0626 33.5241V29.2941H85.6546V34.8921V38.7441H83.5666L83.5486 35.7921H83.2246C83.0446 36.5361 82.8166 37.1481 82.5406 37.6281C82.2766 38.0961 81.9346 38.4441 81.5146 38.6721C81.1066 38.8881 80.6146 38.9961 80.0386 38.9961ZM89.7058 38.9961C89.1778 38.9961 88.7098 38.8941 88.3018 38.6901C87.8938 38.4741 87.5758 38.1681 87.3478 37.7721C87.1198 37.3761 87.0058 36.8841 87.0058 36.2961C87.0058 35.7801 87.1018 35.3481 87.2938 35.0001C87.4978 34.6521 87.7918 34.3701 88.1758 34.1541C88.5598 33.9381 89.0338 33.7581 89.5978 33.6141C90.1618 33.4701 90.8038 33.3441 91.5238 33.2361C91.9078 33.1761 92.2198 33.1221 92.4598 33.0741C92.7118 33.0141 92.8978 32.9241 93.0178 32.8041C93.1378 32.6721 93.1978 32.4861 93.1978 32.2461C93.1978 31.9101 93.0778 31.6221 92.8378 31.3821C92.5978 31.1421 92.2198 31.0221 91.7038 31.0221C91.3558 31.0221 91.0318 31.0821 90.7318 31.2021C90.4438 31.3221 90.1918 31.5021 89.9758 31.7421C89.7718 31.9821 89.6218 32.2881 89.5258 32.6601L87.2398 31.9581C87.3838 31.4661 87.5878 31.0401 87.8518 30.6801C88.1278 30.3201 88.4578 30.0201 88.8418 29.7801C89.2258 29.5281 89.6638 29.3421 90.1558 29.2221C90.6478 29.1021 91.1818 29.0421 91.7578 29.0421C92.6818 29.0421 93.4318 29.1921 94.0078 29.4921C94.5958 29.7801 95.0338 30.2361 95.3218 30.8601C95.6098 31.4721 95.7538 32.2641 95.7538 33.2361V34.8561C95.7538 35.2761 95.7598 35.7021 95.7718 36.1341C95.7958 36.5661 95.8198 37.0041 95.8438 37.4481C95.8798 37.8801 95.9158 38.3121 95.9518 38.7441H93.6658C93.6178 38.4441 93.5698 38.1021 93.5218 37.7181C93.4858 37.3221 93.4558 36.9261 93.4318 36.5301H93.1078C92.9398 36.9861 92.6998 37.4001 92.3878 37.7721C92.0758 38.1441 91.6918 38.4441 91.2358 38.6721C90.7918 38.8881 90.2818 38.9961 89.7058 38.9961ZM90.8038 37.1241C91.0318 37.1241 91.2598 37.0821 91.4878 36.9981C91.7278 36.9141 91.9558 36.8001 92.1718 36.6561C92.3998 36.5001 92.6038 36.3081 92.7838 36.0801C92.9758 35.8521 93.1318 35.5941 93.2518 35.3061L93.2158 33.7941L93.6298 33.8841C93.4138 34.0401 93.1618 34.1661 92.8738 34.2621C92.5858 34.3461 92.2858 34.4121 91.9738 34.4601C91.6738 34.5081 91.3738 34.5621 91.0738 34.6221C90.7738 34.6821 90.5038 34.7601 90.2638 34.8561C90.0358 34.9521 89.8498 35.0841 89.7058 35.2521C89.5738 35.4081 89.5078 35.6301 89.5078 35.9181C89.5078 36.2901 89.6278 36.5841 89.8678 36.8001C90.1078 37.0161 90.4198 37.1241 90.8038 37.1241ZM97.4811 38.7441V34.1721V29.2941H99.6231L99.6411 32.5161H99.9831C100.079 31.7121 100.241 31.0581 100.469 30.5541C100.709 30.0501 101.039 29.6781 101.459 29.4381C101.879 29.1981 102.401 29.0781 103.025 29.0781C103.133 29.0781 103.247 29.0841 103.367 29.0961C103.499 29.0961 103.649 29.1141 103.817 29.1501L103.709 31.9041C103.529 31.8201 103.331 31.7601 103.115 31.7241C102.899 31.6881 102.707 31.6701 102.539 31.6701C102.071 31.6701 101.669 31.7781 101.333 31.9941C100.997 32.2101 100.721 32.5221 100.505 32.9301C100.301 33.3261 100.163 33.8121 100.091 34.3881V38.7441H97.4811ZM109.103 38.9961C108.323 38.9961 107.627 38.8881 107.015 38.6721C106.415 38.4561 105.905 38.1441 105.485 37.7361C105.065 37.3281 104.741 36.8241 104.513 36.2241C104.297 35.6241 104.189 34.9461 104.189 34.1901C104.189 33.4461 104.291 32.7621 104.495 32.1381C104.711 31.5021 105.023 30.9561 105.431 30.5001C105.839 30.0321 106.337 29.6721 106.925 29.4201C107.513 29.1681 108.179 29.0421 108.923 29.0421C109.643 29.0421 110.285 29.1621 110.849 29.4021C111.413 29.6301 111.881 29.9781 112.253 30.4461C112.637 30.9141 112.913 31.4901 113.081 32.1741C113.261 32.8461 113.327 33.6201 113.279 34.4961L105.863 34.5681V33.1461L111.785 33.0921L110.867 33.8121C110.951 33.1761 110.909 32.6541 110.741 32.2461C110.573 31.8381 110.327 31.5381 110.003 31.3461C109.691 31.1541 109.343 31.0581 108.959 31.0581C108.503 31.0581 108.101 31.1781 107.753 31.4181C107.405 31.6581 107.135 32.0121 106.943 32.4801C106.751 32.9361 106.655 33.4881 106.655 34.1361C106.655 35.1561 106.877 35.9061 107.321 36.3861C107.777 36.8661 108.371 37.1061 109.103 37.1061C109.439 37.1061 109.721 37.0641 109.949 36.9801C110.189 36.8841 110.381 36.7641 110.525 36.6201C110.681 36.4761 110.801 36.3141 110.885 36.1341C110.981 35.9541 111.059 35.7741 111.119 35.5941L113.369 36.0801C113.261 36.5241 113.099 36.9261 112.883 37.2861C112.679 37.6341 112.403 37.9401 112.055 38.2041C111.707 38.4561 111.287 38.6481 110.795 38.7801C110.315 38.9241 109.751 38.9961 109.103 38.9961Z" fill="#353535"/>
</g>
</g>
<defs>
<filter id="filter0_d_3451_65" x="0.179688" y="0.181641" width="119.809" height="53.1289" filterUnits="userSpaceOnUse" color-interpolation-filters="sRGB">
<feFlood flood-opacity="0" result="BackgroundImageFix"/>
<feColorMatrix in="SourceAlpha" type="matrix" values="0 0 0 0 0 0 0 0 0 0 0 0 0 0 0 0 0 0 127 0" result="hardAlpha"/>
<feOffset dy="2"/>
<feGaussianBlur stdDeviation="2.25"/>
<feComposite in2="hardAlpha" operator="out"/>
<feColorMatrix type="matrix" values="0 0 0 0 0 0 0 0 0 0 0 0 0 0 0 0 0 0 0.07 0"/>
<feBlend mode="normal" in2="BackgroundImageFix" result="effect1_dropShadow_3451_65"/>
<feBlend mode="normal" in="SourceGraphic" in2="effect1_dropShadow_3451_65" result="shape"/>
</filter>
<filter id="filter1_ii_3451_65" x="3.67969" y="2.68164" width="45.1289" height="47.1289" filterUnits="userSpaceOnUse" color-interpolation-filters="sRGB">
<feFlood flood-opacity="0" result="BackgroundImageFix"/>
<feBlend mode="normal" in="SourceGraphic" in2="BackgroundImageFix" result="shape"/>
<feColorMatrix in="SourceAlpha" type="matrix" values="0 0 0 0 0 0 0 0 0 0 0 0 0 0 0 0 0 0 127 0" result="hardAlpha"/>
<feOffset dy="2"/>
<feGaussianBlur stdDeviation="0.65"/>
<feComposite in2="hardAlpha" operator="arithmetic" k2="-1" k3="1"/>
<feColorMatrix type="matrix" values="0 0 0 0 1 0 0 0 0 1 0 0 0 0 1 0 0 0 0.25 0"/>
<feBlend mode="normal" in2="shape" result="effect1_innerShadow_3451_65"/>
<feColorMatrix in="SourceAlpha" type="matrix" values="0 0 0 0 0 0 0 0 0 0 0 0 0 0 0 0 0 0 127 0" result="hardAlpha"/>
<feOffset dx="-1" dy="3"/>
<feGaussianBlur stdDeviation="1.75"/>
<feComposite in2="hardAlpha" operator="arithmetic" k2="-1" k3="1"/>
<feColorMatrix type="matrix" values="0 0 0 0 1 0 0 0 0 1 0 0 0 0 1 0 0 0 0.22 0"/>
<feBlend mode="normal" in2="effect1_innerShadow_3451_65" result="effect2_innerShadow_3451_65"/>
</filter>
<filter id="filter2_i_3451_65" x="53.8125" y="9.35156" width="60.0547" height="32.916" filterUnits="userSpaceOnUse" color-interpolation-filters="sRGB">
<feFlood flood-opacity="0" result="BackgroundImageFix"/>
<feBlend mode="normal" in="SourceGraphic" in2="BackgroundImageFix" result="shape"/>
<feColorMatrix in="SourceAlpha" type="matrix" values="0 0 0 0 0 0 0 0 0 0 0 0 0 0 0 0 0 0 127 0" result="hardAlpha"/>
<feOffset dx="0.5" dy="0.5"/>
<feGaussianBlur stdDeviation="0.6"/>
<feComposite in2="hardAlpha" operator="arithmetic" k2="-1" k3="1"/>
<feColorMatrix type="matrix" values="0 0 0 0 0 0 0 0 0 0 0 0 0 0 0 0 0 0 0.25 0"/>
<feBlend mode="normal" in2="shape" result="effect1_innerShadow_3451_65"/>
</filter>
</defs>
</svg>
