<svg width="110" height="46" viewBox="0 0 110 46" fill="none" xmlns="http://www.w3.org/2000/svg">
<g filter="url(#filter0_d_3451_65)">
<g filter="url(#filter1_ii_3451_65)">
<rect x="26.5742" y="3.48242" width="25.5162" height="25.5162" rx="1.5983" transform="rotate(58.851 26.5742 3.48242)" fill="#45008F"/>
</g>
<g filter="url(#filter2_i_3451_65)">
<path d="M49.3457 19V7.12H51.9377V19H49.3457ZM45.8357 9.298V7.12H55.4477V9.298H45.8357ZM56.4429 19V9.55H59.0349V19H56.4429ZM57.7569 8.128C57.2529 8.128 56.8629 8.026 56.5869 7.822C56.3229 7.606 56.1909 7.294 56.1909 6.886C56.1909 6.466 56.3229 6.148 56.5869 5.932C56.8629 5.716 57.2529 5.608 57.7569 5.608C58.2729 5.608 58.6629 5.716 58.9269 5.932C59.2029 6.148 59.3409 6.466 59.3409 6.886C59.3409 7.282 59.2029 7.588 58.9269 7.804C58.6629 8.02 58.2729 8.128 57.7569 8.128ZM60.8951 19V6.13H63.4511V19H60.8951ZM68.8397 19.216C67.7837 19.216 67.0037 18.94 66.4997 18.388C66.0077 17.824 65.7617 16.93 65.7617 15.706V11.584H64.3937L64.4297 9.55H65.3837C65.7557 9.55 66.0317 9.496 66.2117 9.388C66.3917 9.28 66.4997 9.082 66.5357 8.794L66.7697 7.444H68.2457V9.55H70.6397V11.656H68.2457V15.598C68.2457 16.03 68.3477 16.342 68.5517 16.534C68.7557 16.726 69.0677 16.822 69.4877 16.822C69.7157 16.822 69.9317 16.798 70.1357 16.75C70.3517 16.702 70.5377 16.624 70.6937 16.516V18.928C70.3217 19.048 69.9797 19.126 69.6677 19.162C69.3557 19.198 69.0797 19.216 68.8397 19.216ZM76.2833 19.252C75.5033 19.252 74.8073 19.144 74.1953 18.928C73.5953 18.712 73.0853 18.4 72.6653 17.992C72.2453 17.584 71.9213 17.08 71.6933 16.48C71.4773 15.88 71.3693 15.202 71.3693 14.446C71.3693 13.702 71.4713 13.018 71.6753 12.394C71.8913 11.758 72.2033 11.212 72.6113 10.756C73.0193 10.288 73.5173 9.928 74.1053 9.676C74.6933 9.424 75.3593 9.298 76.1033 9.298C76.8233 9.298 77.4653 9.418 78.0293 9.658C78.5933 9.886 79.0613 10.234 79.4333 10.702C79.8173 11.17 80.0933 11.746 80.2613 12.43C80.4413 13.102 80.5073 13.876 80.4593 14.752L73.0433 14.824V13.402L78.9653 13.348L78.0473 14.068C78.1313 13.432 78.0893 12.91 77.9213 12.502C77.7533 12.094 77.5073 11.794 77.1833 11.602C76.8713 11.41 76.5233 11.314 76.1393 11.314C75.6833 11.314 75.2813 11.434 74.9333 11.674C74.5853 11.914 74.3153 12.268 74.1233 12.736C73.9313 13.192 73.8353 13.744 73.8353 14.392C73.8353 15.412 74.0573 16.162 74.5013 16.642C74.9573 17.122 75.5513 17.362 76.2833 17.362C76.6193 17.362 76.9013 17.32 77.1293 17.236C77.3693 17.14 77.5613 17.02 77.7053 16.876C77.8613 16.732 77.9813 16.57 78.0653 16.39C78.1613 16.21 78.2393 16.03 78.2993 15.85L80.5493 16.336C80.4413 16.78 80.2793 17.182 80.0633 17.542C79.8593 17.89 79.5833 18.196 79.2353 18.46C78.8873 18.712 78.4673 18.904 77.9753 19.036C77.4953 19.18 76.9313 19.252 76.2833 19.252ZM85.3713 19.252C84.5793 19.252 83.8833 19.048 83.2833 18.64C82.6953 18.232 82.2393 17.656 81.9153 16.912C81.5913 16.168 81.4293 15.286 81.4293 14.266C81.4293 13.306 81.5733 12.454 81.8613 11.71C82.1493 10.966 82.5753 10.384 83.1393 9.964C83.7033 9.544 84.4053 9.334 85.2453 9.334C85.8573 9.334 86.3733 9.448 86.7933 9.676C87.2133 9.904 87.5553 10.24 87.8193 10.684C88.0953 11.116 88.3113 11.638 88.4673 12.25H88.8813C88.7973 11.866 88.7193 11.494 88.6473 11.134C88.5873 10.762 88.5393 10.408 88.5033 10.072C88.4673 9.736 88.4493 9.442 88.4493 9.19V6.13H91.0413V14.356V19H88.8813V16.264H88.5213C88.3893 16.936 88.1853 17.494 87.9093 17.938C87.6333 18.382 87.2793 18.712 86.8473 18.928C86.4273 19.144 85.9353 19.252 85.3713 19.252ZM86.2353 17.128C86.6313 17.128 86.9673 17.044 87.2433 16.876C87.5193 16.708 87.7473 16.492 87.9273 16.228C88.1073 15.952 88.2393 15.658 88.3233 15.346C88.4073 15.022 88.4493 14.722 88.4493 14.446V14.104C88.4493 13.876 88.4133 13.642 88.3413 13.402C88.2813 13.15 88.1913 12.904 88.0713 12.664C87.9513 12.424 87.8013 12.214 87.6213 12.034C87.4413 11.842 87.2313 11.692 86.9913 11.584C86.7513 11.476 86.4873 11.422 86.1993 11.422C85.7673 11.422 85.4013 11.542 85.1013 11.782C84.8013 12.022 84.5673 12.358 84.3993 12.79C84.2313 13.21 84.1473 13.702 84.1473 14.266C84.1473 14.842 84.2313 15.346 84.3993 15.778C84.5793 16.21 84.8253 16.546 85.1373 16.786C85.4493 17.014 85.8153 17.128 86.2353 17.128ZM51.4157 35.252C50.6357 35.252 49.9337 35.174 49.3097 35.018C48.6977 34.874 48.1697 34.652 47.7257 34.352C47.2937 34.04 46.9517 33.656 46.6997 33.2C46.4597 32.732 46.3217 32.198 46.2857 31.598L48.5537 30.86C48.5777 31.4 48.7097 31.85 48.9497 32.21C49.2017 32.57 49.5557 32.834 50.0117 33.002C50.4677 33.17 50.9777 33.254 51.5417 33.254C52.0817 33.254 52.5377 33.188 52.9097 33.056C53.2817 32.924 53.5637 32.75 53.7557 32.534C53.9477 32.306 54.0437 32.06 54.0437 31.796C54.0437 31.484 53.9237 31.232 53.6837 31.04C53.4437 30.848 53.1137 30.686 52.6937 30.554C52.2857 30.422 51.8177 30.296 51.2897 30.176C50.7017 30.044 50.1197 29.894 49.5437 29.726C48.9797 29.558 48.4637 29.342 47.9957 29.078C47.5397 28.814 47.1737 28.472 46.8977 28.052C46.6337 27.632 46.5017 27.104 46.5017 26.468C46.5017 25.736 46.6817 25.106 47.0417 24.578C47.4137 24.038 47.9537 23.618 48.6617 23.318C49.3697 23.018 50.2217 22.868 51.2177 22.868C52.2257 22.868 53.0837 23.018 53.7917 23.318C54.5117 23.606 55.0697 24.02 55.4657 24.56C55.8617 25.088 56.0777 25.718 56.1137 26.45L53.7737 27.098C53.7737 26.726 53.7137 26.402 53.5937 26.126C53.4737 25.85 53.3057 25.622 53.0897 25.442C52.8737 25.25 52.6037 25.106 52.2797 25.01C51.9677 24.914 51.6077 24.866 51.1997 24.866C50.7317 24.866 50.3237 24.926 49.9757 25.046C49.6397 25.166 49.3817 25.328 49.2017 25.532C49.0337 25.736 48.9497 25.976 48.9497 26.252C48.9497 26.576 49.0817 26.846 49.3457 27.062C49.6217 27.266 49.9817 27.434 50.4257 27.566C50.8817 27.698 51.3797 27.824 51.9197 27.944C52.4357 28.052 52.9577 28.19 53.4857 28.358C54.0257 28.514 54.5237 28.724 54.9797 28.988C55.4477 29.24 55.8197 29.588 56.0957 30.032C56.3837 30.464 56.5277 31.01 56.5277 31.67C56.5277 32.39 56.3357 33.02 55.9517 33.56C55.5677 34.1 54.9917 34.52 54.2237 34.82C53.4677 35.108 52.5317 35.252 51.4157 35.252ZM64.4179 38.024V35.378C64.4179 35.078 64.4359 34.772 64.4719 34.46C64.5079 34.136 64.5559 33.806 64.6159 33.47C64.6879 33.134 64.7599 32.798 64.8319 32.462H64.4719C64.3039 33.038 64.0819 33.536 63.8059 33.956C63.5299 34.376 63.1819 34.7 62.7619 34.928C62.3419 35.144 61.8259 35.252 61.2139 35.252C60.3739 35.252 59.6719 35.036 59.1079 34.604C58.5439 34.172 58.1179 33.59 57.8299 32.858C57.5419 32.114 57.3979 31.274 57.3979 30.338C57.3979 29.306 57.5539 28.418 57.8659 27.674C58.1899 26.918 58.6519 26.336 59.2519 25.928C59.8519 25.508 60.5659 25.298 61.3939 25.298C61.9699 25.298 62.4739 25.406 62.9059 25.622C63.3379 25.838 63.6919 26.156 63.9679 26.576C64.2439 26.996 64.4299 27.53 64.5259 28.178H64.8859L64.8499 25.568H67.0099V30.266V38.024H64.4179ZM62.1679 33.182C62.4559 33.182 62.7139 33.128 62.9419 33.02C63.1819 32.9 63.3919 32.75 63.5719 32.57C63.7519 32.378 63.9019 32.168 64.0219 31.94C64.1539 31.712 64.2499 31.472 64.3099 31.22C64.3819 30.968 64.4179 30.728 64.4179 30.5V30.158C64.4179 29.87 64.3699 29.564 64.2739 29.24C64.1899 28.916 64.0579 28.622 63.8779 28.358C63.7099 28.082 63.4879 27.86 63.2119 27.692C62.9359 27.512 62.5999 27.422 62.2039 27.422C61.7839 27.422 61.4179 27.542 61.1059 27.782C60.7939 28.022 60.5479 28.358 60.3679 28.79C60.1999 29.222 60.1159 29.738 60.1159 30.338C60.1159 30.89 60.1999 31.382 60.3679 31.814C60.5359 32.234 60.7699 32.57 61.0699 32.822C61.3699 33.062 61.7359 33.182 62.1679 33.182ZM72.062 35.252C70.958 35.252 70.124 34.88 69.56 34.136C69.008 33.38 68.732 32.234 68.732 30.698V25.55H71.324V30.374C71.324 31.298 71.462 31.988 71.738 32.444C72.014 32.888 72.434 33.11 72.998 33.11C73.334 33.11 73.628 33.026 73.88 32.858C74.132 32.69 74.348 32.456 74.528 32.156C74.708 31.856 74.84 31.502 74.924 31.094C75.02 30.686 75.074 30.248 75.086 29.78V25.55H77.678V31.148V35H75.59L75.572 32.048H75.248C75.068 32.792 74.84 33.404 74.564 33.884C74.3 34.352 73.958 34.7 73.538 34.928C73.13 35.144 72.638 35.252 72.062 35.252ZM81.7293 35.252C81.2013 35.252 80.7333 35.15 80.3253 34.946C79.9173 34.73 79.5993 34.424 79.3713 34.028C79.1433 33.632 79.0293 33.14 79.0293 32.552C79.0293 32.036 79.1253 31.604 79.3173 31.256C79.5213 30.908 79.8153 30.626 80.1993 30.41C80.5833 30.194 81.0573 30.014 81.6213 29.87C82.1853 29.726 82.8273 29.6 83.5473 29.492C83.9313 29.432 84.2433 29.378 84.4833 29.33C84.7353 29.27 84.9213 29.18 85.0413 29.06C85.1613 28.928 85.2213 28.742 85.2213 28.502C85.2213 28.166 85.1013 27.878 84.8613 27.638C84.6213 27.398 84.2433 27.278 83.7273 27.278C83.3793 27.278 83.0553 27.338 82.7553 27.458C82.4673 27.578 82.2153 27.758 81.9993 27.998C81.7953 28.238 81.6453 28.544 81.5493 28.916L79.2633 28.214C79.4073 27.722 79.6113 27.296 79.8753 26.936C80.1513 26.576 80.4813 26.276 80.8653 26.036C81.2493 25.784 81.6873 25.598 82.1793 25.478C82.6713 25.358 83.2053 25.298 83.7813 25.298C84.7053 25.298 85.4553 25.448 86.0313 25.748C86.6193 26.036 87.0573 26.492 87.3453 27.116C87.6333 27.728 87.7773 28.52 87.7773 29.492V31.112C87.7773 31.532 87.7833 31.958 87.7953 32.39C87.8193 32.822 87.8433 33.26 87.8673 33.704C87.9033 34.136 87.9393 34.568 87.9753 35H85.6893C85.6413 34.7 85.5933 34.358 85.5453 33.974C85.5093 33.578 85.4793 33.182 85.4553 32.786H85.1313C84.9633 33.242 84.7233 33.656 84.4113 34.028C84.0993 34.4 83.7153 34.7 83.2593 34.928C82.8153 35.144 82.3053 35.252 81.7293 35.252ZM82.8273 33.38C83.0553 33.38 83.2833 33.338 83.5113 33.254C83.7513 33.17 83.9793 33.056 84.1953 32.912C84.4233 32.756 84.6273 32.564 84.8073 32.336C84.9993 32.108 85.1553 31.85 85.2753 31.562L85.2393 30.05L85.6533 30.14C85.4373 30.296 85.1853 30.422 84.8973 30.518C84.6093 30.602 84.3093 30.668 83.9973 30.716C83.6973 30.764 83.3973 30.818 83.0973 30.878C82.7973 30.938 82.5273 31.016 82.2873 31.112C82.0593 31.208 81.8733 31.34 81.7293 31.508C81.5973 31.664 81.5313 31.886 81.5313 32.174C81.5313 32.546 81.6513 32.84 81.8913 33.056C82.1313 33.272 82.4433 33.38 82.8273 33.38ZM89.5046 35V30.428V25.55H91.6466L91.6646 28.772H92.0066C92.1026 27.968 92.2646 27.314 92.4926 26.81C92.7326 26.306 93.0626 25.934 93.4826 25.694C93.9026 25.454 94.4246 25.334 95.0486 25.334C95.1566 25.334 95.2706 25.34 95.3906 25.352C95.5226 25.352 95.6726 25.37 95.8406 25.406L95.7326 28.16C95.5526 28.076 95.3546 28.016 95.1386 27.98C94.9226 27.944 94.7306 27.926 94.5626 27.926C94.0946 27.926 93.6926 28.034 93.3566 28.25C93.0206 28.466 92.7446 28.778 92.5286 29.186C92.3246 29.582 92.1866 30.068 92.1146 30.644V35H89.5046ZM101.126 35.252C100.346 35.252 99.6501 35.144 99.0381 34.928C98.4381 34.712 97.9281 34.4 97.5081 33.992C97.0881 33.584 96.7641 33.08 96.5361 32.48C96.3201 31.88 96.2121 31.202 96.2121 30.446C96.2121 29.702 96.3141 29.018 96.5181 28.394C96.7341 27.758 97.0461 27.212 97.4541 26.756C97.8621 26.288 98.3601 25.928 98.9481 25.676C99.5361 25.424 100.202 25.298 100.946 25.298C101.666 25.298 102.308 25.418 102.872 25.658C103.436 25.886 103.904 26.234 104.276 26.702C104.66 27.17 104.936 27.746 105.104 28.43C105.284 29.102 105.35 29.876 105.302 30.752L97.8861 30.824V29.402L103.808 29.348L102.89 30.068C102.974 29.432 102.932 28.91 102.764 28.502C102.596 28.094 102.35 27.794 102.026 27.602C101.714 27.41 101.366 27.314 100.982 27.314C100.526 27.314 100.124 27.434 99.7761 27.674C99.4281 27.914 99.1581 28.268 98.9661 28.736C98.7741 29.192 98.6781 29.744 98.6781 30.392C98.6781 31.412 98.9001 32.162 99.3441 32.642C99.8001 33.122 100.394 33.362 101.126 33.362C101.462 33.362 101.744 33.32 101.972 33.236C102.212 33.14 102.404 33.02 102.548 32.876C102.704 32.732 102.824 32.57 102.908 32.39C103.004 32.21 103.082 32.03 103.142 31.85L105.392 32.336C105.284 32.78 105.122 33.182 104.906 33.542C104.702 33.89 104.426 34.196 104.078 34.46C103.73 34.712 103.31 34.904 102.818 35.036C102.338 35.18 101.774 35.252 101.126 35.252Z" fill="#353535"/>
</g>
</g>
<defs>
<filter id="filter0_d_3451_65" x="0.238281" y="0.982422" width="111.773" height="44.0352" filterUnits="userSpaceOnUse" color-interpolation-filters="sRGB">
<feFlood flood-opacity="0" result="BackgroundImageFix"/>
<feColorMatrix in="SourceAlpha" type="matrix" values="0 0 0 0 0 0 0 0 0 0 0 0 0 0 0 0 0 0 127 0" result="hardAlpha"/>
<feOffset dy="2"/>
<feGaussianBlur stdDeviation="2.25"/>
<feComposite in2="hardAlpha" operator="out"/>
<feColorMatrix type="matrix" values="0 0 0 0 0 0 0 0 0 0 0 0 0 0 0 0 0 0 0.07 0"/>
<feBlend mode="normal" in2="BackgroundImageFix" result="effect1_dropShadow_3451_65"/>
<feBlend mode="normal" in="SourceGraphic" in2="effect1_dropShadow_3451_65" result="shape"/>
</filter>
<filter id="filter1_ii_3451_65" x="3.93913" y="3.48242" width="35.8343" height="37.4326" filterUnits="userSpaceOnUse" color-interpolation-filters="sRGB">
<feFlood flood-opacity="0" result="BackgroundImageFix"/>
<feBlend mode="normal" in="SourceGraphic" in2="BackgroundImageFix" result="shape"/>
<feColorMatrix in="SourceAlpha" type="matrix" values="0 0 0 0 0 0 0 0 0 0 0 0 0 0 0 0 0 0 127 0" result="hardAlpha"/>
<feOffset dy="1.5983"/>
<feGaussianBlur stdDeviation="0.519448"/>
<feComposite in2="hardAlpha" operator="arithmetic" k2="-1" k3="1"/>
<feColorMatrix type="matrix" values="0 0 0 0 1 0 0 0 0 1 0 0 0 0 1 0 0 0 0.25 0"/>
<feBlend mode="normal" in2="shape" result="effect1_innerShadow_3451_65"/>
<feColorMatrix in="SourceAlpha" type="matrix" values="0 0 0 0 0 0 0 0 0 0 0 0 0 0 0 0 0 0 127 0" result="hardAlpha"/>
<feOffset dx="-0.799151" dy="2.39745"/>
<feGaussianBlur stdDeviation="1.39851"/>
<feComposite in2="hardAlpha" operator="arithmetic" k2="-1" k3="1"/>
<feColorMatrix type="matrix" values="0 0 0 0 1 0 0 0 0 1 0 0 0 0 1 0 0 0 0.22 0"/>
<feBlend mode="normal" in2="effect1_innerShadow_3451_65" result="effect2_innerShadow_3451_65"/>
</filter>
<filter id="filter2_i_3451_65" x="45.8359" y="5.60742" width="60.0547" height="32.916" filterUnits="userSpaceOnUse" color-interpolation-filters="sRGB">
<feFlood flood-opacity="0" result="BackgroundImageFix"/>
<feBlend mode="normal" in="SourceGraphic" in2="BackgroundImageFix" result="shape"/>
<feColorMatrix in="SourceAlpha" type="matrix" values="0 0 0 0 0 0 0 0 0 0 0 0 0 0 0 0 0 0 127 0" result="hardAlpha"/>
<feOffset dx="0.5" dy="0.5"/>
<feGaussianBlur stdDeviation="0.6"/>
<feComposite in2="hardAlpha" operator="arithmetic" k2="-1" k3="1"/>
<feColorMatrix type="matrix" values="0 0 0 0 0 0 0 0 0 0 0 0 0 0 0 0 0 0 0.25 0"/>
<feBlend mode="normal" in2="shape" result="effect1_innerShadow_3451_65"/>
</filter>
</defs>
</svg>
