<svg width="1230" height="420" viewBox="0 0 123 42" fill="none" xmlns="http://www.w3.org/2000/svg">
<g filter="url(#filter0_d_3451_96)">
<g clip-path="url(#clip0_3451_96)">
<path d="M39 36H5V2H39V36ZM16.8047 8C16.548 8 16.2354 8.13394 15.8672 8.40137C15.4989 8.66881 15.3145 8.8692 15.3145 9.00293C14.6002 17.3453 13.4954 24.011 12 29H19.8008C20.0575 29 20.3646 28.8607 20.7217 28.583C21.0786 28.3054 21.2568 28.0995 21.2568 27.9658C21.8818 20.8785 22.9876 14.2233 24.5723 8H16.8047ZM31 20.1123C30.6094 20.1123 30.1797 20.2312 29.7109 20.4678C29.2424 20.7043 28.9242 20.9713 28.7568 21.2695C27.9422 22.761 26.949 24.1959 25.7773 25.5742C24.6055 26.9423 23.3554 28.0845 22.0273 29H28.4727C28.6623 28.9998 28.9079 28.8659 29.209 28.5986C29.5101 28.3314 29.7111 28.0899 29.8115 27.874C30.057 27.1025 30.4532 24.515 31 20.1123Z" fill="#45008F"/>
</g>
<g filter="url(#filter1_i_3451_96)">
<path d="M45.5357 25.9648V11.4448H48.7037V25.9648H45.5357ZM46.1957 25.9648V23.3028H54.8417V25.9648H46.1957ZM55.8721 25.9648V14.4148H59.0401V25.9648H55.8721ZM57.4781 12.6768C56.8621 12.6768 56.3854 12.5522 56.0481 12.3028C55.7254 12.0388 55.5641 11.6575 55.5641 11.1588C55.5641 10.6455 55.7254 10.2568 56.0481 9.99284C56.3854 9.72884 56.8621 9.59684 57.4781 9.59684C58.1087 9.59684 58.5854 9.72884 58.9081 9.99284C59.2454 10.2568 59.4141 10.6455 59.4141 11.1588C59.4141 11.6428 59.2454 12.0168 58.9081 12.2808C58.5854 12.5448 58.1087 12.6768 57.4781 12.6768ZM62.1936 25.9648V18.5728H60.3676V16.2408L63.4476 16.3728V15.9548C62.9343 15.8375 62.509 15.6542 62.1716 15.4048C61.849 15.1408 61.6143 14.8255 61.4676 14.4588C61.321 14.0922 61.2476 13.7035 61.2476 13.2928C61.2476 12.6622 61.409 12.1195 61.7316 11.6648C62.0543 11.1955 62.509 10.8362 63.0956 10.5868C63.6823 10.3228 64.3716 10.1908 65.1636 10.1908C65.8383 10.1908 66.447 10.2788 66.9896 10.4548C67.547 10.6162 67.9943 10.8215 68.3316 11.0708L68.1336 13.9308C67.7816 13.6815 67.3856 13.4762 66.9456 13.3148C66.5056 13.1535 66.0876 13.0728 65.6916 13.0728C65.2516 13.0728 64.885 13.1902 64.5916 13.4248C64.313 13.6595 64.1736 14.0408 64.1736 14.5688C64.1736 14.9355 64.247 15.2288 64.3936 15.4488C64.555 15.6542 64.7456 15.8082 64.9656 15.9108C65.2003 15.9988 65.4276 16.0575 65.6476 16.0868H68.2876V18.5728H65.2736V25.9648H62.1936ZM73.8188 29.9688C73.2321 29.9688 72.6308 29.9102 72.0148 29.7928C71.4134 29.6902 70.8414 29.5215 70.2988 29.2868C69.7708 29.0668 69.3161 28.7808 68.9348 28.4288L69.8368 25.7228C70.3061 26.2068 70.8928 26.5662 71.5968 26.8008C72.3008 27.0502 72.9974 27.1748 73.6868 27.1748C74.4641 27.1748 75.1094 27.0135 75.6228 26.6908C76.1508 26.3828 76.5468 25.9062 76.8108 25.2608C77.0894 24.6008 77.2508 23.7795 77.2948 22.7968L77.4268 20.7948H76.9428C76.7961 21.7628 76.5541 22.5548 76.2168 23.1708C75.8941 23.7868 75.4761 24.2415 74.9628 24.5348C74.4641 24.8135 73.8701 24.9528 73.1808 24.9528C72.3448 24.9528 71.6408 24.7402 71.0688 24.3148C70.4968 23.8895 70.0641 23.2515 69.7708 22.4008C69.4921 21.5502 69.3528 20.5015 69.3528 19.2548V14.4148H72.5208V18.4848C72.5208 19.8488 72.6748 20.8315 72.9828 21.4328C73.2908 22.0342 73.7601 22.3348 74.3908 22.3348C74.7281 22.3348 75.0361 22.2468 75.3148 22.0708C75.5934 21.8802 75.8281 21.6088 76.0188 21.2568C76.2241 20.9048 76.3781 20.4795 76.4808 19.9808C76.5981 19.4675 76.6568 18.8882 76.6568 18.2428V14.4148H79.8248V22.9068C79.8248 23.8308 79.7441 24.6742 79.5828 25.4368C79.4214 26.1848 79.1794 26.8375 78.8568 27.3948C78.5488 27.9668 78.1528 28.4435 77.6688 28.8248C77.1848 29.2062 76.6201 29.4922 75.9748 29.6828C75.3441 29.8735 74.6254 29.9688 73.8188 29.9688ZM82.0151 25.9648V18.9688V14.4148H84.6111L84.5891 17.8688H85.0291C85.2198 17.0328 85.4911 16.3362 85.8431 15.7788C86.1951 15.2215 86.6351 14.8035 87.1631 14.5248C87.7058 14.2462 88.3438 14.1068 89.0771 14.1068C90.4118 14.1068 91.4238 14.5762 92.1131 15.5148C92.8171 16.4535 93.1691 17.9275 93.1691 19.9368V25.9648H89.9791V20.2888C89.9791 19.0568 89.7958 18.1622 89.4291 17.6048C89.0771 17.0328 88.5565 16.7468 87.8671 16.7468C87.2805 16.7468 86.7891 16.9302 86.3931 17.2968C85.9971 17.6635 85.6965 18.1475 85.4911 18.7488C85.3005 19.3355 85.1978 19.9955 85.1831 20.7288V25.9648H82.0151ZM100.602 26.2728C99.6487 26.2728 98.798 26.1408 98.05 25.8768C97.3167 25.6128 96.6934 25.2315 96.18 24.7328C95.6667 24.2342 95.2707 23.6182 94.992 22.8848C94.728 22.1515 94.596 21.3228 94.596 20.3988C94.596 19.4895 94.7207 18.6535 94.97 17.8908C95.234 17.1135 95.6154 16.4462 96.114 15.8888C96.6127 15.3168 97.2214 14.8768 97.94 14.5688C98.6587 14.2608 99.4727 14.1068 100.382 14.1068C101.262 14.1068 102.047 14.2535 102.736 14.5468C103.425 14.8255 103.997 15.2508 104.452 15.8228C104.921 16.3948 105.259 17.0988 105.464 17.9348C105.684 18.7562 105.765 19.7022 105.706 20.7728L96.642 20.8608V19.1228L103.88 19.0568L102.758 19.9368C102.861 19.1595 102.809 18.5215 102.604 18.0228C102.399 17.5242 102.098 17.1575 101.702 16.9228C101.321 16.6882 100.895 16.5708 100.426 16.5708C99.8687 16.5708 99.3774 16.7175 98.952 17.0108C98.5267 17.3042 98.1967 17.7368 97.962 18.3088C97.7274 18.8662 97.61 19.5408 97.61 20.3328C97.61 21.5795 97.8814 22.4962 98.424 23.0828C98.9814 23.6695 99.7074 23.9628 100.602 23.9628C101.013 23.9628 101.357 23.9115 101.636 23.8088C101.929 23.6915 102.164 23.5448 102.34 23.3688C102.531 23.1928 102.677 22.9948 102.78 22.7748C102.897 22.5548 102.993 22.3348 103.066 22.1148L105.816 22.7088C105.684 23.2515 105.486 23.7428 105.222 24.1828C104.973 24.6082 104.635 24.9822 104.21 25.3048C103.785 25.6128 103.271 25.8475 102.67 26.0088C102.083 26.1848 101.394 26.2728 100.602 26.2728ZM105.848 25.9648L109.676 20.1788L105.848 14.4148H109.5L111.612 18.7708H111.986L114.098 14.4148H117.728L113.9 20.1788L117.772 25.9648H114.142L111.986 21.5868H111.612L109.5 25.9648H105.848Z" fill="#353535"/>
</g>
</g>
<defs>
<filter id="filter0_d_3451_96" x="0.5" y="0.5" width="122.93" height="40.9297" filterUnits="userSpaceOnUse" color-interpolation-filters="sRGB">
<feFlood flood-opacity="0" result="BackgroundImageFix"/>
<feColorMatrix in="SourceAlpha" type="matrix" values="0 0 0 0 0 0 0 0 0 0 0 0 0 0 0 0 0 0 127 0" result="hardAlpha"/>
<feOffset dy="2"/>
<feGaussianBlur stdDeviation="2.25"/>
<feComposite in2="hardAlpha" operator="out"/>
<feColorMatrix type="matrix" values="0 0 0 0 0 0 0 0 0 0 0 0 0 0 0 0 0 0 0.07 0"/>
<feBlend mode="normal" in2="BackgroundImageFix" result="effect1_dropShadow_3451_96"/>
<feBlend mode="normal" in="SourceGraphic" in2="effect1_dropShadow_3451_96" result="shape"/>
</filter>
<filter id="filter1_i_3451_96" x="45.5352" y="9.59766" width="72.7383" height="20.8711" filterUnits="userSpaceOnUse" color-interpolation-filters="sRGB">
<feFlood flood-opacity="0" result="BackgroundImageFix"/>
<feBlend mode="normal" in="SourceGraphic" in2="BackgroundImageFix" result="shape"/>
<feColorMatrix in="SourceAlpha" type="matrix" values="0 0 0 0 0 0 0 0 0 0 0 0 0 0 0 0 0 0 127 0" result="hardAlpha"/>
<feOffset dx="0.5" dy="0.5"/>
<feGaussianBlur stdDeviation="0.6"/>
<feComposite in2="hardAlpha" operator="arithmetic" k2="-1" k3="1"/>
<feColorMatrix type="matrix" values="0 0 0 0 0 0 0 0 0 0 0 0 0 0 0 0 0 0 0.25 0"/>
<feBlend mode="normal" in2="shape" result="effect1_innerShadow_3451_96"/>
</filter>
<clipPath id="clip0_3451_96">
<rect x="5" y="3" width="31.9291" height="31.9291" rx="15.9646" fill="white"/>
</clipPath>
</defs>
</svg>
