<svg width="1220" height="420" viewBox="0 0 1220 420" fill="none" xmlns="http://www.w3.org/2000/svg">
<g filter="url(#filter0_d_3451_87)">
<g filter="url(#filter1_ii_3451_87)">
<g clip-path="url(#clip0_3451_87)">
<g filter="url(#filter2_ii_3451_87)">
<path d="M18.9668 12.8574C19.5317 12.8574 19.9827 13.05 20.3193 13.4346C20.668 13.8193 20.9329 14.3185 21.1133 14.9316C21.2936 15.5327 21.4135 16.1761 21.4736 16.8613C21.5458 17.5466 21.582 18.1964 21.582 18.8096C21.582 19.3024 21.5458 19.8436 21.4736 20.4326C21.4015 21.0215 21.2815 21.6104 21.1133 22.1992C20.945 22.7883 20.7163 23.3303 20.4277 23.8232C20.1392 24.3161 19.784 24.7122 19.3633 25.0127C18.9545 25.3133 18.4619 25.4639 17.8848 25.4639C17.3678 25.4639 16.9225 25.3012 16.5498 24.9766C16.1893 24.64 15.8646 24.201 15.5762 23.6602C15.2997 23.1072 15.0412 22.5 14.8008 21.8389C14.5603 21.1777 14.3074 20.5167 14.043 19.8555C14.055 20.6849 14.055 21.4483 14.043 22.1455C14.0309 22.8308 13.965 23.4201 13.8447 23.9131C13.7365 24.4059 13.5441 24.7909 13.2676 25.0674C12.9911 25.3316 12.5947 25.4638 12.0781 25.4639C11.7054 25.4639 11.3745 25.3133 11.0859 25.0127C10.8096 24.7122 10.5751 24.3159 10.3828 23.8232C10.2025 23.3303 10.0519 22.7883 9.93164 22.1992C9.8235 21.6103 9.74535 21.0215 9.69727 20.4326C9.64919 19.8316 9.62501 19.2904 9.625 18.8096C9.625 18.1964 9.67335 17.5466 9.76953 16.8613C9.86572 16.1761 10.034 15.5327 10.2744 14.9316C10.5149 14.3186 10.8459 13.8193 11.2666 13.4346C11.6873 13.0501 12.2286 12.8574 12.8896 12.8574C13.3462 12.8575 13.7426 13.0083 14.0791 13.3086C14.4278 13.5971 14.7411 14.0061 15.0176 14.5352C15.294 15.052 15.5581 15.6472 15.8105 16.3203C16.063 16.9936 16.3335 17.7094 16.6221 18.4668C16.574 17.4329 16.6047 16.4949 16.7129 15.6533C16.8331 14.7997 17.0729 14.1202 17.4336 13.6152C17.7943 13.1103 18.3055 12.8574 18.9668 12.8574ZM27.4316 12.8398C28.5016 12.8399 29.4396 13.0378 30.2451 13.4346C31.0506 13.8193 31.6753 14.3492 32.1201 15.0225C32.5769 15.6957 32.8057 16.4469 32.8057 17.2764C32.8057 17.6009 32.7396 17.9134 32.6074 18.2139C32.4872 18.5024 32.2948 18.7432 32.0303 18.9355C31.7778 19.1279 31.4469 19.2236 31.0381 19.2236C30.6535 19.2236 30.3466 19.1642 30.1182 19.0439C29.902 18.9238 29.7158 18.7795 29.5596 18.6113C29.4153 18.431 29.2647 18.2497 29.1084 18.0693C28.9522 17.8892 28.7595 17.7393 28.5312 17.6191C28.3028 17.499 27.9904 17.4385 27.5938 17.4385C27.221 17.4385 26.878 17.5352 26.5654 17.7275C26.2531 17.9198 26.0009 18.1841 25.8086 18.5205C25.6283 18.8451 25.5381 19.2179 25.5381 19.6387C25.5381 20.2639 25.6998 20.8114 26.0244 21.2803C26.361 21.7491 26.8362 21.9833 27.4492 21.9834C27.9301 21.9834 28.3094 21.9109 28.5859 21.7666C28.8741 21.6225 29.1144 21.4604 29.3066 21.2803C29.5109 21.088 29.7277 20.9196 29.9561 20.7754C30.1965 20.6311 30.5033 20.5586 30.876 20.5586C31.405 20.5586 31.8019 20.7334 32.0664 21.082C32.3427 21.4306 32.4573 21.8575 32.4092 22.3623C32.361 22.8792 32.1323 23.372 31.7236 23.8408C31.3269 24.3097 30.7859 24.6945 30.1006 24.9951C29.4274 25.2836 28.6519 25.4277 27.7744 25.4277C26.6322 25.4277 25.5921 25.1991 24.6543 24.7422C23.7166 24.2733 22.971 23.5705 22.418 22.6328C21.865 21.6951 21.5879 20.5227 21.5879 19.1162C21.5879 18.2866 21.7329 17.4984 22.0215 16.7529C22.31 15.9957 22.7126 15.3224 23.2295 14.7334C23.7585 14.1443 24.3776 13.6814 25.0869 13.3447C25.7963 13.0081 26.578 12.8398 27.4316 12.8398Z" fill="#45008F"/>
</g>
</g>
</g>
<path d="M36 3C36.5523 3 37 3.44772 37 4V34C37 34.5523 36.5523 35 36 35H6C5.44772 35 5 34.5523 5 34V4C5 3.44772 5.44772 3 6 3H36ZM12 5C9.23858 5 7 7.23858 7 10V28C7 30.7614 9.23858 33 12 33H30C32.7614 33 35 30.7614 35 28V10C35 7.23858 32.7614 5 30 5H12Z" fill="#511196"/>
<g filter="url(#filter3_i_3451_87)">
<path d="M45.5357 25.9648V11.4448H49.6717L56.2497 21.7188H56.4917L56.2937 11.4448H59.3737V25.9648H55.6337L48.6817 15.2068H48.4397L48.6377 25.9648H45.5357ZM67.1483 26.2728C66.1949 26.2728 65.3443 26.1408 64.5963 25.8768C63.8629 25.6128 63.2396 25.2315 62.7263 24.7328C62.2129 24.2342 61.8169 23.6182 61.5383 22.8848C61.2743 22.1515 61.1423 21.3228 61.1423 20.3988C61.1423 19.4895 61.2669 18.6535 61.5163 17.8908C61.7803 17.1135 62.1616 16.4462 62.6603 15.8888C63.1589 15.3168 63.7676 14.8768 64.4863 14.5688C65.2049 14.2608 66.0189 14.1068 66.9283 14.1068C67.8083 14.1068 68.5929 14.2535 69.2823 14.5468C69.9716 14.8255 70.5436 15.2508 70.9983 15.8228C71.4676 16.3948 71.8049 17.0988 72.0103 17.9348C72.2303 18.7562 72.3109 19.7022 72.2523 20.7728L63.1883 20.8608V19.1228L70.4263 19.0568L69.3043 19.9368C69.4069 19.1595 69.3556 18.5215 69.1503 18.0228C68.9449 17.5242 68.6443 17.1575 68.2483 16.9228C67.8669 16.6882 67.4416 16.5708 66.9723 16.5708C66.4149 16.5708 65.9236 16.7175 65.4983 17.0108C65.0729 17.3042 64.7429 17.7368 64.5083 18.3088C64.2736 18.8662 64.1563 19.5408 64.1563 20.3328C64.1563 21.5795 64.4276 22.4962 64.9703 23.0828C65.5276 23.6695 66.2536 23.9628 67.1483 23.9628C67.5589 23.9628 67.9036 23.9115 68.1823 23.8088C68.4756 23.6915 68.7103 23.5448 68.8863 23.3688C69.0769 23.1928 69.2236 22.9948 69.3263 22.7748C69.4436 22.5548 69.5389 22.3348 69.6123 22.1148L72.3623 22.7088C72.2303 23.2515 72.0323 23.7428 71.7683 24.1828C71.5189 24.6082 71.1816 24.9822 70.7563 25.3048C70.3309 25.6128 69.8176 25.8475 69.2163 26.0088C68.6296 26.1848 67.9403 26.2728 67.1483 26.2728ZM72.3943 25.9648L76.2223 20.1788L72.3943 14.4148H76.0463L78.1583 18.7708H78.5323L80.6443 14.4148H84.2743L80.4463 20.1788L84.3183 25.9648H80.6883L78.5323 21.5868H78.1583L76.0463 25.9648H72.3943ZM90.2555 26.2728C89.2582 26.2728 88.3855 26.1262 87.6375 25.8328C86.8895 25.5395 86.2662 25.1288 85.7675 24.6008C85.2688 24.0728 84.8948 23.4495 84.6455 22.7308C84.3962 21.9975 84.2715 21.1982 84.2715 20.3328C84.2715 19.4235 84.3962 18.5948 84.6455 17.8468C84.9095 17.0842 85.2908 16.4242 85.7895 15.8668C86.2882 15.3095 86.9042 14.8768 87.6375 14.5688C88.3708 14.2608 89.2068 14.1068 90.1455 14.1068C91.0842 14.1068 91.8982 14.2608 92.5875 14.5688C93.2915 14.8768 93.8562 15.3095 94.2815 15.8668C94.7215 16.4095 95.0222 17.0548 95.1835 17.8028L92.2575 18.7488C92.2135 18.2942 92.0888 17.9055 91.8835 17.5828C91.6928 17.2455 91.4288 16.9962 91.0915 16.8348C90.7688 16.6588 90.4022 16.5708 89.9915 16.5708C89.5662 16.5708 89.1995 16.6588 88.8915 16.8348C88.5835 16.9962 88.3195 17.2382 88.0995 17.5608C87.8942 17.8688 87.7328 18.2502 87.6155 18.7048C87.5128 19.1448 87.4615 19.6435 87.4615 20.2008C87.4615 20.9928 87.5642 21.6675 87.7695 22.2248C87.9895 22.7675 88.3048 23.1855 88.7155 23.4788C89.1408 23.7575 89.6615 23.8968 90.2775 23.8968C90.8642 23.8968 91.3335 23.7868 91.6855 23.5668C92.0375 23.3322 92.2942 23.0388 92.4555 22.6868C92.6315 22.3202 92.7415 21.9462 92.7855 21.5648L95.5575 22.1808C95.4842 22.7528 95.3228 23.2882 95.0735 23.7868C94.8388 24.2855 94.5015 24.7182 94.0615 25.0848C93.6215 25.4515 93.0862 25.7448 92.4555 25.9648C91.8395 26.1702 91.1062 26.2728 90.2555 26.2728ZM102.078 26.2728C101.125 26.2728 100.274 26.1408 99.5264 25.8768C98.7931 25.6128 98.1698 25.2315 97.6564 24.7328C97.1431 24.2342 96.7471 23.6182 96.4684 22.8848C96.2044 22.1515 96.0724 21.3228 96.0724 20.3988C96.0724 19.4895 96.1971 18.6535 96.4464 17.8908C96.7104 17.1135 97.0918 16.4462 97.5904 15.8888C98.0891 15.3168 98.6978 14.8768 99.4164 14.5688C100.135 14.2608 100.949 14.1068 101.858 14.1068C102.738 14.1068 103.523 14.2535 104.212 14.5468C104.902 14.8255 105.474 15.2508 105.928 15.8228C106.398 16.3948 106.735 17.0988 106.94 17.9348C107.16 18.7562 107.241 19.7022 107.182 20.7728L98.1184 20.8608V19.1228L105.356 19.0568L104.234 19.9368C104.337 19.1595 104.286 18.5215 104.08 18.0228C103.875 17.5242 103.574 17.1575 103.178 16.9228C102.797 16.6882 102.372 16.5708 101.902 16.5708C101.345 16.5708 100.854 16.7175 100.428 17.0108C100.003 17.3042 99.6731 17.7368 99.4384 18.3088C99.2038 18.8662 99.0864 19.5408 99.0864 20.3328C99.0864 21.5795 99.3578 22.4962 99.9004 23.0828C100.458 23.6695 101.184 23.9628 102.078 23.9628C102.489 23.9628 102.834 23.9115 103.112 23.8088C103.406 23.6915 103.64 23.5448 103.816 23.3688C104.007 23.1928 104.154 22.9948 104.256 22.7748C104.374 22.5548 104.469 22.3348 104.542 22.1148L107.292 22.7088C107.16 23.2515 106.962 23.7428 106.698 24.1828C106.449 24.6082 106.112 24.9822 105.686 25.3048C105.261 25.6128 104.748 25.8475 104.146 26.0088C103.56 26.1848 102.87 26.2728 102.078 26.2728ZM108.834 25.9648V10.2348H111.958V25.9648H108.834ZM114.211 25.9648V10.2348H117.335V25.9648H114.211Z" fill="#353535"/>
</g>
</g>
<defs>
<filter id="filter0_d_3451_87" x="0.5" y="0.5" width="122.93" height="41" filterUnits="userSpaceOnUse" color-interpolation-filters="sRGB">
<feFlood flood-opacity="0" result="BackgroundImageFix"/>
<feColorMatrix in="SourceAlpha" type="matrix" values="0 0 0 0 0 0 0 0 0 0 0 0 0 0 0 0 0 0 127 0" result="hardAlpha"/>
<feOffset dy="2"/>
<feGaussianBlur stdDeviation="2.25"/>
<feComposite in2="hardAlpha" operator="out"/>
<feColorMatrix type="matrix" values="0 0 0 0 0 0 0 0 0 0 0 0 0 0 0 0 0 0 0.07 0"/>
<feBlend mode="normal" in2="BackgroundImageFix" result="effect1_dropShadow_3451_87"/>
<feBlend mode="normal" in="SourceGraphic" in2="effect1_dropShadow_3451_87" result="shape"/>
</filter>
<filter id="filter1_ii_3451_87" x="6.125" y="5" width="28.875" height="30.625" filterUnits="userSpaceOnUse" color-interpolation-filters="sRGB">
<feFlood flood-opacity="0" result="BackgroundImageFix"/>
<feBlend mode="normal" in="SourceGraphic" in2="BackgroundImageFix" result="shape"/>
<feColorMatrix in="SourceAlpha" type="matrix" values="0 0 0 0 0 0 0 0 0 0 0 0 0 0 0 0 0 0 127 0" result="hardAlpha"/>
<feOffset dy="1.75"/>
<feGaussianBlur stdDeviation="0.56875"/>
<feComposite in2="hardAlpha" operator="arithmetic" k2="-1" k3="1"/>
<feColorMatrix type="matrix" values="0 0 0 0 1 0 0 0 0 1 0 0 0 0 1 0 0 0 0.25 0"/>
<feBlend mode="normal" in2="shape" result="effect1_innerShadow_3451_87"/>
<feColorMatrix in="SourceAlpha" type="matrix" values="0 0 0 0 0 0 0 0 0 0 0 0 0 0 0 0 0 0 127 0" result="hardAlpha"/>
<feOffset dx="-0.875" dy="2.625"/>
<feGaussianBlur stdDeviation="1.53125"/>
<feComposite in2="hardAlpha" operator="arithmetic" k2="-1" k3="1"/>
<feColorMatrix type="matrix" values="0 0 0 0 1 0 0 0 0 1 0 0 0 0 1 0 0 0 0.22 0"/>
<feBlend mode="normal" in2="effect1_innerShadow_3451_87" result="effect2_innerShadow_3451_87"/>
</filter>
<filter id="filter2_ii_3451_87" x="6.125" y="4.96484" width="28.875" height="30.625" filterUnits="userSpaceOnUse" color-interpolation-filters="sRGB">
<feFlood flood-opacity="0" result="BackgroundImageFix"/>
<feBlend mode="normal" in="SourceGraphic" in2="BackgroundImageFix" result="shape"/>
<feColorMatrix in="SourceAlpha" type="matrix" values="0 0 0 0 0 0 0 0 0 0 0 0 0 0 0 0 0 0 127 0" result="hardAlpha"/>
<feOffset dy="1.75"/>
<feGaussianBlur stdDeviation="0.56875"/>
<feComposite in2="hardAlpha" operator="arithmetic" k2="-1" k3="1"/>
<feColorMatrix type="matrix" values="0 0 0 0 1 0 0 0 0 1 0 0 0 0 1 0 0 0 0.25 0"/>
<feBlend mode="normal" in2="shape" result="effect1_innerShadow_3451_87"/>
<feColorMatrix in="SourceAlpha" type="matrix" values="0 0 0 0 0 0 0 0 0 0 0 0 0 0 0 0 0 0 127 0" result="hardAlpha"/>
<feOffset dx="-0.875" dy="2.625"/>
<feGaussianBlur stdDeviation="1.53125"/>
<feComposite in2="hardAlpha" operator="arithmetic" k2="-1" k3="1"/>
<feColorMatrix type="matrix" values="0 0 0 0 1 0 0 0 0 1 0 0 0 0 1 0 0 0 0.22 0"/>
<feBlend mode="normal" in2="effect1_innerShadow_3451_87" result="effect2_innerShadow_3451_87"/>
</filter>
<filter id="filter3_i_3451_87" x="45.5352" y="10.2344" width="72.3008" height="16.5391" filterUnits="userSpaceOnUse" color-interpolation-filters="sRGB">
<feFlood flood-opacity="0" result="BackgroundImageFix"/>
<feBlend mode="normal" in="SourceGraphic" in2="BackgroundImageFix" result="shape"/>
<feColorMatrix in="SourceAlpha" type="matrix" values="0 0 0 0 0 0 0 0 0 0 0 0 0 0 0 0 0 0 127 0" result="hardAlpha"/>
<feOffset dx="0.5" dy="0.5"/>
<feGaussianBlur stdDeviation="0.6"/>
<feComposite in2="hardAlpha" operator="arithmetic" k2="-1" k3="1"/>
<feColorMatrix type="matrix" values="0 0 0 0 0 0 0 0 0 0 0 0 0 0 0 0 0 0 0.25 0"/>
<feBlend mode="normal" in2="shape" result="effect1_innerShadow_3451_87"/>
</filter>
<clipPath id="clip0_3451_87">
<rect x="7" y="5" width="28" height="28" rx="6.36928" fill="white"/>
</clipPath>
</defs>
</svg>
