<svg width="129" height="42" viewBox="0 0 129 42" fill="none" xmlns="http://www.w3.org/2000/svg">
<g filter="url(#filter0_d_3451_31)">
<g filter="url(#filter1_ii_3451_31)">
<g clip-path="url(#clip0_3451_31)">
<rect x="5" y="3" width="31.9291" height="31.9291" rx="15.9646" fill="black"/>
<path d="M10.5 7L21.3253 13.25V25.75L10.5 32L-0.325317 25.75V13.25L10.5 7Z" fill="white"/>
</g>
</g>
<g filter="url(#filter2_i_3451_31)">
<path d="M45.5357 25.9648V11.4448H49.6717L56.2497 21.7188H56.4917L56.2937 11.4448H59.3737V25.9648H55.6337L48.6817 15.2068H48.4397L48.6377 25.9648H45.5357ZM61.9343 25.9648V11.4448H65.1683V25.9648H61.9343ZM67.7196 25.9648V11.4448H73.6156C74.4076 11.4448 75.1263 11.5108 75.7716 11.6428C76.4169 11.7602 76.9889 11.9362 77.4876 12.1708C77.9863 12.4055 78.4043 12.6988 78.7416 13.0508C79.0936 13.3882 79.3576 13.7842 79.5336 14.2388C79.7096 14.6788 79.7976 15.1702 79.7976 15.7128C79.7976 16.2262 79.7169 16.6955 79.5556 17.1208C79.3943 17.5315 79.1523 17.8908 78.8296 18.1988C78.5069 18.5068 78.1036 18.7635 77.6196 18.9688C77.1356 19.1595 76.5709 19.2915 75.9256 19.3648V19.6948C76.6736 19.7682 77.2676 19.9442 77.7076 20.2228C78.1623 20.4868 78.5143 20.8462 78.7636 21.3008C79.0276 21.7555 79.2549 22.3202 79.4456 22.9948L80.3256 25.9648H76.8276L76.1456 23.2148C76.0136 22.6282 75.8229 22.1735 75.5736 21.8508C75.3243 21.5135 75.0089 21.2788 74.6276 21.1468C74.2463 21.0002 73.7843 20.9268 73.2416 20.9268H70.8876V25.9648H67.7196ZM70.8876 18.5508H73.3956C74.3929 18.5508 75.1629 18.3602 75.7056 17.9788C76.2483 17.5975 76.5196 17.0035 76.5196 16.1968C76.5196 15.4048 76.2629 14.8255 75.7496 14.4588C75.2509 14.0775 74.4956 13.8868 73.4836 13.8868H70.8876V18.5508ZM81.9912 25.9648V11.4448H87.8872C88.6792 11.4448 89.3979 11.5108 90.0432 11.6428C90.6886 11.7602 91.2606 11.9362 91.7592 12.1708C92.2579 12.4055 92.6759 12.6988 93.0132 13.0508C93.3652 13.3882 93.6292 13.7842 93.8052 14.2388C93.9812 14.6788 94.0692 15.1702 94.0692 15.7128C94.0692 16.2262 93.9886 16.6955 93.8272 17.1208C93.6659 17.5315 93.4239 17.8908 93.1012 18.1988C92.7786 18.5068 92.3752 18.7635 91.8912 18.9688C91.4072 19.1595 90.8426 19.2915 90.1972 19.3648V19.6948C90.9452 19.7682 91.5392 19.9442 91.9792 20.2228C92.4339 20.4868 92.7859 20.8462 93.0352 21.3008C93.2992 21.7555 93.5266 22.3202 93.7172 22.9948L94.5972 25.9648H91.0992L90.4172 23.2148C90.2852 22.6282 90.0946 22.1735 89.8452 21.8508C89.5959 21.5135 89.2806 21.2788 88.8992 21.1468C88.5179 21.0002 88.0559 20.9268 87.5132 20.9268H85.1592V25.9648H81.9912ZM85.1592 18.5508H87.6672C88.6646 18.5508 89.4346 18.3602 89.9772 17.9788C90.5199 17.5975 90.7912 17.0035 90.7912 16.1968C90.7912 15.4048 90.5346 14.8255 90.0212 14.4588C89.5226 14.0775 88.7672 13.8868 87.7552 13.8868H85.1592V18.5508ZM102.555 26.2728C101.499 26.2728 100.553 26.1115 99.7169 25.7888C98.8809 25.4515 98.1622 24.9675 97.5609 24.3368C96.9742 23.6915 96.5195 22.9068 96.1969 21.9828C95.8889 21.0442 95.7349 19.9735 95.7349 18.7708C95.7349 17.0548 96.0355 15.6395 96.6369 14.5248C97.2382 13.3955 98.0595 12.5522 99.1009 11.9948C100.157 11.4228 101.345 11.1368 102.665 11.1368C103.692 11.1368 104.623 11.3055 105.459 11.6428C106.295 11.9655 107.006 12.4495 107.593 13.0948C108.194 13.7255 108.656 14.5175 108.979 15.4708C109.302 16.4095 109.463 17.4875 109.463 18.7048C109.463 19.9515 109.302 21.0442 108.979 21.9828C108.656 22.9215 108.187 23.7135 107.571 24.3588C106.97 24.9895 106.244 25.4662 105.393 25.7888C104.542 26.1115 103.596 26.2728 102.555 26.2728ZM102.643 23.7428C103.42 23.7428 104.073 23.5522 104.601 23.1708C105.129 22.7895 105.532 22.2395 105.811 21.5208C106.09 20.8022 106.229 19.9222 106.229 18.8808C106.229 17.7955 106.082 16.8715 105.789 16.1088C105.51 15.3462 105.1 14.7668 104.557 14.3708C104.014 13.9602 103.354 13.7548 102.577 13.7548C101.814 13.7548 101.162 13.9528 100.619 14.3488C100.091 14.7302 99.6802 15.2875 99.3869 16.0208C99.1082 16.7542 98.9689 17.6635 98.9689 18.7488C98.9689 19.5408 99.0495 20.2522 99.2109 20.8828C99.3869 21.4988 99.6289 22.0195 99.9369 22.4448C100.245 22.8702 100.626 23.1928 101.081 23.4128C101.536 23.6328 102.056 23.7428 102.643 23.7428ZM111.48 25.9648V11.4448H117.376C118.168 11.4448 118.886 11.5108 119.532 11.6428C120.177 11.7602 120.749 11.9362 121.248 12.1708C121.746 12.4055 122.164 12.6988 122.502 13.0508C122.854 13.3882 123.118 13.7842 123.294 14.2388C123.47 14.6788 123.558 15.1702 123.558 15.7128C123.558 16.2262 123.477 16.6955 123.316 17.1208C123.154 17.5315 122.912 17.8908 122.59 18.1988C122.267 18.5068 121.864 18.7635 121.38 18.9688C120.896 19.1595 120.331 19.2915 119.686 19.3648V19.6948C120.434 19.7682 121.028 19.9442 121.468 20.2228C121.922 20.4868 122.274 20.8462 122.524 21.3008C122.788 21.7555 123.015 22.3202 123.206 22.9948L124.086 25.9648H120.588L119.906 23.2148C119.774 22.6282 119.583 22.1735 119.334 21.8508C119.084 21.5135 118.769 21.2788 118.388 21.1468C118.006 21.0002 117.544 20.9268 117.002 20.9268H114.648V25.9648H111.48ZM114.648 18.5508H117.156C118.153 18.5508 118.923 18.3602 119.466 17.9788C120.008 17.5975 120.28 17.0035 120.28 16.1968C120.28 15.4048 120.023 14.8255 119.51 14.4588C119.011 14.0775 118.256 13.8868 117.244 13.8868H114.648V18.5508Z" fill="#353535"/>
</g>
</g>
<defs>
<filter id="filter0_d_3451_31" x="0.5" y="0.5" width="128.93" height="40.9297" filterUnits="userSpaceOnUse" color-interpolation-filters="sRGB">
<feFlood flood-opacity="0" result="BackgroundImageFix"/>
<feColorMatrix in="SourceAlpha" type="matrix" values="0 0 0 0 0 0 0 0 0 0 0 0 0 0 0 0 0 0 127 0" result="hardAlpha"/>
<feOffset dy="2"/>
<feGaussianBlur stdDeviation="2.25"/>
<feComposite in2="hardAlpha" operator="out"/>
<feColorMatrix type="matrix" values="0 0 0 0 0 0 0 0 0 0 0 0 0 0 0 0 0 0 0.07 0"/>
<feBlend mode="normal" in2="BackgroundImageFix" result="effect1_dropShadow_3451_31"/>
<feBlend mode="normal" in="SourceGraphic" in2="effect1_dropShadow_3451_31" result="shape"/>
</filter>
<filter id="filter1_ii_3451_31" x="4" y="3" width="32.9297" height="34.9297" filterUnits="userSpaceOnUse" color-interpolation-filters="sRGB">
<feFlood flood-opacity="0" result="BackgroundImageFix"/>
<feBlend mode="normal" in="SourceGraphic" in2="BackgroundImageFix" result="shape"/>
<feColorMatrix in="SourceAlpha" type="matrix" values="0 0 0 0 0 0 0 0 0 0 0 0 0 0 0 0 0 0 127 0" result="hardAlpha"/>
<feOffset dy="2"/>
<feGaussianBlur stdDeviation="0.65"/>
<feComposite in2="hardAlpha" operator="arithmetic" k2="-1" k3="1"/>
<feColorMatrix type="matrix" values="0 0 0 0 1 0 0 0 0 1 0 0 0 0 1 0 0 0 0.25 0"/>
<feBlend mode="normal" in2="shape" result="effect1_innerShadow_3451_31"/>
<feColorMatrix in="SourceAlpha" type="matrix" values="0 0 0 0 0 0 0 0 0 0 0 0 0 0 0 0 0 0 127 0" result="hardAlpha"/>
<feOffset dx="-1" dy="3"/>
<feGaussianBlur stdDeviation="1.75"/>
<feComposite in2="hardAlpha" operator="arithmetic" k2="-1" k3="1"/>
<feColorMatrix type="matrix" values="0 0 0 0 1 0 0 0 0 1 0 0 0 0 1 0 0 0 0.22 0"/>
<feBlend mode="normal" in2="effect1_innerShadow_3451_31" result="effect2_innerShadow_3451_31"/>
</filter>
<filter id="filter2_i_3451_31" x="45.5352" y="11.1367" width="79.0508" height="15.6367" filterUnits="userSpaceOnUse" color-interpolation-filters="sRGB">
<feFlood flood-opacity="0" result="BackgroundImageFix"/>
<feBlend mode="normal" in="SourceGraphic" in2="BackgroundImageFix" result="shape"/>
<feColorMatrix in="SourceAlpha" type="matrix" values="0 0 0 0 0 0 0 0 0 0 0 0 0 0 0 0 0 0 127 0" result="hardAlpha"/>
<feOffset dx="0.5" dy="0.5"/>
<feGaussianBlur stdDeviation="0.6"/>
<feComposite in2="hardAlpha" operator="arithmetic" k2="-1" k3="1"/>
<feColorMatrix type="matrix" values="0 0 0 0 0 0 0 0 0 0 0 0 0 0 0 0 0 0 0.25 0"/>
<feBlend mode="normal" in2="shape" result="effect1_innerShadow_3451_31"/>
</filter>
<clipPath id="clip0_3451_31">
<rect x="5" y="3" width="31.9291" height="31.9291" rx="15.9646" fill="white"/>
</clipPath>
</defs>
</svg>
