<svg width="99" height="42" viewBox="0 0 99 42" fill="none" xmlns="http://www.w3.org/2000/svg">
<g filter="url(#filter0_d_3451_45)">
<g filter="url(#filter1_ii_3451_45)">
<g clip-path="url(#clip0_3451_45)">
<rect x="5" y="3.03516" width="31.9291" height="31.9291" rx="15.9646" fill="black"/>
<path d="M32.278 -0.995558C29.0939 -2.3403 25.5516 -2.58219 22.2143 -1.68277C18.8769 -0.783346 15.9359 1.20577 13.8588 3.96843C11.7816 6.7311 10.6874 10.1088 10.7502 13.5646C10.8129 17.0205 12.029 20.3563 14.2051 23.0417C16.3812 25.7271 19.3924 27.6082 22.7602 28.3858C26.128 29.1635 29.6592 28.7932 32.7924 27.3338C35.9256 25.8743 38.4811 23.4095 40.0527 20.331C41.6243 17.2525 42.1218 13.7371 41.4663 10.3434L28.7739 12.7953C28.8827 13.3586 28.8001 13.9422 28.5392 14.4532C28.2783 14.9642 27.8541 15.3734 27.334 15.6156C26.8139 15.8579 26.2278 15.9194 25.6687 15.7903C25.1097 15.6612 24.6098 15.3489 24.2486 14.9031C23.8874 14.4574 23.6855 13.9036 23.6751 13.33C23.6647 12.7563 23.8463 12.1956 24.1911 11.737C24.5359 11.2784 25.0241 10.9482 25.5781 10.7989C26.1321 10.6496 26.7201 10.6898 27.2487 10.913L32.278 -0.995558Z" fill="white"/>
</g>
</g>
<g filter="url(#filter2_i_3451_45)">
<path d="M49.8337 17.252C49.0537 17.252 48.3517 17.174 47.7277 17.018C47.1157 16.874 46.5877 16.652 46.1437 16.352C45.7117 16.04 45.3697 15.656 45.1177 15.2C44.8777 14.732 44.7397 14.198 44.7037 13.598L46.9717 12.86C46.9957 13.4 47.1277 13.85 47.3677 14.21C47.6197 14.57 47.9737 14.834 48.4297 15.002C48.8857 15.17 49.3957 15.254 49.9597 15.254C50.4997 15.254 50.9557 15.188 51.3277 15.056C51.6997 14.924 51.9817 14.75 52.1737 14.534C52.3657 14.306 52.4617 14.06 52.4617 13.796C52.4617 13.484 52.3417 13.232 52.1017 13.04C51.8617 12.848 51.5317 12.686 51.1117 12.554C50.7037 12.422 50.2357 12.296 49.7077 12.176C49.1197 12.044 48.5377 11.894 47.9617 11.726C47.3977 11.558 46.8817 11.342 46.4137 11.078C45.9577 10.814 45.5917 10.472 45.3157 10.052C45.0517 9.632 44.9197 9.104 44.9197 8.468C44.9197 7.736 45.0997 7.106 45.4597 6.578C45.8317 6.038 46.3717 5.618 47.0797 5.318C47.7877 5.018 48.6397 4.868 49.6357 4.868C50.6437 4.868 51.5017 5.018 52.2097 5.318C52.9297 5.606 53.4877 6.02 53.8837 6.56C54.2797 7.088 54.4957 7.718 54.5317 8.45L52.1917 9.098C52.1917 8.726 52.1317 8.402 52.0117 8.126C51.8917 7.85 51.7237 7.622 51.5077 7.442C51.2917 7.25 51.0217 7.106 50.6977 7.01C50.3857 6.914 50.0257 6.866 49.6177 6.866C49.1497 6.866 48.7417 6.926 48.3937 7.046C48.0577 7.166 47.7997 7.328 47.6197 7.532C47.4517 7.736 47.3677 7.976 47.3677 8.252C47.3677 8.576 47.4997 8.846 47.7637 9.062C48.0397 9.266 48.3997 9.434 48.8437 9.566C49.2997 9.698 49.7977 9.824 50.3377 9.944C50.8537 10.052 51.3757 10.19 51.9037 10.358C52.4437 10.514 52.9417 10.724 53.3977 10.988C53.8657 11.24 54.2377 11.588 54.5137 12.032C54.8017 12.464 54.9457 13.01 54.9457 13.67C54.9457 14.39 54.7537 15.02 54.3697 15.56C53.9857 16.1 53.4097 16.52 52.6417 16.82C51.8857 17.108 50.9497 17.252 49.8337 17.252ZM60.6039 17.252C59.6559 17.252 58.8219 17.066 58.1019 16.694C57.3819 16.31 56.8179 15.752 56.4099 15.02C56.0019 14.276 55.7979 13.352 55.7979 12.248C55.7979 11.144 56.0019 10.226 56.4099 9.494C56.8299 8.762 57.3999 8.216 58.1199 7.856C58.8519 7.484 59.6799 7.298 60.6039 7.298C61.5519 7.298 62.3859 7.484 63.1059 7.856C63.8379 8.228 64.4079 8.786 64.8159 9.53C65.2359 10.262 65.4459 11.18 65.4459 12.284C65.4459 13.4 65.2299 14.33 64.7979 15.074C64.3779 15.806 63.8019 16.352 63.0699 16.712C62.3499 17.072 61.5279 17.252 60.6039 17.252ZM60.6939 15.326C61.1619 15.326 61.5519 15.218 61.8639 15.002C62.1879 14.786 62.4279 14.462 62.5839 14.03C62.7519 13.586 62.8359 13.052 62.8359 12.428C62.8359 11.768 62.7459 11.21 62.5659 10.754C62.3979 10.286 62.1459 9.932 61.8099 9.692C61.4739 9.44 61.0479 9.314 60.5319 9.314C60.0879 9.314 59.7039 9.422 59.3799 9.638C59.0559 9.842 58.8099 10.166 58.6419 10.61C58.4739 11.042 58.3899 11.576 58.3899 12.212C58.3899 13.232 58.5939 14.006 59.0019 14.534C59.4099 15.062 59.9739 15.326 60.6939 15.326ZM66.7486 17V10.952V7.55H68.8186V10.376H69.1606C69.3286 9.68 69.5506 9.11 69.8266 8.666C70.1026 8.21 70.4326 7.868 70.8166 7.64C71.2126 7.412 71.6746 7.298 72.2026 7.298C72.7666 7.298 73.2346 7.424 73.6066 7.676C73.9786 7.928 74.2666 8.282 74.4706 8.738C74.6746 9.182 74.8066 9.728 74.8666 10.376H75.1546C75.3346 9.668 75.5746 9.086 75.8746 8.63C76.1866 8.174 76.5526 7.838 76.9726 7.622C77.4046 7.406 77.8786 7.298 78.3946 7.298C78.9106 7.298 79.3606 7.4 79.7446 7.604C80.1406 7.808 80.4706 8.114 80.7346 8.522C80.9986 8.918 81.1966 9.422 81.3286 10.034C81.4606 10.634 81.5266 11.33 81.5266 12.122V17H78.9346V12.446C78.9346 11.798 78.8806 11.258 78.7726 10.826C78.6646 10.382 78.4966 10.052 78.2686 9.836C78.0406 9.62 77.7466 9.512 77.3866 9.512C76.9906 9.512 76.6486 9.65 76.3606 9.926C76.0726 10.19 75.8446 10.556 75.6766 11.024C75.5086 11.492 75.4186 12.026 75.4066 12.626V17H72.8686V12.518C72.8686 11.846 72.8086 11.294 72.6886 10.862C72.5686 10.418 72.3946 10.082 72.1666 9.854C71.9386 9.626 71.6506 9.512 71.3026 9.512C70.8946 9.512 70.5466 9.65 70.2586 9.926C69.9706 10.19 69.7486 10.562 69.5926 11.042C69.4366 11.522 69.3526 12.056 69.3406 12.644V17H66.7486ZM87.6338 17.252C86.8538 17.252 86.1578 17.144 85.5458 16.928C84.9458 16.712 84.4358 16.4 84.0158 15.992C83.5958 15.584 83.2718 15.08 83.0438 14.48C82.8278 13.88 82.7198 13.202 82.7198 12.446C82.7198 11.702 82.8218 11.018 83.0258 10.394C83.2418 9.758 83.5538 9.212 83.9618 8.756C84.3698 8.288 84.8678 7.928 85.4558 7.676C86.0438 7.424 86.7098 7.298 87.4538 7.298C88.1738 7.298 88.8158 7.418 89.3798 7.658C89.9438 7.886 90.4118 8.234 90.7838 8.702C91.1678 9.17 91.4438 9.746 91.6118 10.43C91.7918 11.102 91.8578 11.876 91.8098 12.752L84.3938 12.824V11.402L90.3158 11.348L89.3978 12.068C89.4818 11.432 89.4398 10.91 89.2718 10.502C89.1038 10.094 88.8578 9.794 88.5338 9.602C88.2218 9.41 87.8738 9.314 87.4898 9.314C87.0338 9.314 86.6318 9.434 86.2838 9.674C85.9358 9.914 85.6658 10.268 85.4738 10.736C85.2818 11.192 85.1858 11.744 85.1858 12.392C85.1858 13.412 85.4078 14.162 85.8518 14.642C86.3078 15.122 86.9018 15.362 87.6338 15.362C87.9698 15.362 88.2518 15.32 88.4798 15.236C88.7198 15.14 88.9118 15.02 89.0558 14.876C89.2118 14.732 89.3318 14.57 89.4158 14.39C89.5118 14.21 89.5898 14.03 89.6498 13.85L91.8998 14.336C91.7918 14.78 91.6298 15.182 91.4138 15.542C91.2098 15.89 90.9338 16.196 90.5858 16.46C90.2378 16.712 89.8178 16.904 89.3258 17.036C88.8458 17.18 88.2818 17.252 87.6338 17.252ZM47.7637 33V21.12H50.3557V33H47.7637ZM44.2537 23.298V21.12H53.8657V23.298H44.2537ZM54.8609 33V23.55H57.4529V33H54.8609ZM56.1749 22.128C55.6709 22.128 55.2809 22.026 55.0049 21.822C54.7409 21.606 54.6089 21.294 54.6089 20.886C54.6089 20.466 54.7409 20.148 55.0049 19.932C55.2809 19.716 55.6709 19.608 56.1749 19.608C56.6909 19.608 57.0809 19.716 57.3449 19.932C57.6209 20.148 57.7589 20.466 57.7589 20.886C57.7589 21.282 57.6209 21.588 57.3449 21.804C57.0809 22.02 56.6909 22.128 56.1749 22.128ZM59.3131 33V26.952V23.55H61.3831V26.376H61.7251C61.8931 25.68 62.1151 25.11 62.3911 24.666C62.6671 24.21 62.9971 23.868 63.3811 23.64C63.7771 23.412 64.2391 23.298 64.7671 23.298C65.3311 23.298 65.7991 23.424 66.1711 23.676C66.5431 23.928 66.8311 24.282 67.0351 24.738C67.2391 25.182 67.3711 25.728 67.4311 26.376H67.7191C67.8991 25.668 68.1391 25.086 68.4391 24.63C68.7511 24.174 69.1171 23.838 69.5371 23.622C69.9691 23.406 70.4431 23.298 70.9591 23.298C71.4751 23.298 71.9251 23.4 72.3091 23.604C72.7051 23.808 73.0351 24.114 73.2991 24.522C73.5631 24.918 73.7611 25.422 73.8931 26.034C74.0251 26.634 74.0911 27.33 74.0911 28.122V33H71.4991V28.446C71.4991 27.798 71.4451 27.258 71.3371 26.826C71.2291 26.382 71.0611 26.052 70.8331 25.836C70.6051 25.62 70.3111 25.512 69.9511 25.512C69.5551 25.512 69.2131 25.65 68.9251 25.926C68.6371 26.19 68.4091 26.556 68.2411 27.024C68.0731 27.492 67.9831 28.026 67.9711 28.626V33H65.4331V28.518C65.4331 27.846 65.3731 27.294 65.2531 26.862C65.1331 26.418 64.9591 26.082 64.7311 25.854C64.5031 25.626 64.2151 25.512 63.8671 25.512C63.4591 25.512 63.1111 25.65 62.8231 25.926C62.5351 26.19 62.3131 26.562 62.1571 27.042C62.0011 27.522 61.9171 28.056 61.9051 28.644V33H59.3131ZM80.1983 33.252C79.4183 33.252 78.7223 33.144 78.1103 32.928C77.5103 32.712 77.0003 32.4 76.5803 31.992C76.1603 31.584 75.8363 31.08 75.6083 30.48C75.3923 29.88 75.2843 29.202 75.2843 28.446C75.2843 27.702 75.3863 27.018 75.5903 26.394C75.8063 25.758 76.1183 25.212 76.5263 24.756C76.9343 24.288 77.4323 23.928 78.0203 23.676C78.6083 23.424 79.2743 23.298 80.0183 23.298C80.7383 23.298 81.3803 23.418 81.9443 23.658C82.5083 23.886 82.9763 24.234 83.3483 24.702C83.7323 25.17 84.0083 25.746 84.1763 26.43C84.3563 27.102 84.4223 27.876 84.3743 28.752L76.9583 28.824V27.402L82.8803 27.348L81.9623 28.068C82.0463 27.432 82.0043 26.91 81.8363 26.502C81.6683 26.094 81.4223 25.794 81.0983 25.602C80.7863 25.41 80.4383 25.314 80.0543 25.314C79.5983 25.314 79.1963 25.434 78.8483 25.674C78.5003 25.914 78.2303 26.268 78.0383 26.736C77.8463 27.192 77.7503 27.744 77.7503 28.392C77.7503 29.412 77.9723 30.162 78.4163 30.642C78.8723 31.122 79.4663 31.362 80.1983 31.362C80.5343 31.362 80.8163 31.32 81.0443 31.236C81.2843 31.14 81.4763 31.02 81.6203 30.876C81.7763 30.732 81.8963 30.57 81.9803 30.39C82.0763 30.21 82.1543 30.03 82.2143 29.85L84.4643 30.336C84.3563 30.78 84.1943 31.182 83.9783 31.542C83.7743 31.89 83.4983 32.196 83.1503 32.46C82.8023 32.712 82.3823 32.904 81.8903 33.036C81.4103 33.18 80.8463 33.252 80.1983 33.252ZM89.6107 33.252C88.9747 33.252 88.3987 33.192 87.8827 33.072C87.3667 32.952 86.9227 32.778 86.5507 32.55C86.1787 32.322 85.8787 32.052 85.6507 31.74C85.4227 31.416 85.2727 31.056 85.2007 30.66L87.1807 29.85C87.2287 30.114 87.3607 30.36 87.5767 30.588C87.7927 30.816 88.0807 31.002 88.4407 31.146C88.8127 31.278 89.2567 31.344 89.7727 31.344C90.3247 31.344 90.7507 31.266 91.0507 31.11C91.3507 30.942 91.5007 30.708 91.5007 30.408C91.5007 30.18 91.4167 30 91.2487 29.868C91.0807 29.736 90.8347 29.622 90.5107 29.526C90.1867 29.43 89.7967 29.34 89.3407 29.256C88.8967 29.148 88.4407 29.034 87.9727 28.914C87.5167 28.794 87.0907 28.626 86.6947 28.41C86.3107 28.194 85.9927 27.912 85.7407 27.564C85.5007 27.204 85.3807 26.748 85.3807 26.196C85.3807 25.62 85.5367 25.116 85.8487 24.684C86.1607 24.252 86.6167 23.916 87.2167 23.676C87.8167 23.424 88.5487 23.298 89.4127 23.298C90.1927 23.298 90.8767 23.406 91.4647 23.622C92.0527 23.826 92.5327 24.126 92.9047 24.522C93.2887 24.906 93.5467 25.368 93.6787 25.908L91.5727 26.61C91.5247 26.322 91.4047 26.07 91.2127 25.854C91.0327 25.638 90.7867 25.476 90.4747 25.368C90.1747 25.26 89.8207 25.206 89.4127 25.206C88.8967 25.206 88.4947 25.29 88.2067 25.458C87.9307 25.626 87.7927 25.848 87.7927 26.124C87.7927 26.352 87.8827 26.538 88.0627 26.682C88.2547 26.826 88.5187 26.946 88.8547 27.042C89.1907 27.126 89.5867 27.216 90.0427 27.312C90.5227 27.408 90.9907 27.522 91.4467 27.654C91.9027 27.774 92.3107 27.936 92.6707 28.14C93.0427 28.344 93.3367 28.614 93.5527 28.95C93.7687 29.286 93.8767 29.718 93.8767 30.246C93.8767 30.87 93.7087 31.41 93.3727 31.866C93.0367 32.31 92.5507 32.652 91.9147 32.892C91.2787 33.132 90.5107 33.252 89.6107 33.252Z" fill="#353535"/>
</g>
</g>
<defs>
<filter id="filter0_d_3451_45" x="0.5" y="0.5" width="100.93" height="41" filterUnits="userSpaceOnUse" color-interpolation-filters="sRGB">
<feFlood flood-opacity="0" result="BackgroundImageFix"/>
<feColorMatrix in="SourceAlpha" type="matrix" values="0 0 0 0 0 0 0 0 0 0 0 0 0 0 0 0 0 0 127 0" result="hardAlpha"/>
<feOffset dy="2"/>
<feGaussianBlur stdDeviation="2.25"/>
<feComposite in2="hardAlpha" operator="out"/>
<feColorMatrix type="matrix" values="0 0 0 0 0 0 0 0 0 0 0 0 0 0 0 0 0 0 0.07 0"/>
<feBlend mode="normal" in2="BackgroundImageFix" result="effect1_dropShadow_3451_45"/>
<feBlend mode="normal" in="SourceGraphic" in2="effect1_dropShadow_3451_45" result="shape"/>
</filter>
<filter id="filter1_ii_3451_45" x="4" y="3.03516" width="32.9297" height="34.9297" filterUnits="userSpaceOnUse" color-interpolation-filters="sRGB">
<feFlood flood-opacity="0" result="BackgroundImageFix"/>
<feBlend mode="normal" in="SourceGraphic" in2="BackgroundImageFix" result="shape"/>
<feColorMatrix in="SourceAlpha" type="matrix" values="0 0 0 0 0 0 0 0 0 0 0 0 0 0 0 0 0 0 127 0" result="hardAlpha"/>
<feOffset dy="2"/>
<feGaussianBlur stdDeviation="0.65"/>
<feComposite in2="hardAlpha" operator="arithmetic" k2="-1" k3="1"/>
<feColorMatrix type="matrix" values="0 0 0 0 1 0 0 0 0 1 0 0 0 0 1 0 0 0 0.25 0"/>
<feBlend mode="normal" in2="shape" result="effect1_innerShadow_3451_45"/>
<feColorMatrix in="SourceAlpha" type="matrix" values="0 0 0 0 0 0 0 0 0 0 0 0 0 0 0 0 0 0 127 0" result="hardAlpha"/>
<feOffset dx="-1" dy="3"/>
<feGaussianBlur stdDeviation="1.75"/>
<feComposite in2="hardAlpha" operator="arithmetic" k2="-1" k3="1"/>
<feColorMatrix type="matrix" values="0 0 0 0 1 0 0 0 0 1 0 0 0 0 1 0 0 0 0.22 0"/>
<feBlend mode="normal" in2="effect1_innerShadow_3451_45" result="effect2_innerShadow_3451_45"/>
</filter>
<filter id="filter2_i_3451_45" x="44.2539" y="4.86719" width="50.1211" height="28.8848" filterUnits="userSpaceOnUse" color-interpolation-filters="sRGB">
<feFlood flood-opacity="0" result="BackgroundImageFix"/>
<feBlend mode="normal" in="SourceGraphic" in2="BackgroundImageFix" result="shape"/>
<feColorMatrix in="SourceAlpha" type="matrix" values="0 0 0 0 0 0 0 0 0 0 0 0 0 0 0 0 0 0 127 0" result="hardAlpha"/>
<feOffset dx="0.5" dy="0.5"/>
<feGaussianBlur stdDeviation="0.6"/>
<feComposite in2="hardAlpha" operator="arithmetic" k2="-1" k3="1"/>
<feColorMatrix type="matrix" values="0 0 0 0 0 0 0 0 0 0 0 0 0 0 0 0 0 0 0.25 0"/>
<feBlend mode="normal" in2="shape" result="effect1_innerShadow_3451_45"/>
</filter>
<clipPath id="clip0_3451_45">
<rect x="5" y="3.03516" width="31.9291" height="31.9291" rx="15.9646" fill="white"/>
</clipPath>
</defs>
</svg>
