<svg width="120" height="42" viewBox="0 0 120 42" fill="none" xmlns="http://www.w3.org/2000/svg">
<g clip-path="url(#clip0_3456_119)">
<g filter="url(#filter0_d_3456_119)">
<g filter="url(#filter1_ii_3456_119)">
<path d="M29.6499 3H12.2792C8.259 3 5 6.259 5 10.2792V27.6499C5 31.6701 8.259 34.9291 12.2792 34.9291H29.6499C33.6701 34.9291 36.9291 31.6701 36.9291 27.6499V10.2792C36.9291 6.259 33.6701 3 29.6499 3Z" fill="white"/>
<g filter="url(#filter2_di_3456_119)">
<path d="M27.7748 11.1074L32.295 14.0932V14.6967L23.746 26.9893H23.1236L18.6034 24.0035V23.4L23.0909 16.9519V14.792L14.6074 26.9893H13.985L9.46484 24.0035V23.4L18.0139 11.1074H18.6362L23.1236 14.0614H25.0889L27.1525 11.1074H27.7748Z" fill="#3C77E2"/>
<path d="M32.3926 14.7275L32.375 14.7529L23.8252 27.0459L23.796 27.0889H23.0919L23.0674 27.0723L18.5469 24.0859L18.502 24.0566V23.3691L18.5206 23.3428L22.9893 16.9219V15.1074L14.6866 27.0459L14.6573 27.0889H13.9532L13.9288 27.0723L9.40821 24.0859L9.36328 24.0566V23.3691L9.38184 23.3438L17.9307 11.0508L17.96 11.0078H18.6641L18.6885 11.0244L23.1504 13.9619H25.0362L27.0694 11.0508L27.0987 11.0078H27.8028L27.8272 11.0244L32.3477 14.0107L32.3926 14.04V14.7275Z" stroke="#FDFDFD" stroke-opacity="0.27" stroke-width="0.198523"/>
</g>
</g>
<path d="M45.5352 26.9657V12.4457H49.6712L56.2492 22.7197H56.4912L56.2932 12.4457H59.3732V26.9657H55.6332L48.6812 16.2077H48.4392L48.6372 26.9657H45.5352ZM67.1478 27.2737C66.1944 27.2737 65.3438 27.1417 64.5958 26.8777C63.8624 26.6137 63.2391 26.2324 62.7258 25.7337C62.2124 25.2351 61.8164 24.6191 61.5378 23.8857C61.2738 23.1524 61.1418 22.3237 61.1418 21.3997C61.1418 20.4904 61.2664 19.6544 61.5158 18.8917C61.7798 18.1144 62.1611 17.4471 62.6598 16.8897C63.1584 16.3177 63.7671 15.8777 64.4858 15.5697C65.2044 15.2617 66.0184 15.1077 66.9278 15.1077C67.8078 15.1077 68.5924 15.2544 69.2818 15.5477C69.9711 15.8264 70.5431 16.2517 70.9978 16.8237C71.4671 17.3957 71.8044 18.0997 72.0098 18.9357C72.2298 19.7571 72.3104 20.7031 72.2518 21.7737L63.1878 21.8617V20.1237L70.4258 20.0577L69.3038 20.9377C69.4064 20.1604 69.3551 19.5224 69.1498 19.0237C68.9444 18.5251 68.6438 18.1584 68.2478 17.9237C67.8664 17.6891 67.4411 17.5717 66.9718 17.5717C66.4144 17.5717 65.9231 17.7184 65.4978 18.0117C65.0724 18.3051 64.7424 18.7377 64.5078 19.3097C64.2731 19.8671 64.1558 20.5417 64.1558 21.3337C64.1558 22.5804 64.4271 23.4971 64.9698 24.0837C65.5271 24.6704 66.2531 24.9637 67.1478 24.9637C67.5584 24.9637 67.9031 24.9124 68.1818 24.8097C68.4751 24.6924 68.7098 24.5457 68.8858 24.3697C69.0764 24.1937 69.2231 23.9957 69.3258 23.7757C69.4431 23.5557 69.5384 23.3357 69.6118 23.1157L72.3618 23.7097C72.2298 24.2524 72.0318 24.7437 71.7678 25.1837C71.5184 25.6091 71.1811 25.9831 70.7558 26.3057C70.3304 26.6137 69.8171 26.8484 69.2158 27.0097C68.6291 27.1857 67.9398 27.2737 67.1478 27.2737ZM72.3938 26.9657L76.2218 21.1797L72.3938 15.4157H76.0458L78.1578 19.7717H78.5318L80.6438 15.4157H84.2738L80.4458 21.1797L84.3178 26.9657H80.6878L78.5318 22.5877H78.1578L76.0458 26.9657H72.3938ZM85.4031 26.9657V11.2357H88.5271V26.9657H85.4031ZM90.7803 26.9657V15.4157H93.9483V26.9657H90.7803ZM92.3863 13.6777C91.7703 13.6777 91.2936 13.5531 90.9563 13.3037C90.6336 13.0397 90.4723 12.6584 90.4723 12.1597C90.4723 11.6464 90.6336 11.2577 90.9563 10.9937C91.2936 10.7297 91.7703 10.5977 92.3863 10.5977C93.0169 10.5977 93.4936 10.7297 93.8163 10.9937C94.1536 11.2577 94.3223 11.6464 94.3223 12.1597C94.3223 12.6437 94.1536 13.0177 93.8163 13.2817C93.4936 13.5457 93.0169 13.6777 92.3863 13.6777ZM97.1018 26.9657V19.5737H95.2758V17.2417L98.3558 17.3737V16.9557C97.8425 16.8384 97.4171 16.6551 97.0798 16.4057C96.7571 16.1417 96.5225 15.8264 96.3758 15.4597C96.2291 15.0931 96.1558 14.7044 96.1558 14.2937C96.1558 13.6631 96.3171 13.1204 96.6398 12.6657C96.9625 12.1964 97.4171 11.8371 98.0038 11.5877C98.5905 11.3237 99.2798 11.1917 100.071 11.1917C100.746 11.1917 101.355 11.2797 101.897 11.4557C102.455 11.6171 102.902 11.8224 103.239 12.0717L103.041 14.9317C102.689 14.6824 102.293 14.4771 101.853 14.3157C101.413 14.1544 100.995 14.0737 100.599 14.0737C100.159 14.0737 99.7931 14.1911 99.4998 14.4257C99.2211 14.6604 99.0818 15.0417 99.0818 15.5697C99.0818 15.9364 99.1551 16.2297 99.3018 16.4497C99.4631 16.6551 99.6538 16.8091 99.8738 16.9117C100.108 16.9997 100.335 17.0584 100.555 17.0877H103.195V19.5737H100.181V26.9657H97.1018ZM108.726 30.9697C108.14 30.9697 107.538 30.9111 106.922 30.7937C106.321 30.6911 105.749 30.5224 105.206 30.2877C104.678 30.0677 104.224 29.7817 103.842 29.4297L104.744 26.7237C105.214 27.2077 105.8 27.5671 106.504 27.8017C107.208 28.0511 107.905 28.1757 108.594 28.1757C109.372 28.1757 110.017 28.0144 110.53 27.6917C111.058 27.3837 111.454 26.9071 111.718 26.2617C111.997 25.6017 112.158 24.7804 112.202 23.7977L112.334 21.7957H111.85C111.704 22.7637 111.462 23.5557 111.124 24.1717C110.802 24.7877 110.384 25.2424 109.87 25.5357C109.372 25.8144 108.778 25.9537 108.088 25.9537C107.252 25.9537 106.548 25.7411 105.976 25.3157C105.404 24.8904 104.972 24.2524 104.678 23.4017C104.4 22.5511 104.26 21.5024 104.26 20.2557V15.4157H107.428V19.4857C107.428 20.8497 107.582 21.8324 107.89 22.4337C108.198 23.0351 108.668 23.3357 109.298 23.3357C109.636 23.3357 109.944 23.2477 110.222 23.0717C110.501 22.8811 110.736 22.6097 110.926 22.2577C111.132 21.9057 111.286 21.4804 111.388 20.9817C111.506 20.4684 111.564 19.8891 111.564 19.2437V15.4157H114.732V23.9077C114.732 24.8317 114.652 25.6751 114.49 26.4377C114.329 27.1857 114.087 27.8384 113.764 28.3957C113.456 28.9677 113.06 29.4444 112.576 29.8257C112.092 30.2071 111.528 30.4931 110.882 30.6837C110.252 30.8744 109.533 30.9697 108.726 30.9697Z" fill="white"/>
</g>
</g>
<defs>
<filter id="filter0_d_3456_119" x="0.5" y="0.5" width="118.734" height="40.9297" filterUnits="userSpaceOnUse" color-interpolation-filters="sRGB">
<feFlood flood-opacity="0" result="BackgroundImageFix"/>
<feColorMatrix in="SourceAlpha" type="matrix" values="0 0 0 0 0 0 0 0 0 0 0 0 0 0 0 0 0 0 127 0" result="hardAlpha"/>
<feOffset dy="2"/>
<feGaussianBlur stdDeviation="2.25"/>
<feComposite in2="hardAlpha" operator="out"/>
<feColorMatrix type="matrix" values="0 0 0 0 0 0 0 0 0 0 0 0 0 0 0 0 0 0 0.07 0"/>
<feBlend mode="normal" in2="BackgroundImageFix" result="effect1_dropShadow_3456_119"/>
<feBlend mode="normal" in="SourceGraphic" in2="effect1_dropShadow_3456_119" result="shape"/>
</filter>
<filter id="filter1_ii_3456_119" x="4" y="3" width="32.9297" height="34.9297" filterUnits="userSpaceOnUse" color-interpolation-filters="sRGB">
<feFlood flood-opacity="0" result="BackgroundImageFix"/>
<feBlend mode="normal" in="SourceGraphic" in2="BackgroundImageFix" result="shape"/>
<feColorMatrix in="SourceAlpha" type="matrix" values="0 0 0 0 0 0 0 0 0 0 0 0 0 0 0 0 0 0 127 0" result="hardAlpha"/>
<feOffset dy="2"/>
<feGaussianBlur stdDeviation="0.65"/>
<feComposite in2="hardAlpha" operator="arithmetic" k2="-1" k3="1"/>
<feColorMatrix type="matrix" values="0 0 0 0 1 0 0 0 0 1 0 0 0 0 1 0 0 0 0.25 0"/>
<feBlend mode="normal" in2="shape" result="effect1_innerShadow_3456_119"/>
<feColorMatrix in="SourceAlpha" type="matrix" values="0 0 0 0 0 0 0 0 0 0 0 0 0 0 0 0 0 0 127 0" result="hardAlpha"/>
<feOffset dx="-1" dy="3"/>
<feGaussianBlur stdDeviation="1.75"/>
<feComposite in2="hardAlpha" operator="arithmetic" k2="-1" k3="1"/>
<feColorMatrix type="matrix" values="0 0 0 0 1 0 0 0 0 1 0 0 0 0 1 0 0 0 0.22 0"/>
<feBlend mode="normal" in2="effect1_innerShadow_3456_119" result="effect2_innerShadow_3456_119"/>
</filter>
<filter id="filter2_di_3456_119" x="7.85611" y="9.49869" width="26.0456" height="19.0983" filterUnits="userSpaceOnUse" color-interpolation-filters="sRGB">
<feFlood flood-opacity="0" result="BackgroundImageFix"/>
<feColorMatrix in="SourceAlpha" type="matrix" values="0 0 0 0 0 0 0 0 0 0 0 0 0 0 0 0 0 0 127 0" result="hardAlpha"/>
<feOffset/>
<feGaussianBlur stdDeviation="0.704756"/>
<feComposite in2="hardAlpha" operator="out"/>
<feColorMatrix type="matrix" values="0 0 0 0 0 0 0 0 0 0 0 0 0 0 0 0 0 0 0.06 0"/>
<feBlend mode="normal" in2="BackgroundImageFix" result="effect1_dropShadow_3456_119"/>
<feBlend mode="normal" in="SourceGraphic" in2="effect1_dropShadow_3456_119" result="shape"/>
<feColorMatrix in="SourceAlpha" type="matrix" values="0 0 0 0 0 0 0 0 0 0 0 0 0 0 0 0 0 0 127 0" result="hardAlpha"/>
<feOffset dy="-0.794092"/>
<feGaussianBlur stdDeviation="0.466529"/>
<feComposite in2="hardAlpha" operator="arithmetic" k2="-1" k3="1"/>
<feColorMatrix type="matrix" values="0 0 0 0 0 0 0 0 0 0 0 0 0 0 0 0 0 0 0.15 0"/>
<feBlend mode="normal" in2="shape" result="effect2_innerShadow_3456_119"/>
</filter>
<clipPath id="clip0_3456_119">
<rect width="120" height="42" fill="white"/>
</clipPath>
</defs>
</svg>
