<svg width="32" height="32" viewBox="0 0 32 32" fill="none" xmlns="http://www.w3.org/2000/svg">
<g filter="url(#filter0_ii_3456_127)">
<path d="M24.6499 0H7.27917C3.259 0 0 3.259 0 7.27917V24.6499C0 28.6701 3.259 31.9291 7.27917 31.9291H24.6499C28.6701 31.9291 31.9291 28.6701 31.9291 24.6499V7.27917C31.9291 3.259 28.6701 0 24.6499 0Z" fill="url(#paint0_linear_3456_127)"/>
<g filter="url(#filter1_di_3456_127)">
<path d="M22.7748 8.10742L27.295 11.0932V11.6967L18.746 23.9893H18.1236L13.6034 21.0035V20.4L18.0909 13.9519V11.792L9.6074 23.9893H8.985L4.46484 21.0035V20.4L13.0139 8.10742H13.6362L18.1236 11.0614H20.0889L22.1525 8.10742H22.7748Z" fill="#FCFCFF"/>
<path d="M27.3926 11.7275L27.375 11.7529L18.8252 24.0459L18.796 24.0889H18.0919L18.0674 24.0723L13.5469 21.0859L13.502 21.0566V20.3691L13.5206 20.3428L17.9893 13.9219V12.1074L9.68655 24.0459L9.65725 24.0889H8.95315L8.92875 24.0723L4.40821 21.0859L4.36328 21.0566V20.3691L4.38184 20.3438L12.9307 8.05081L12.96 8.00781H13.6641L13.6885 8.02441L18.1504 10.9619H20.0362L22.0694 8.05081L22.0987 8.00781H22.8028L22.8272 8.02441L27.3477 11.0107L27.3926 11.04V11.7275Z" stroke="#FDFDFD" stroke-opacity="0.27" stroke-width="0.198523"/>
</g>
</g>
<defs>
<filter id="filter0_ii_3456_127" x="-1" y="0" width="32.9297" height="34.9297" filterUnits="userSpaceOnUse" color-interpolation-filters="sRGB">
<feFlood flood-opacity="0" result="BackgroundImageFix"/>
<feBlend mode="normal" in="SourceGraphic" in2="BackgroundImageFix" result="shape"/>
<feColorMatrix in="SourceAlpha" type="matrix" values="0 0 0 0 0 0 0 0 0 0 0 0 0 0 0 0 0 0 127 0" result="hardAlpha"/>
<feOffset dy="2"/>
<feGaussianBlur stdDeviation="0.65"/>
<feComposite in2="hardAlpha" operator="arithmetic" k2="-1" k3="1"/>
<feColorMatrix type="matrix" values="0 0 0 0 1 0 0 0 0 1 0 0 0 0 1 0 0 0 0.25 0"/>
<feBlend mode="normal" in2="shape" result="effect1_innerShadow_3456_127"/>
<feColorMatrix in="SourceAlpha" type="matrix" values="0 0 0 0 0 0 0 0 0 0 0 0 0 0 0 0 0 0 127 0" result="hardAlpha"/>
<feOffset dx="-1" dy="3"/>
<feGaussianBlur stdDeviation="1.75"/>
<feComposite in2="hardAlpha" operator="arithmetic" k2="-1" k3="1"/>
<feColorMatrix type="matrix" values="0 0 0 0 1 0 0 0 0 1 0 0 0 0 1 0 0 0 0.22 0"/>
<feBlend mode="normal" in2="effect1_innerShadow_3456_127" result="effect2_innerShadow_3456_127"/>
</filter>
<filter id="filter1_di_3456_127" x="2.85611" y="6.49869" width="26.0456" height="19.0983" filterUnits="userSpaceOnUse" color-interpolation-filters="sRGB">
<feFlood flood-opacity="0" result="BackgroundImageFix"/>
<feColorMatrix in="SourceAlpha" type="matrix" values="0 0 0 0 0 0 0 0 0 0 0 0 0 0 0 0 0 0 127 0" result="hardAlpha"/>
<feOffset/>
<feGaussianBlur stdDeviation="0.704756"/>
<feComposite in2="hardAlpha" operator="out"/>
<feColorMatrix type="matrix" values="0 0 0 0 0 0 0 0 0 0 0 0 0 0 0 0 0 0 0.06 0"/>
<feBlend mode="normal" in2="BackgroundImageFix" result="effect1_dropShadow_3456_127"/>
<feBlend mode="normal" in="SourceGraphic" in2="effect1_dropShadow_3456_127" result="shape"/>
<feColorMatrix in="SourceAlpha" type="matrix" values="0 0 0 0 0 0 0 0 0 0 0 0 0 0 0 0 0 0 127 0" result="hardAlpha"/>
<feOffset dy="-0.794092"/>
<feGaussianBlur stdDeviation="0.466529"/>
<feComposite in2="hardAlpha" operator="arithmetic" k2="-1" k3="1"/>
<feColorMatrix type="matrix" values="0 0 0 0 0 0 0 0 0 0 0 0 0 0 0 0 0 0 0.15 0"/>
<feBlend mode="normal" in2="shape" result="effect2_innerShadow_3456_127"/>
</filter>
<linearGradient id="paint0_linear_3456_127" x1="15.9646" y1="0" x2="15.9646" y2="31.9291" gradientUnits="userSpaceOnUse">
<stop stop-color="#A8C5F0"/>
<stop offset="1" stop-color="#2768DF"/>
</linearGradient>
</defs>
</svg>
