<svg width="65" height="65" viewBox="0 0 65 65" fill="none" xmlns="http://www.w3.org/2000/svg">
<g filter="url(#filter0_ii_3415_42)">
<rect x="0.695312" y="0.0234375" width="64" height="64" rx="14.5907" fill="url(#paint0_linear_3415_42)"/>
<g filter="url(#filter1_di_3415_42)">
<path d="M46.1065 16.1895L55.1194 22.1429V23.3463L38.0732 47.8568H36.8323L27.8194 41.9033V40.6999L36.767 27.843V23.5363L19.8515 47.8568H18.6106L9.59766 41.9033V40.6999L26.6438 16.1895H27.8847L36.8323 22.0796H40.751L44.8656 16.1895H46.1065Z" fill="url(#paint1_linear_3415_42)" shape-rendering="crispEdges"/>
<path d="M55.3174 23.4082L55.2822 23.459L38.2354 47.9697L38.1768 48.0547H36.7725L36.7236 48.0215L27.71 42.0684L27.6211 42.0098V40.6377L27.6572 40.5869L36.5693 27.7793V24.167L20.0137 47.9697L19.9551 48.0547H18.5508L18.502 48.0215L9.48828 42.0684L9.39941 42.0098V40.6377L9.43555 40.5869L26.4814 16.0762L26.54 15.9912H27.9443L27.9932 16.0244L36.8926 21.8818H40.6475L44.7031 16.0762L44.7627 15.9912H46.166L46.2158 16.0244L55.2285 21.9775L55.3174 22.0361V23.4082Z" stroke="#FDFDFD" stroke-opacity="0.27" stroke-width="0.395841" shape-rendering="crispEdges"/>
</g>
</g>
<defs>
<filter id="filter0_ii_3415_42" x="-1.30913" y="0.0234375" width="66.0044" height="70.0133" filterUnits="userSpaceOnUse" color-interpolation-filters="sRGB">
<feFlood flood-opacity="0" result="BackgroundImageFix"/>
<feBlend mode="normal" in="SourceGraphic" in2="BackgroundImageFix" result="shape"/>
<feColorMatrix in="SourceAlpha" type="matrix" values="0 0 0 0 0 0 0 0 0 0 0 0 0 0 0 0 0 0 127 0" result="hardAlpha"/>
<feOffset dy="4.00888"/>
<feGaussianBlur stdDeviation="1.30289"/>
<feComposite in2="hardAlpha" operator="arithmetic" k2="-1" k3="1"/>
<feColorMatrix type="matrix" values="0 0 0 0 1 0 0 0 0 1 0 0 0 0 1 0 0 0 0.25 0"/>
<feBlend mode="normal" in2="shape" result="effect1_innerShadow_3415_42"/>
<feColorMatrix in="SourceAlpha" type="matrix" values="0 0 0 0 0 0 0 0 0 0 0 0 0 0 0 0 0 0 127 0" result="hardAlpha"/>
<feOffset dx="-2.00444" dy="6.01332"/>
<feGaussianBlur stdDeviation="3.50777"/>
<feComposite in2="hardAlpha" operator="arithmetic" k2="-1" k3="1"/>
<feColorMatrix type="matrix" values="0 0 0 0 1 0 0 0 0 1 0 0 0 0 1 0 0 0 0.22 0"/>
<feBlend mode="normal" in2="effect1_innerShadow_3415_42" result="effect2_innerShadow_3415_42"/>
</filter>
<filter id="filter1_di_3415_42" x="6.39265" y="12.9825" width="51.9334" height="38.0799" filterUnits="userSpaceOnUse" color-interpolation-filters="sRGB">
<feFlood flood-opacity="0" result="BackgroundImageFix"/>
<feColorMatrix in="SourceAlpha" type="matrix" values="0 0 0 0 0 0 0 0 0 0 0 0 0 0 0 0 0 0 127 0" result="hardAlpha"/>
<feOffset/>
<feGaussianBlur stdDeviation="1.40524"/>
<feComposite in2="hardAlpha" operator="out"/>
<feColorMatrix type="matrix" values="0 0 0 0 0 0 0 0 0 0 0 0 0 0 0 0 0 0 0.06 0"/>
<feBlend mode="normal" in2="BackgroundImageFix" result="effect1_dropShadow_3415_42"/>
<feBlend mode="normal" in="SourceGraphic" in2="effect1_dropShadow_3415_42" result="shape"/>
<feColorMatrix in="SourceAlpha" type="matrix" values="0 0 0 0 0 0 0 0 0 0 0 0 0 0 0 0 0 0 127 0" result="hardAlpha"/>
<feOffset dy="-1.58337"/>
<feGaussianBlur stdDeviation="0.930227"/>
<feComposite in2="hardAlpha" operator="arithmetic" k2="-1" k3="1"/>
<feColorMatrix type="matrix" values="0 0 0 0 0 0 0 0 0 0 0 0 0 0 0 0 0 0 0.15 0"/>
<feBlend mode="normal" in2="shape" result="effect2_innerShadow_3415_42"/>
</filter>
<linearGradient id="paint0_linear_3415_42" x1="32.6953" y1="0.0234375" x2="32.6953" y2="64.0234" gradientUnits="userSpaceOnUse">
<stop stop-color="#FFDD00"/>
<stop offset="1" stop-color="#FF8C45"/>
</linearGradient>
<linearGradient id="paint1_linear_3415_42" x1="32.3585" y1="16.1895" x2="32.3585" y2="47.8568" gradientUnits="userSpaceOnUse">
<stop stop-color="#FFF7E6"/>
<stop offset="1" stop-color="#FFF3D8"/>
</linearGradient>
</defs>
</svg>
